<svg width="32" height="38" viewBox="0 0 32 38" fill="none" xmlns="http://www.w3.org/2000/svg">
<path d="M30.5 31.8524C30.5 32.1326 30.358 32.5683 29.7341 33.135C29.1098 33.7021 28.1227 34.2817 26.7757 34.7992C24.0918 35.8304 20.2825 36.5 16 36.5C11.7175 36.5 7.9082 35.8304 5.22428 34.7992C3.87729 34.2817 2.89022 33.7021 2.26595 33.135C1.64203 32.5683 1.5 32.1326 1.5 31.8524C1.5 31.5723 1.64203 31.1366 2.26595 30.5698C2.89022 30.0027 3.87729 29.4232 5.22428 28.9057C7.9082 27.8745 11.7175 27.2049 16 27.2049C20.2825 27.2049 24.0918 27.8745 26.7757 28.9057C28.1227 29.4232 29.1098 30.0027 29.7341 30.5698C30.358 31.1366 30.5 31.5723 30.5 31.8524Z" stroke="#152C5B" stroke-width="3"/>
<path d="M29.2548 10.9798C29.2548 13.688 27.7919 19.207 25.3162 24.0942C24.0894 26.5158 22.6648 28.6778 21.1401 30.2125C19.6003 31.7624 18.1198 32.5164 16.7548 32.5164C15.3897 32.5164 13.9092 31.7624 12.3695 30.2125C10.8448 28.6778 9.4201 26.5158 8.19336 24.0942C5.71757 19.207 4.25476 13.688 4.25476 10.9798C4.25476 6.0633 9.49125 1.5 16.7548 1.5C24.0183 1.5 29.2548 6.0633 29.2548 10.9798Z" stroke="#152C5B" stroke-width="3"/>
<path d="M21.5399 12.2951C21.5399 13.9177 19.8179 15.7131 17.0399 15.7131C14.2619 15.7131 12.5399 13.9177 12.5399 12.2951C12.5399 10.6725 14.2619 8.87708 17.0399 8.87708C19.8179 8.87708 21.5399 10.6725 21.5399 12.2951Z" stroke="#FF498B" stroke-width="3"/>
</svg>
