<svg width="236" height="215" viewBox="0 0 236 215" fill="none" xmlns="http://www.w3.org/2000/svg">
<rect x="0.989868" y="0.345703" width="234.184" height="213.815" fill="#D9D9D9"/>
<ellipse cx="117.5" cy="78" rx="49.5" ry="20" fill="#FF498B"/>
<path d="M69.2384 174.291C69.9851 174.424 70.6184 174.817 71.1384 175.471C71.6584 176.124 71.9184 176.864 71.9184 177.691C71.9184 178.397 71.7317 179.037 71.3584 179.611C70.9984 180.171 70.4717 180.617 69.7784 180.951C69.0851 181.271 68.2784 181.431 67.3584 181.431H61.7984V167.531H67.0984C68.0451 167.531 68.8584 167.691 69.5384 168.011C70.2184 168.331 70.7317 168.764 71.0784 169.311C71.4251 169.844 71.5984 170.444 71.5984 171.111C71.5984 171.911 71.3851 172.577 70.9584 173.111C70.5317 173.644 69.9584 174.037 69.2384 174.291ZM64.0784 173.371H66.8984C67.6451 173.371 68.2251 173.204 68.6384 172.871C69.0651 172.524 69.2784 172.031 69.2784 171.391C69.2784 170.764 69.0651 170.277 68.6384 169.931C68.2251 169.571 67.6451 169.391 66.8984 169.391H64.0784V173.371ZM67.1584 179.571C67.9317 179.571 68.5384 179.384 68.9784 179.011C69.4184 178.637 69.6384 178.117 69.6384 177.451C69.6384 176.771 69.4051 176.231 68.9384 175.831C68.4717 175.431 67.8517 175.231 67.0784 175.231H64.0784V179.571H67.1584ZM79.176 181.611C78.136 181.611 77.196 181.377 76.356 180.911C75.516 180.431 74.856 179.764 74.376 178.911C73.896 178.044 73.656 177.044 73.656 175.911C73.656 174.791 73.9027 173.797 74.396 172.931C74.8894 172.064 75.5627 171.397 76.416 170.931C77.2694 170.464 78.2227 170.231 79.276 170.231C80.3294 170.231 81.2827 170.464 82.136 170.931C82.9894 171.397 83.6627 172.064 84.156 172.931C84.6494 173.797 84.896 174.791 84.896 175.911C84.896 177.031 84.6427 178.024 84.1361 178.891C83.6294 179.757 82.9361 180.431 82.0561 180.911C81.1894 181.377 80.2294 181.611 79.176 181.611ZM79.176 179.631C79.7627 179.631 80.3094 179.491 80.8161 179.211C81.3361 178.931 81.7561 178.511 82.076 177.951C82.396 177.391 82.556 176.711 82.556 175.911C82.556 175.111 82.4027 174.437 82.096 173.891C81.7894 173.331 81.3827 172.911 80.876 172.631C80.3694 172.351 79.8227 172.211 79.236 172.211C78.6494 172.211 78.1027 172.351 77.596 172.631C77.1027 172.911 76.7094 173.331 76.416 173.891C76.1227 174.437 75.976 175.111 75.976 175.911C75.976 177.097 76.276 178.017 76.876 178.671C77.4894 179.311 78.256 179.631 79.176 179.631ZM91.93 181.611C90.89 181.611 89.95 181.377 89.11 180.911C88.27 180.431 87.61 179.764 87.13 178.911C86.65 178.044 86.41 177.044 86.41 175.911C86.41 174.791 86.6566 173.797 87.15 172.931C87.6433 172.064 88.3166 171.397 89.17 170.931C90.0233 170.464 90.9766 170.231 92.03 170.231C93.0833 170.231 94.0366 170.464 94.89 170.931C95.7433 171.397 96.4166 172.064 96.91 172.931C97.4033 173.797 97.65 174.791 97.65 175.911C97.65 177.031 97.3966 178.024 96.89 178.891C96.3833 179.757 95.69 180.431 94.81 180.911C93.9433 181.377 92.9833 181.611 91.93 181.611ZM91.93 179.631C92.5166 179.631 93.0633 179.491 93.57 179.211C94.09 178.931 94.51 178.511 94.83 177.951C95.15 177.391 95.31 176.711 95.31 175.911C95.31 175.111 95.1566 174.437 94.85 173.891C94.5433 173.331 94.1366 172.911 93.63 172.631C93.1233 172.351 92.5766 172.211 91.99 172.211C91.4033 172.211 90.8566 172.351 90.35 172.631C89.8566 172.911 89.4633 173.331 89.17 173.891C88.8766 174.437 88.73 175.111 88.73 175.911C88.73 177.097 89.03 178.017 89.63 178.671C90.2433 179.311 91.01 179.631 91.93 179.631ZM104.264 175.931L109.344 181.431H106.264L102.184 176.691V181.431H99.9039V166.631H102.184V175.231L106.184 170.411H109.344L104.264 175.931ZM134.273 167.531L130.153 181.431H127.573L124.653 170.911L121.553 181.431L118.993 181.451L115.053 167.531H117.473L120.353 178.851L123.473 167.531H126.033L128.933 178.791L131.833 167.531H134.273ZM140.934 181.611C139.894 181.611 138.954 181.377 138.114 180.911C137.274 180.431 136.614 179.764 136.134 178.911C135.654 178.044 135.414 177.044 135.414 175.911C135.414 174.791 135.661 173.797 136.154 172.931C136.647 172.064 137.321 171.397 138.174 170.931C139.027 170.464 139.981 170.231 141.034 170.231C142.087 170.231 143.041 170.464 143.894 170.931C144.747 171.397 145.421 172.064 145.914 172.931C146.407 173.797 146.654 174.791 146.654 175.911C146.654 177.031 146.401 178.024 145.894 178.891C145.387 179.757 144.694 180.431 143.814 180.911C142.947 181.377 141.987 181.611 140.934 181.611ZM140.934 179.631C141.521 179.631 142.067 179.491 142.574 179.211C143.094 178.931 143.514 178.511 143.834 177.951C144.154 177.391 144.314 176.711 144.314 175.911C144.314 175.111 144.161 174.437 143.854 173.891C143.547 173.331 143.141 172.911 142.634 172.631C142.127 172.351 141.581 172.211 140.994 172.211C140.407 172.211 139.861 172.351 139.354 172.631C138.861 172.911 138.467 173.331 138.174 173.891C137.881 174.437 137.734 175.111 137.734 175.911C137.734 177.097 138.034 178.017 138.634 178.671C139.247 179.311 140.014 179.631 140.934 179.631ZM151.188 172.011C151.521 171.451 151.961 171.017 152.508 170.711C153.068 170.391 153.728 170.231 154.488 170.231V172.591H153.908C153.014 172.591 152.334 172.817 151.868 173.271C151.414 173.724 151.188 174.511 151.188 175.631V181.431H148.908V170.411H151.188V172.011ZM169.924 170.231C170.79 170.231 171.564 170.411 172.244 170.771C172.937 171.131 173.477 171.664 173.864 172.371C174.264 173.077 174.464 173.931 174.464 174.931V181.431H172.204V175.271C172.204 174.284 171.957 173.531 171.464 173.011C170.97 172.477 170.297 172.211 169.444 172.211C168.59 172.211 167.91 172.477 167.404 173.011C166.91 173.531 166.664 174.284 166.664 175.271V181.431H164.404V175.271C164.404 174.284 164.157 173.531 163.664 173.011C163.17 172.477 162.497 172.211 161.644 172.211C160.79 172.211 160.11 172.477 159.604 173.011C159.11 173.531 158.864 174.284 158.864 175.271V181.431H156.584V170.411H158.864V171.671C159.237 171.217 159.71 170.864 160.284 170.611C160.857 170.357 161.47 170.231 162.124 170.231C163.004 170.231 163.79 170.417 164.484 170.791C165.177 171.164 165.71 171.704 166.084 172.411C166.417 171.744 166.937 171.217 167.644 170.831C168.35 170.431 169.11 170.231 169.924 170.231Z" fill="#152C5B"/>
<path d="M170.48 119.347V49.189C170.48 46.4119 168.033 44.1777 164.992 44.1777H89.9796C77.8588 44.1777 68.0249 53.1563 68.0249 64.2229V131.04C68.0249 142.107 77.8588 151.085 89.9796 151.085H164.992C168.033 151.085 170.48 148.851 170.48 146.074V142.733C170.48 141.167 169.68 139.747 168.445 138.828C167.484 135.613 167.484 126.446 168.445 123.231C169.68 122.333 170.48 120.913 170.48 119.347ZM97.2979 72.1574C97.2979 71.4683 97.9153 70.9046 98.67 70.9046H147.153C147.908 70.9046 148.526 71.4683 148.526 72.1574V76.3335C148.526 77.0225 147.908 77.5863 147.153 77.5863H98.67C97.9153 77.5863 97.2979 77.0225 97.2979 76.3335V72.1574ZM97.2979 85.5208C97.2979 84.8318 97.9153 84.268 98.67 84.268H147.153C147.908 84.268 148.526 84.8318 148.526 85.5208V89.6969C148.526 90.3859 147.908 90.9497 147.153 90.9497H98.67C97.9153 90.9497 97.2979 90.3859 97.2979 89.6969V85.5208ZM155.249 137.722H89.9796C85.9317 137.722 82.6614 134.736 82.6614 131.04C82.6614 127.365 85.9546 124.358 89.9796 124.358H155.249C154.815 127.929 154.815 134.151 155.249 137.722Z" fill="#152C5B"/>
</svg>
