<svg width="236" height="214" viewBox="0 0 236 214" fill="none" xmlns="http://www.w3.org/2000/svg">
<rect x="0.989868" width="234.184" height="213.815" fill="#D9D9D9"/>
<path d="M66.1309 167.185V169.045H60.2309V173.145H64.8309V175.005H60.2309V181.085H57.9509V167.185H66.1309ZM67.4838 175.525C67.4838 174.418 67.7105 173.438 68.1638 172.585C68.6305 171.732 69.2572 171.072 70.0438 170.605C70.8438 170.125 71.7238 169.885 72.6838 169.885C73.5505 169.885 74.3038 170.058 74.9438 170.405C75.5972 170.738 76.1172 171.158 76.5038 171.665V170.065H78.8038V181.085H76.5038V179.445C76.1172 179.965 75.5905 180.398 74.9238 180.745C74.2572 181.092 73.4972 181.265 72.6438 181.265C71.6972 181.265 70.8305 181.025 70.0438 180.545C69.2572 180.052 68.6305 179.372 68.1638 178.505C67.7105 177.625 67.4838 176.632 67.4838 175.525ZM76.5038 175.565C76.5038 174.805 76.3438 174.145 76.0238 173.585C75.7172 173.025 75.3105 172.598 74.8038 172.305C74.2972 172.012 73.7505 171.865 73.1638 171.865C72.5772 171.865 72.0305 172.012 71.5238 172.305C71.0172 172.585 70.6038 173.005 70.2838 173.565C69.9772 174.112 69.8238 174.765 69.8238 175.525C69.8238 176.285 69.9772 176.952 70.2838 177.525C70.6038 178.098 71.0172 178.538 71.5238 178.845C72.0438 179.138 72.5905 179.285 73.1638 179.285C73.7505 179.285 74.2972 179.138 74.8038 178.845C75.3105 178.552 75.7172 178.125 76.0238 177.565C76.3438 176.992 76.5038 176.325 76.5038 175.565ZM85.7985 181.265C84.9318 181.265 84.1518 181.112 83.4585 180.805C82.7785 180.485 82.2385 180.058 81.8385 179.525C81.4385 178.978 81.2252 178.372 81.1985 177.705H83.5585C83.5985 178.172 83.8185 178.565 84.2185 178.885C84.6318 179.192 85.1452 179.345 85.7585 179.345C86.3985 179.345 86.8918 179.225 87.2385 178.985C87.5985 178.732 87.7785 178.412 87.7785 178.025C87.7785 177.612 87.5785 177.305 87.1785 177.105C86.7918 176.905 86.1718 176.685 85.3185 176.445C84.4918 176.218 83.8185 175.998 83.2985 175.785C82.7785 175.572 82.3252 175.245 81.9385 174.805C81.5652 174.365 81.3785 173.785 81.3785 173.065C81.3785 172.478 81.5518 171.945 81.8985 171.465C82.2452 170.972 82.7385 170.585 83.3785 170.305C84.0318 170.025 84.7785 169.885 85.6185 169.885C86.8718 169.885 87.8785 170.205 88.6385 170.845C89.4118 171.472 89.8252 172.332 89.8785 173.425H87.5985C87.5585 172.932 87.3585 172.538 86.9985 172.245C86.6385 171.952 86.1518 171.805 85.5385 171.805C84.9385 171.805 84.4785 171.918 84.1585 172.145C83.8385 172.372 83.6785 172.672 83.6785 173.045C83.6785 173.338 83.7852 173.585 83.9985 173.785C84.2118 173.985 84.4718 174.145 84.7785 174.265C85.0852 174.372 85.5385 174.512 86.1385 174.685C86.9385 174.898 87.5918 175.118 88.0985 175.345C88.6185 175.558 89.0652 175.878 89.4385 176.305C89.8118 176.732 90.0052 177.298 90.0185 178.005C90.0185 178.632 89.8452 179.192 89.4985 179.685C89.1518 180.178 88.6585 180.565 88.0185 180.845C87.3918 181.125 86.6518 181.265 85.7985 181.265ZM98.1821 169.885C99.0221 169.885 99.7688 170.065 100.422 170.425C101.089 170.785 101.609 171.318 101.982 172.025C102.369 172.732 102.562 173.585 102.562 174.585V181.085H100.302V174.925C100.302 173.938 100.055 173.185 99.5621 172.665C99.0688 172.132 98.3954 171.865 97.5421 171.865C96.6888 171.865 96.0088 172.132 95.5021 172.665C95.0088 173.185 94.7621 173.938 94.7621 174.925V181.085H92.4821V166.285H94.7621V171.345C95.1488 170.878 95.6354 170.518 96.2221 170.265C96.8221 170.012 97.4754 169.885 98.1821 169.885ZM106.63 168.605C106.217 168.605 105.87 168.465 105.59 168.185C105.31 167.905 105.17 167.558 105.17 167.145C105.17 166.732 105.31 166.385 105.59 166.105C105.87 165.825 106.217 165.685 106.63 165.685C107.03 165.685 107.37 165.825 107.65 166.105C107.93 166.385 108.07 166.732 108.07 167.145C108.07 167.558 107.93 167.905 107.65 168.185C107.37 168.465 107.03 168.605 106.63 168.605ZM107.75 170.065V181.085H105.47V170.065H107.75ZM115.524 181.265C114.484 181.265 113.544 181.032 112.704 180.565C111.864 180.085 111.204 179.418 110.724 178.565C110.244 177.698 110.004 176.698 110.004 175.565C110.004 174.445 110.25 173.452 110.744 172.585C111.237 171.718 111.91 171.052 112.764 170.585C113.617 170.118 114.57 169.885 115.624 169.885C116.677 169.885 117.63 170.118 118.484 170.585C119.337 171.052 120.01 171.718 120.504 172.585C120.997 173.452 121.244 174.445 121.244 175.565C121.244 176.685 120.99 177.678 120.484 178.545C119.977 179.412 119.284 180.085 118.404 180.565C117.537 181.032 116.577 181.265 115.524 181.265ZM115.524 179.285C116.11 179.285 116.657 179.145 117.164 178.865C117.684 178.585 118.104 178.165 118.424 177.605C118.744 177.045 118.904 176.365 118.904 175.565C118.904 174.765 118.75 174.092 118.444 173.545C118.137 172.985 117.73 172.565 117.224 172.285C116.717 172.005 116.17 171.865 115.584 171.865C114.997 171.865 114.45 172.005 113.944 172.285C113.45 172.565 113.057 172.985 112.764 173.545C112.47 174.092 112.324 174.765 112.324 175.565C112.324 176.752 112.624 177.672 113.224 178.325C113.837 178.965 114.604 179.285 115.524 179.285ZM129.058 169.885C129.924 169.885 130.698 170.065 131.378 170.425C132.071 170.785 132.611 171.318 132.998 172.025C133.384 172.732 133.578 173.585 133.578 174.585V181.085H131.318V174.925C131.318 173.938 131.071 173.185 130.578 172.665C130.084 172.132 129.411 171.865 128.558 171.865C127.704 171.865 127.024 172.132 126.518 172.665C126.024 173.185 125.778 173.938 125.778 174.925V181.085H123.498V170.065H125.778V171.325C126.151 170.872 126.624 170.518 127.198 170.265C127.784 170.012 128.404 169.885 129.058 169.885ZM135.726 175.525C135.726 174.418 135.953 173.438 136.406 172.585C136.873 171.732 137.499 171.072 138.286 170.605C139.086 170.125 139.966 169.885 140.926 169.885C141.793 169.885 142.546 170.058 143.186 170.405C143.839 170.738 144.359 171.158 144.746 171.665V170.065H147.046V181.085H144.746V179.445C144.359 179.965 143.833 180.398 143.166 180.745C142.499 181.092 141.739 181.265 140.886 181.265C139.939 181.265 139.073 181.025 138.286 180.545C137.499 180.052 136.873 179.372 136.406 178.505C135.953 177.625 135.726 176.632 135.726 175.525ZM144.746 175.565C144.746 174.805 144.586 174.145 144.266 173.585C143.959 173.025 143.553 172.598 143.046 172.305C142.539 172.012 141.993 171.865 141.406 171.865C140.819 171.865 140.273 172.012 139.766 172.305C139.259 172.585 138.846 173.005 138.526 173.565C138.219 174.112 138.066 174.765 138.066 175.525C138.066 176.285 138.219 176.952 138.526 177.525C138.846 178.098 139.259 178.538 139.766 178.845C140.286 179.138 140.833 179.285 141.406 179.285C141.993 179.285 142.539 179.138 143.046 178.845C143.553 178.552 143.959 178.125 144.266 177.565C144.586 176.992 144.746 176.325 144.746 175.565ZM152.321 171.705C152.707 171.172 153.234 170.738 153.901 170.405C154.581 170.058 155.334 169.885 156.161 169.885C157.134 169.885 158.014 170.118 158.801 170.585C159.587 171.052 160.207 171.718 160.661 172.585C161.114 173.438 161.341 174.418 161.341 175.525C161.341 176.632 161.114 177.625 160.661 178.505C160.207 179.372 159.581 180.052 158.781 180.545C157.994 181.025 157.121 181.265 156.161 181.265C155.307 181.265 154.547 181.098 153.881 180.765C153.227 180.432 152.707 180.005 152.321 179.485V181.085H150.041V166.285H152.321V171.705ZM159.021 175.525C159.021 174.765 158.861 174.112 158.541 173.565C158.234 173.005 157.821 172.585 157.301 172.305C156.794 172.012 156.247 171.865 155.661 171.865C155.087 171.865 154.541 172.012 154.021 172.305C153.514 172.598 153.101 173.025 152.781 173.585C152.474 174.145 152.321 174.805 152.321 175.565C152.321 176.325 152.474 176.992 152.781 177.565C153.101 178.125 153.514 178.552 154.021 178.845C154.541 179.138 155.087 179.285 155.661 179.285C156.247 179.285 156.794 179.138 157.301 178.845C157.821 178.538 158.234 178.098 158.541 177.525C158.861 176.952 159.021 176.285 159.021 175.525ZM165.875 166.285V181.085H163.595V166.285H165.875ZM178.969 175.305C178.969 175.718 178.942 176.092 178.889 176.425H170.469C170.535 177.305 170.862 178.012 171.449 178.545C172.035 179.078 172.755 179.345 173.609 179.345C174.835 179.345 175.702 178.832 176.209 177.805H178.669C178.335 178.818 177.729 179.652 176.849 180.305C175.982 180.945 174.902 181.265 173.609 181.265C172.555 181.265 171.609 181.032 170.769 180.565C169.942 180.085 169.289 179.418 168.809 178.565C168.342 177.698 168.109 176.698 168.109 175.565C168.109 174.432 168.335 173.438 168.789 172.585C169.255 171.718 169.902 171.052 170.729 170.585C171.569 170.118 172.529 169.885 173.609 169.885C174.649 169.885 175.575 170.112 176.389 170.565C177.202 171.018 177.835 171.658 178.289 172.485C178.742 173.298 178.969 174.238 178.969 175.305ZM176.589 174.585C176.575 173.745 176.275 173.072 175.689 172.565C175.102 172.058 174.375 171.805 173.509 171.805C172.722 171.805 172.049 172.058 171.489 172.565C170.929 173.058 170.595 173.732 170.489 174.585H176.589Z" fill="#152C5B"/>
<ellipse cx="141" cy="102" rx="17" ry="13" fill="#FF498B"/>
<ellipse cx="87.5" cy="114" rx="15.5" ry="25" fill="#FF498B"/>
<path d="M166.065 90.5991L154 73.75V46.75C154 44.9598 153.236 43.2429 151.877 41.977C150.517 40.7112 148.673 40 146.75 40H139.5C138.427 39.9998 137.377 40.2957 136.484 40.8503L130.82 44.367C126.952 46.7749 122.403 48.0601 117.75 48.0601C113.097 48.0601 108.548 46.7749 104.68 44.367L99.016 40.8503C98.123 40.2957 97.0735 39.9998 96 40H88.75C86.8272 40 84.9831 40.7112 83.6235 41.977C82.2638 43.2429 81.5 44.9598 81.5 46.75V73.75L69.4351 90.5991C67.8473 92.8166 67 95.4222 67 98.0873V141.25C67 143.04 67.7638 144.757 69.1235 146.023C70.4831 147.289 72.3272 148 74.25 148H110.5V100.75C110.5 100.025 110.626 99.3038 110.872 98.6155L113.929 90.0766L101.027 54.0402C106.129 56.73 111.887 58.1586 117.75 58.19C123.613 58.159 129.37 56.7307 134.473 54.0413L117.75 100.75V148H161.25C163.173 148 165.017 147.289 166.377 146.023C167.736 144.757 168.5 143.04 168.5 141.25V98.0873C168.5 95.4222 167.653 92.8166 166.065 90.5991ZM81.3867 97.4771C80.8845 97.0001 80.605 96.3578 80.6089 95.6899C80.6129 95.022 80.8999 94.3825 81.4077 93.9107C81.9154 93.4389 82.6028 93.1728 83.3202 93.1704C84.0375 93.168 84.7269 93.4295 85.2383 93.8979L88.75 97.1674L92.2617 93.8979C92.7731 93.4295 93.4625 93.168 94.1798 93.1704C94.8972 93.1728 95.5846 93.4389 96.0923 93.9107C96.6001 94.3825 96.8871 95.022 96.8911 95.6899C96.895 96.3578 96.6154 97.0001 96.1133 97.4771L92.5979 100.75L96.1133 104.023C96.6154 104.5 96.895 105.142 96.8911 105.81C96.8871 106.478 96.6001 107.117 96.0923 107.589C95.5846 108.061 94.8972 108.327 94.1798 108.33C93.4625 108.332 92.7731 108.071 92.2617 107.602L88.75 104.333L85.2383 107.602C84.7269 108.071 84.0375 108.332 83.3202 108.33C82.6028 108.327 81.9154 108.061 81.4077 107.589C80.8999 107.117 80.6129 106.478 80.6089 105.81C80.605 105.142 80.8845 104.5 81.3867 104.023L84.9021 100.75L81.3867 97.4771ZM88.75 136.188C86.9576 136.188 85.2055 135.693 83.7151 134.766C82.2248 133.838 81.0633 132.521 80.3773 130.979C79.6914 129.437 79.512 127.741 79.8616 126.104C80.2113 124.467 81.0744 122.964 82.3418 121.784C83.6093 120.604 85.224 119.8 86.982 119.475C88.7399 119.149 90.5621 119.316 92.2181 119.955C93.874 120.593 95.2894 121.675 96.2852 123.062C97.281 124.45 97.8125 126.081 97.8125 127.75C97.8125 129.988 96.8577 132.134 95.1582 133.716C93.4586 135.299 91.1535 136.188 88.75 136.188ZM148.387 110.83L137.393 110.875C137.193 110.876 136.996 110.84 136.811 110.769C136.626 110.698 136.459 110.594 136.318 110.463C136.177 110.331 136.065 110.175 135.989 110.004C135.913 109.832 135.874 109.648 135.875 109.462L135.924 99.2156C135.932 98.4885 136.102 97.7708 136.422 97.1077C136.743 96.4446 137.207 95.8505 137.786 95.3626C138.365 94.8747 139.047 94.5036 139.787 94.2728C140.528 94.0419 141.312 93.9562 142.09 94.0211C144.987 94.2662 147.103 96.6829 147.087 99.3829L147.078 100.45L148.223 100.442C151.129 100.434 153.714 102.398 153.977 105.098C154.047 105.823 153.954 106.553 153.706 107.243C153.457 107.932 153.057 108.567 152.532 109.105C152.007 109.644 151.367 110.075 150.654 110.372C149.94 110.669 149.169 110.825 148.387 110.83Z" fill="#152C5B"/>
</svg>
