<svg width="235" height="214" viewBox="0 0 235 214" fill="none" xmlns="http://www.w3.org/2000/svg">
<rect width="234.184" height="213.815" fill="#D9D9D9"/>
<path d="M61.7403 167.185V169.045H55.8403V173.145H60.4403V175.005H55.8403V181.085H53.5603V167.185H61.7403ZM65.0132 168.605C64.5999 168.605 64.2532 168.465 63.9732 168.185C63.6932 167.905 63.5532 167.558 63.5532 167.145C63.5532 166.731 63.6932 166.385 63.9732 166.105C64.2532 165.825 64.5999 165.685 65.0132 165.685C65.4132 165.685 65.7532 165.825 66.0332 166.105C66.3132 166.385 66.4532 166.731 66.4532 167.145C66.4532 167.558 66.3132 167.905 66.0332 168.185C65.7532 168.465 65.4132 168.605 65.0132 168.605ZM66.1332 170.065V181.085H63.8532V170.065H66.1332ZM71.7867 171.925V178.025C71.7867 178.438 71.88 178.738 72.0667 178.925C72.2667 179.098 72.6 179.185 73.0667 179.185H74.4667V181.085H72.6667C71.64 181.085 70.8533 180.845 70.3067 180.365C69.76 179.885 69.4867 179.105 69.4867 178.025V171.925H68.1867V170.065H69.4867V167.325H71.7867V170.065H74.4667V171.925H71.7867ZM82.1281 169.885C82.9948 169.885 83.7681 170.065 84.4481 170.425C85.1414 170.785 85.6814 171.318 86.0681 172.025C86.4548 172.731 86.6481 173.585 86.6481 174.585V181.085H84.3881V174.925C84.3881 173.938 84.1414 173.185 83.6481 172.665C83.1548 172.131 82.4814 171.865 81.6281 171.865C80.7748 171.865 80.0948 172.131 79.5881 172.665C79.0948 173.185 78.8481 173.938 78.8481 174.925V181.085H76.5681V170.065H78.8481V171.325C79.2214 170.871 79.6948 170.518 80.2681 170.265C80.8548 170.011 81.4748 169.885 82.1281 169.885ZM99.6564 175.305C99.6564 175.718 99.6297 176.091 99.5764 176.425H91.1564C91.223 177.305 91.5497 178.011 92.1364 178.545C92.723 179.078 93.443 179.345 94.2964 179.345C95.523 179.345 96.3897 178.831 96.8964 177.805H99.3564C99.023 178.818 98.4164 179.651 97.5364 180.305C96.6697 180.945 95.5897 181.265 94.2964 181.265C93.243 181.265 92.2964 181.031 91.4564 180.565C90.6297 180.085 89.9764 179.418 89.4964 178.565C89.0297 177.698 88.7964 176.698 88.7964 175.565C88.7964 174.431 89.023 173.438 89.4764 172.585C89.943 171.718 90.5897 171.051 91.4164 170.585C92.2564 170.118 93.2164 169.885 94.2964 169.885C95.3364 169.885 96.263 170.111 97.0764 170.565C97.8897 171.018 98.523 171.658 98.9764 172.485C99.4297 173.298 99.6564 174.238 99.6564 175.305ZM97.2764 174.585C97.263 173.745 96.963 173.071 96.3764 172.565C95.7897 172.058 95.063 171.805 94.1964 171.805C93.4097 171.805 92.7364 172.058 92.1764 172.565C91.6164 173.058 91.283 173.731 91.1764 174.585H97.2764ZM105.9 181.265C105.033 181.265 104.253 181.111 103.56 180.805C102.88 180.485 102.34 180.058 101.94 179.525C101.54 178.978 101.327 178.371 101.3 177.705H103.66C103.7 178.171 103.92 178.565 104.32 178.885C104.733 179.191 105.247 179.345 105.86 179.345C106.5 179.345 106.993 179.225 107.34 178.985C107.7 178.731 107.88 178.411 107.88 178.025C107.88 177.611 107.68 177.305 107.28 177.105C106.893 176.905 106.273 176.685 105.42 176.445C104.593 176.218 103.92 175.998 103.4 175.785C102.88 175.571 102.427 175.245 102.04 174.805C101.667 174.365 101.48 173.785 101.48 173.065C101.48 172.478 101.653 171.945 102 171.465C102.347 170.971 102.84 170.585 103.48 170.305C104.133 170.025 104.88 169.885 105.72 169.885C106.973 169.885 107.98 170.205 108.74 170.845C109.513 171.471 109.927 172.331 109.98 173.425H107.7C107.66 172.931 107.46 172.538 107.1 172.245C106.74 171.951 106.253 171.805 105.64 171.805C105.04 171.805 104.58 171.918 104.26 172.145C103.94 172.371 103.78 172.671 103.78 173.045C103.78 173.338 103.887 173.585 104.1 173.785C104.313 173.985 104.573 174.145 104.88 174.265C105.187 174.371 105.64 174.511 106.24 174.685C107.04 174.898 107.693 175.118 108.2 175.345C108.72 175.558 109.167 175.878 109.54 176.305C109.913 176.731 110.107 177.298 110.12 178.005C110.12 178.631 109.947 179.191 109.6 179.685C109.253 180.178 108.76 180.565 108.12 180.845C107.493 181.125 106.753 181.265 105.9 181.265ZM116.584 181.265C115.717 181.265 114.937 181.111 114.244 180.805C113.564 180.485 113.024 180.058 112.624 179.525C112.224 178.978 112.01 178.371 111.984 177.705H114.344C114.384 178.171 114.604 178.565 115.004 178.885C115.417 179.191 115.93 179.345 116.544 179.345C117.184 179.345 117.677 179.225 118.024 178.985C118.384 178.731 118.564 178.411 118.564 178.025C118.564 177.611 118.364 177.305 117.964 177.105C117.577 176.905 116.957 176.685 116.104 176.445C115.277 176.218 114.604 175.998 114.084 175.785C113.564 175.571 113.11 175.245 112.724 174.805C112.35 174.365 112.164 173.785 112.164 173.065C112.164 172.478 112.337 171.945 112.684 171.465C113.03 170.971 113.524 170.585 114.164 170.305C114.817 170.025 115.564 169.885 116.404 169.885C117.657 169.885 118.664 170.205 119.424 170.845C120.197 171.471 120.61 172.331 120.664 173.425H118.384C118.344 172.931 118.144 172.538 117.784 172.245C117.424 171.951 116.937 171.805 116.324 171.805C115.724 171.805 115.264 171.918 114.944 172.145C114.624 172.371 114.464 172.671 114.464 173.045C114.464 173.338 114.57 173.585 114.784 173.785C114.997 173.985 115.257 174.145 115.564 174.265C115.87 174.371 116.324 174.511 116.924 174.685C117.724 174.898 118.377 175.118 118.884 175.345C119.404 175.558 119.85 175.878 120.224 176.305C120.597 176.731 120.79 177.298 120.804 178.005C120.804 178.631 120.63 179.191 120.284 179.685C119.937 180.178 119.444 180.565 118.804 180.845C118.177 181.125 117.437 181.265 116.584 181.265ZM136.643 167.185V169.045H130.743V173.145H135.343V175.005H130.743V181.085H128.463V167.185H136.643ZM141.036 171.665C141.369 171.105 141.809 170.671 142.356 170.365C142.916 170.045 143.576 169.885 144.336 169.885V172.245H143.756C142.862 172.245 142.182 172.471 141.716 172.925C141.262 173.378 141.036 174.165 141.036 175.285V181.085H138.756V170.065H141.036V171.665ZM156.531 175.305C156.531 175.718 156.505 176.091 156.451 176.425H148.031C148.098 177.305 148.425 178.011 149.011 178.545C149.598 179.078 150.318 179.345 151.171 179.345C152.398 179.345 153.265 178.831 153.771 177.805H156.231C155.898 178.818 155.291 179.651 154.411 180.305C153.545 180.945 152.465 181.265 151.171 181.265C150.118 181.265 149.171 181.031 148.331 180.565C147.505 180.085 146.851 179.418 146.371 178.565C145.905 177.698 145.671 176.698 145.671 175.565C145.671 174.431 145.898 173.438 146.351 172.585C146.818 171.718 147.465 171.051 148.291 170.585C149.131 170.118 150.091 169.885 151.171 169.885C152.211 169.885 153.138 170.111 153.951 170.565C154.765 171.018 155.398 171.658 155.851 172.485C156.305 173.298 156.531 174.238 156.531 175.305ZM154.151 174.585C154.138 173.745 153.838 173.071 153.251 172.565C152.665 172.058 151.938 171.805 151.071 171.805C150.285 171.805 149.611 172.058 149.051 172.565C148.491 173.058 148.158 173.731 148.051 174.585H154.151ZM158.015 175.525C158.015 174.418 158.242 173.438 158.695 172.585C159.162 171.731 159.788 171.071 160.575 170.605C161.375 170.125 162.255 169.885 163.215 169.885C164.082 169.885 164.835 170.058 165.475 170.405C166.128 170.738 166.648 171.158 167.035 171.665V170.065H169.335V181.085H167.035V179.445C166.648 179.965 166.122 180.398 165.455 180.745C164.788 181.091 164.028 181.265 163.175 181.265C162.228 181.265 161.362 181.025 160.575 180.545C159.788 180.051 159.162 179.371 158.695 178.505C158.242 177.625 158.015 176.631 158.015 175.525ZM167.035 175.565C167.035 174.805 166.875 174.145 166.555 173.585C166.248 173.025 165.842 172.598 165.335 172.305C164.828 172.011 164.282 171.865 163.695 171.865C163.108 171.865 162.562 172.011 162.055 172.305C161.548 172.585 161.135 173.005 160.815 173.565C160.508 174.111 160.355 174.765 160.355 175.525C160.355 176.285 160.508 176.951 160.815 177.525C161.135 178.098 161.548 178.538 162.055 178.845C162.575 179.138 163.122 179.285 163.695 179.285C164.282 179.285 164.828 179.138 165.335 178.845C165.842 178.551 166.248 178.125 166.555 177.565C166.875 176.991 167.035 176.325 167.035 175.565ZM176.69 175.585L181.77 181.085H178.69L174.61 176.345V181.085H172.33V166.285H174.61V174.885L178.61 170.065H181.77L176.69 175.585Z" fill="#152C5B"/>
<rect x="95.094" y="80.7666" width="51.9254" height="27" transform="rotate(89.0278 95.094 80.7666)" fill="#FF498B"/>
<rect x="158.996" y="81" width="51.9254" height="27" transform="rotate(89.0278 158.996 81)" fill="#FF498B"/>
<path d="M77.5734 80.1805H68.7915C66.3582 80.1805 64.4005 81.9678 64.4005 84.1895V101.562H60.0096C59.2046 101.562 58.5459 102.163 58.5459 102.898V110.916C58.5459 111.651 59.2046 112.253 60.0096 112.253H64.4005V129.625C64.4005 131.847 66.3582 133.634 68.7915 133.634H77.5734C80.0067 133.634 81.9643 131.847 81.9643 129.625V84.1895C81.9643 81.9678 80.0067 80.1805 77.5734 80.1805ZM174.174 101.562H169.783V84.1895C169.783 81.9678 167.826 80.1805 165.392 80.1805H156.61C154.177 80.1805 152.219 81.9678 152.219 84.1895V129.625C152.219 131.847 154.177 133.634 156.61 133.634H165.392C167.826 133.634 169.783 131.847 169.783 129.625V112.253H174.174C174.979 112.253 175.638 111.651 175.638 110.916V102.898C175.638 102.163 174.979 101.562 174.174 101.562ZM141.974 69.4897H133.192C130.759 69.4897 128.801 71.2771 128.801 73.4988V101.562H105.383V73.4988C105.383 71.2771 103.425 69.4897 100.992 69.4897H92.2098C89.7765 69.4897 87.8189 71.2771 87.8189 73.4988V140.316C87.8189 142.538 89.7765 144.325 92.2098 144.325H100.992C103.425 144.325 105.383 142.538 105.383 140.316V112.253H128.801V140.316C128.801 142.538 130.759 144.325 133.192 144.325H141.974C144.407 144.325 146.365 142.538 146.365 140.316V73.4988C146.365 71.2771 144.407 69.4897 141.974 69.4897Z" fill="#152C5B"/>
</svg>
