<svg width="235" height="214" viewBox="0 0 235 214" fill="none" xmlns="http://www.w3.org/2000/svg">
<rect width="234.184" height="213.815" fill="#D9D9D9"/>
<path d="M63.9334 63.8858C63.9667 62.2293 65.3366 60.9134 66.9931 60.9468L166.006 62.9396C167.662 62.973 168.978 64.3429 168.945 65.9994L167.831 121.359C167.797 123.015 166.427 124.331 164.771 124.298L65.7582 122.305C64.1016 122.272 62.7858 120.902 62.8191 119.245L63.9334 63.8858Z" fill="#FF498B"/>
<path d="M80.6045 167.185V181.085H78.3245V171.565L74.0845 181.085H72.5045L68.2445 171.565V181.085H65.9645V167.185H68.4245L73.3045 178.085L78.1645 167.185H80.6045ZM93.7012 175.305C93.7012 175.718 93.6746 176.092 93.6212 176.425H85.2012C85.2679 177.305 85.5946 178.012 86.1812 178.545C86.7679 179.078 87.4879 179.345 88.3412 179.345C89.5679 179.345 90.4346 178.832 90.9412 177.805H93.4012C93.0679 178.818 92.4612 179.652 91.5812 180.305C90.7146 180.945 89.6346 181.265 88.3412 181.265C87.2879 181.265 86.3412 181.032 85.5012 180.565C84.6746 180.085 84.0212 179.418 83.5412 178.565C83.0746 177.698 82.8412 176.698 82.8412 175.565C82.8412 174.432 83.0679 173.438 83.5212 172.585C83.9879 171.718 84.6346 171.052 85.4612 170.585C86.3012 170.118 87.2612 169.885 88.3412 169.885C89.3812 169.885 90.3079 170.112 91.1212 170.565C91.9346 171.018 92.5679 171.658 93.0212 172.485C93.4746 173.298 93.7012 174.238 93.7012 175.305ZM91.3212 174.585C91.3079 173.745 91.0079 173.072 90.4212 172.565C89.8346 172.058 89.1079 171.805 88.2412 171.805C87.4546 171.805 86.7812 172.058 86.2212 172.565C85.6612 173.058 85.3279 173.732 85.2212 174.585H91.3212ZM95.185 175.525C95.185 174.418 95.4116 173.438 95.865 172.585C96.3316 171.732 96.9583 171.072 97.745 170.605C98.545 170.125 99.4316 169.885 100.405 169.885C101.125 169.885 101.832 170.045 102.525 170.365C103.232 170.672 103.792 171.085 104.205 171.605V166.285H106.505V181.085H104.205V179.425C103.832 179.958 103.312 180.398 102.645 180.745C101.992 181.092 101.238 181.265 100.385 181.265C99.425 181.265 98.545 181.025 97.745 180.545C96.9583 180.052 96.3316 179.372 95.865 178.505C95.4116 177.625 95.185 176.632 95.185 175.525ZM104.205 175.565C104.205 174.805 104.045 174.145 103.725 173.585C103.418 173.025 103.012 172.598 102.505 172.305C101.998 172.012 101.452 171.865 100.865 171.865C100.278 171.865 99.7316 172.012 99.225 172.305C98.7183 172.585 98.305 173.005 97.985 173.565C97.6783 174.112 97.525 174.765 97.525 175.525C97.525 176.285 97.6783 176.952 97.985 177.525C98.305 178.098 98.7183 178.538 99.225 178.845C99.745 179.138 100.292 179.285 100.865 179.285C101.452 179.285 101.998 179.138 102.505 178.845C103.012 178.552 103.418 178.125 103.725 177.565C104.045 176.992 104.205 176.325 104.205 175.565ZM110.66 168.605C110.246 168.605 109.9 168.465 109.62 168.185C109.34 167.905 109.2 167.558 109.2 167.145C109.2 166.732 109.34 166.385 109.62 166.105C109.9 165.825 110.246 165.685 110.66 165.685C111.06 165.685 111.4 165.825 111.68 166.105C111.96 166.385 112.1 166.732 112.1 167.145C112.1 167.558 111.96 167.905 111.68 168.185C111.4 168.465 111.06 168.605 110.66 168.605ZM111.78 170.065V181.085H109.5V170.065H111.78ZM114.013 175.525C114.013 174.418 114.24 173.438 114.693 172.585C115.16 171.732 115.786 171.072 116.573 170.605C117.373 170.125 118.253 169.885 119.213 169.885C120.08 169.885 120.833 170.058 121.473 170.405C122.126 170.738 122.646 171.158 123.033 171.665V170.065H125.333V181.085H123.033V179.445C122.646 179.965 122.12 180.398 121.453 180.745C120.786 181.092 120.026 181.265 119.173 181.265C118.226 181.265 117.36 181.025 116.573 180.545C115.786 180.052 115.16 179.372 114.693 178.505C114.24 177.625 114.013 176.632 114.013 175.525ZM123.033 175.565C123.033 174.805 122.873 174.145 122.553 173.585C122.246 173.025 121.84 172.598 121.333 172.305C120.826 172.012 120.28 171.865 119.693 171.865C119.106 171.865 118.56 172.012 118.053 172.305C117.546 172.585 117.133 173.005 116.813 173.565C116.506 174.112 116.353 174.765 116.353 175.525C116.353 176.285 116.506 176.952 116.813 177.525C117.133 178.098 117.546 178.538 118.053 178.845C118.573 179.138 119.12 179.285 119.693 179.285C120.28 179.285 120.826 179.138 121.333 178.845C121.84 178.552 122.246 178.125 122.553 177.565C122.873 176.992 123.033 176.325 123.033 175.565ZM140.963 173.945C141.71 174.078 142.343 174.472 142.863 175.125C143.383 175.778 143.643 176.518 143.643 177.345C143.643 178.052 143.456 178.692 143.083 179.265C142.723 179.825 142.196 180.272 141.503 180.605C140.81 180.925 140.003 181.085 139.083 181.085H133.523V167.185H138.823C139.77 167.185 140.583 167.345 141.263 167.665C141.943 167.985 142.456 168.418 142.803 168.965C143.15 169.498 143.323 170.098 143.323 170.765C143.323 171.565 143.11 172.232 142.683 172.765C142.256 173.298 141.683 173.692 140.963 173.945ZM135.803 173.025H138.623C139.37 173.025 139.95 172.858 140.363 172.525C140.79 172.178 141.003 171.685 141.003 171.045C141.003 170.418 140.79 169.932 140.363 169.585C139.95 169.225 139.37 169.045 138.623 169.045H135.803V173.025ZM138.883 179.225C139.656 179.225 140.263 179.038 140.703 178.665C141.143 178.292 141.363 177.772 141.363 177.105C141.363 176.425 141.13 175.885 140.663 175.485C140.196 175.085 139.576 174.885 138.803 174.885H135.803V179.225H138.883ZM156.101 170.065V181.085H153.821V179.785C153.461 180.238 152.987 180.598 152.401 180.865C151.827 181.118 151.214 181.245 150.561 181.245C149.694 181.245 148.914 181.065 148.221 180.705C147.541 180.345 147.001 179.812 146.601 179.105C146.214 178.398 146.021 177.545 146.021 176.545V170.065H148.281V176.205C148.281 177.192 148.527 177.952 149.021 178.485C149.514 179.005 150.187 179.265 151.041 179.265C151.894 179.265 152.567 179.005 153.061 178.485C153.567 177.952 153.821 177.192 153.821 176.205V170.065H156.101ZM163.729 171.925H161.689V181.085H159.389V171.925H158.089V170.065H159.389V169.285C159.389 168.018 159.722 167.098 160.389 166.525C161.069 165.938 162.129 165.645 163.569 165.645V167.545C162.876 167.545 162.389 167.678 162.109 167.945C161.829 168.198 161.689 168.645 161.689 169.285V170.065H163.729V171.925ZM170.37 171.925H168.33V181.085H166.03V171.925H164.73V170.065H166.03V169.285C166.03 168.018 166.363 167.098 167.03 166.525C167.71 165.938 168.77 165.645 170.21 165.645V167.545C169.516 167.545 169.03 167.678 168.75 167.945C168.47 168.198 168.33 168.645 168.33 169.285V170.065H170.37V171.925Z" fill="#152C5B"/>
<path d="M166.856 59.868H67.3278C64.9987 59.868 62.765 60.7127 61.1181 62.2164C59.4712 63.7201 58.5459 65.7595 58.5459 67.886V121.34C58.5459 123.466 59.4712 125.506 61.1181 127.009C62.765 128.513 64.9987 129.358 67.3278 129.358H111.237V134.703H79.037C78.2606 134.703 77.5161 134.985 76.9671 135.486C76.4181 135.987 76.1097 136.667 76.1097 137.376V142.721C76.1097 143.43 76.4181 144.11 76.9671 144.611C77.5161 145.112 78.2606 145.394 79.037 145.394H155.147C155.923 145.394 156.668 145.112 157.217 144.611C157.766 144.11 158.074 143.43 158.074 142.721V137.376C158.074 136.667 157.766 135.987 157.217 135.486C156.668 134.985 155.923 134.703 155.147 134.703H122.946V129.358H166.856C169.185 129.358 171.419 128.513 173.066 127.009C174.713 125.506 175.638 123.466 175.638 121.34V67.886C175.638 65.7595 174.713 63.7201 173.066 62.2164C171.419 60.7127 169.185 59.868 166.856 59.868ZM163.929 118.667H70.2551V70.5587H163.929V118.667Z" fill="#152C5B"/>
</svg>
