<svg width="236" height="214" viewBox="0 0 236 214" fill="none" xmlns="http://www.w3.org/2000/svg">
<rect x="0.985107" width="234.184" height="213.815" fill="#D9D9D9"/>
<path d="M172.176 61.2271L135.087 75.4375C134.334 75.7443 133.676 76.3547 133.209 77.1799C132.742 78.0051 132.49 79.002 132.489 80.0259V119.34C131.275 118.957 130.03 118.759 128.78 118.75C122.637 118.75 117.652 123.06 117.652 128.375C117.652 133.69 122.637 138 128.78 138C134.923 138 139.908 133.69 139.908 128.375V93.2317L169.582 81.9524V109.716C168.367 109.332 167.122 109.134 165.872 109.125C159.729 109.125 154.745 113.435 154.745 118.75C154.745 124.065 159.729 128.375 165.872 128.375C172.016 128.375 177 124.066 177 118.75V65.8125C177 65.057 176.862 64.3123 176.598 63.6386C176.335 62.9649 175.953 62.3812 175.483 61.9347C175.013 61.4883 174.469 61.1915 173.894 61.0686C173.32 60.9457 172.731 60.9999 172.176 61.2271Z" fill="#FF498B"/>
<path d="M151.204 43.3153L89.1635 63.0451C87.9042 63.4712 86.8038 64.3186 86.0224 65.4643C85.2409 66.61 84.8192 67.9942 84.8184 69.4157V123.999C82.7867 123.468 80.7045 123.193 78.6138 123.181C68.3374 123.181 60 129.165 60 136.544C60 143.923 68.3374 149.907 78.6138 149.907C88.8902 149.907 97.2276 143.923 97.2276 136.544V87.7508L146.864 72.0905V110.638C144.833 110.105 142.751 109.829 140.66 109.817C130.383 109.817 122.046 115.801 122.046 123.181C122.046 130.56 130.383 136.544 140.66 136.544C150.936 136.544 159.274 130.562 159.274 123.181V49.6817C159.273 48.6328 159.042 47.5988 158.602 46.6635C158.161 45.7281 157.521 44.9177 156.736 44.2978C155.95 43.6779 155.04 43.266 154.079 43.0953C153.118 42.9246 152.133 43 151.204 43.3153Z" fill="#152C5B"/>
<path d="M76.3258 167.185V181.085H74.0458V171.565L69.8058 181.085H68.2258L63.9658 171.565V181.085H61.6858V167.185H64.1458L69.0258 178.085L73.8858 167.185H76.3258ZM89.3025 170.065V181.085H87.0225V179.785C86.6625 180.238 86.1891 180.598 85.6025 180.865C85.0291 181.118 84.4158 181.245 83.7625 181.245C82.8958 181.245 82.1158 181.065 81.4225 180.705C80.7425 180.345 80.2025 179.812 79.8025 179.105C79.4158 178.398 79.2225 177.545 79.2225 176.545V170.065H81.4825V176.205C81.4825 177.192 81.7291 177.952 82.2225 178.485C82.7158 179.005 83.3891 179.265 84.2425 179.265C85.0958 179.265 85.7691 179.005 86.2625 178.485C86.7691 177.952 87.0225 177.192 87.0225 176.205V170.065H89.3025ZM96.3108 181.265C95.4441 181.265 94.6641 181.112 93.9708 180.805C93.2908 180.485 92.7508 180.058 92.3508 179.525C91.9508 178.978 91.7374 178.372 91.7108 177.705H94.0708C94.1108 178.172 94.3308 178.565 94.7308 178.885C95.1441 179.192 95.6574 179.345 96.2708 179.345C96.9108 179.345 97.4041 179.225 97.7508 178.985C98.1108 178.732 98.2908 178.412 98.2908 178.025C98.2908 177.612 98.0908 177.305 97.6908 177.105C97.3041 176.905 96.6841 176.685 95.8308 176.445C95.0041 176.218 94.3308 175.998 93.8108 175.785C93.2908 175.572 92.8374 175.245 92.4508 174.805C92.0774 174.365 91.8908 173.785 91.8908 173.065C91.8908 172.478 92.0641 171.945 92.4108 171.465C92.7574 170.972 93.2508 170.585 93.8908 170.305C94.5441 170.025 95.2908 169.885 96.1308 169.885C97.3841 169.885 98.3908 170.205 99.1508 170.845C99.9241 171.472 100.337 172.332 100.391 173.425H98.1108C98.0708 172.932 97.8708 172.538 97.5108 172.245C97.1508 171.952 96.6641 171.805 96.0508 171.805C95.4508 171.805 94.9908 171.918 94.6708 172.145C94.3508 172.372 94.1908 172.672 94.1908 173.045C94.1908 173.338 94.2974 173.585 94.5108 173.785C94.7241 173.985 94.9841 174.145 95.2908 174.265C95.5974 174.372 96.0508 174.512 96.6508 174.685C97.4508 174.898 98.1041 175.118 98.6108 175.345C99.1308 175.558 99.5774 175.878 99.9508 176.305C100.324 176.732 100.517 177.298 100.531 178.005C100.531 178.632 100.357 179.192 100.011 179.685C99.6641 180.178 99.1708 180.565 98.5308 180.845C97.9041 181.125 97.1641 181.265 96.3108 181.265ZM104.154 168.605C103.741 168.605 103.394 168.465 103.114 168.185C102.834 167.905 102.694 167.558 102.694 167.145C102.694 166.732 102.834 166.385 103.114 166.105C103.394 165.825 103.741 165.685 104.154 165.685C104.554 165.685 104.894 165.825 105.174 166.105C105.454 166.385 105.594 166.732 105.594 167.145C105.594 167.558 105.454 167.905 105.174 168.185C104.894 168.465 104.554 168.605 104.154 168.605ZM105.274 170.065V181.085H102.994V170.065H105.274ZM107.508 175.565C107.508 174.432 107.734 173.438 108.188 172.585C108.654 171.718 109.294 171.052 110.108 170.585C110.921 170.118 111.854 169.885 112.908 169.885C114.241 169.885 115.341 170.205 116.208 170.845C117.088 171.472 117.681 172.372 117.988 173.545H115.528C115.328 172.998 115.008 172.572 114.568 172.265C114.128 171.958 113.574 171.805 112.908 171.805C111.974 171.805 111.228 172.138 110.668 172.805C110.121 173.458 109.848 174.378 109.848 175.565C109.848 176.752 110.121 177.678 110.668 178.345C111.228 179.012 111.974 179.345 112.908 179.345C114.228 179.345 115.101 178.765 115.528 177.605H117.988C117.668 178.725 117.068 179.618 116.188 180.285C115.308 180.938 114.214 181.265 112.908 181.265C111.854 181.265 110.921 181.032 110.108 180.565C109.294 180.085 108.654 179.418 108.188 178.565C107.734 177.698 107.508 176.698 107.508 175.565ZM127.735 179.245H132.435V181.085H125.455V167.185H127.735V179.245ZM139.122 181.265C138.082 181.265 137.142 181.032 136.302 180.565C135.462 180.085 134.802 179.418 134.322 178.565C133.842 177.698 133.602 176.698 133.602 175.565C133.602 174.445 133.849 173.452 134.342 172.585C134.835 171.718 135.509 171.052 136.362 170.585C137.215 170.118 138.169 169.885 139.222 169.885C140.275 169.885 141.229 170.118 142.082 170.585C142.935 171.052 143.609 171.718 144.102 172.585C144.595 173.452 144.842 174.445 144.842 175.565C144.842 176.685 144.589 177.678 144.082 178.545C143.575 179.412 142.882 180.085 142.002 180.565C141.135 181.032 140.175 181.265 139.122 181.265ZM139.122 179.285C139.709 179.285 140.255 179.145 140.762 178.865C141.282 178.585 141.702 178.165 142.022 177.605C142.342 177.045 142.502 176.365 142.502 175.565C142.502 174.765 142.349 174.092 142.042 173.545C141.735 172.985 141.329 172.565 140.822 172.285C140.315 172.005 139.769 171.865 139.182 171.865C138.595 171.865 138.049 172.005 137.542 172.285C137.049 172.565 136.655 172.985 136.362 173.545C136.069 174.092 135.922 174.765 135.922 175.565C135.922 176.752 136.222 177.672 136.822 178.325C137.435 178.965 138.202 179.285 139.122 179.285ZM151.356 179.045L154.476 170.065H156.896L152.696 181.085H149.976L145.796 170.065H148.236L151.356 179.045ZM168.719 175.305C168.719 175.718 168.693 176.092 168.639 176.425H160.219C160.286 177.305 160.613 178.012 161.199 178.545C161.786 179.078 162.506 179.345 163.359 179.345C164.586 179.345 165.453 178.832 165.959 177.805H168.419C168.086 178.818 167.479 179.652 166.599 180.305C165.733 180.945 164.653 181.265 163.359 181.265C162.306 181.265 161.359 181.032 160.519 180.565C159.693 180.085 159.039 179.418 158.559 178.565C158.093 177.698 157.859 176.698 157.859 175.565C157.859 174.432 158.086 173.438 158.539 172.585C159.006 171.718 159.653 171.052 160.479 170.585C161.319 170.118 162.279 169.885 163.359 169.885C164.399 169.885 165.326 170.112 166.139 170.565C166.953 171.018 167.586 171.658 168.039 172.485C168.493 173.298 168.719 174.238 168.719 175.305ZM166.339 174.585C166.326 173.745 166.026 173.072 165.439 172.565C164.853 172.058 164.126 171.805 163.259 171.805C162.473 171.805 161.799 172.058 161.239 172.565C160.679 173.058 160.346 173.732 160.239 174.585H166.339ZM173.243 171.665C173.576 171.105 174.016 170.672 174.563 170.365C175.123 170.045 175.783 169.885 176.543 169.885V172.245H175.963C175.07 172.245 174.39 172.472 173.923 172.925C173.47 173.378 173.243 174.165 173.243 175.285V181.085H170.963V170.065H173.243V171.665Z" fill="#152C5B"/>
</svg>
