<svg width="235" height="215" viewBox="0 0 235 215" fill="none" xmlns="http://www.w3.org/2000/svg">
<rect y="0.345703" width="234.184" height="213.815" fill="#D9D9D9"/>
<path d="M72.1209 181.43H69.8409L62.9809 171.05V181.43H60.7009V167.51H62.9809L69.8409 177.87V167.51H72.1209V181.43ZM79.895 181.61C78.855 181.61 77.915 181.377 77.075 180.91C76.235 180.43 75.575 179.764 75.095 178.91C74.615 178.044 74.375 177.044 74.375 175.91C74.375 174.79 74.6216 173.797 75.115 172.93C75.6083 172.064 76.2816 171.397 77.135 170.93C77.9883 170.464 78.9416 170.23 79.995 170.23C81.0483 170.23 82.0016 170.464 82.855 170.93C83.7083 171.397 84.3816 172.064 84.875 172.93C85.3683 173.797 85.615 174.79 85.615 175.91C85.615 177.03 85.3616 178.024 84.855 178.89C84.3483 179.757 83.655 180.43 82.775 180.91C81.9083 181.377 80.9483 181.61 79.895 181.61ZM79.895 179.63C80.4816 179.63 81.0283 179.49 81.535 179.21C82.055 178.93 82.475 178.51 82.795 177.95C83.115 177.39 83.275 176.71 83.275 175.91C83.275 175.11 83.1216 174.437 82.815 173.89C82.5083 173.33 82.1016 172.91 81.595 172.63C81.0883 172.35 80.5416 172.21 79.955 172.21C79.3683 172.21 78.8216 172.35 78.315 172.63C77.8216 172.91 77.4283 173.33 77.135 173.89C76.8416 174.437 76.695 175.11 76.695 175.91C76.695 177.097 76.995 178.017 77.595 178.67C78.2083 179.31 78.975 179.63 79.895 179.63ZM93.4289 170.23C94.2955 170.23 95.0689 170.41 95.7489 170.77C96.4422 171.13 96.9822 171.664 97.3689 172.37C97.7555 173.077 97.9489 173.93 97.9489 174.93V181.43H95.6889V175.27C95.6889 174.284 95.4422 173.53 94.9489 173.01C94.4555 172.477 93.7822 172.21 92.9289 172.21C92.0755 172.21 91.3955 172.477 90.8889 173.01C90.3955 173.53 90.1489 174.284 90.1489 175.27V181.43H87.8689V170.41H90.1489V171.67C90.5222 171.217 90.9955 170.864 91.5689 170.61C92.1555 170.357 92.7755 170.23 93.4289 170.23ZM110.592 167.53C112.072 167.53 113.366 167.817 114.472 168.39C115.592 168.95 116.452 169.764 117.052 170.83C117.666 171.884 117.972 173.117 117.972 174.53C117.972 175.944 117.666 177.17 117.052 178.21C116.452 179.25 115.592 180.05 114.472 180.61C113.366 181.157 112.072 181.43 110.592 181.43H106.052V167.53H110.592ZM110.592 179.57C112.219 179.57 113.466 179.13 114.332 178.25C115.199 177.37 115.632 176.13 115.632 174.53C115.632 172.917 115.199 171.657 114.332 170.75C113.466 169.844 112.219 169.39 110.592 169.39H108.332V179.57H110.592ZM122.512 172.01C122.845 171.45 123.285 171.017 123.832 170.71C124.392 170.39 125.052 170.23 125.812 170.23V172.59H125.232C124.339 172.59 123.659 172.817 123.192 173.27C122.739 173.724 122.512 174.51 122.512 175.63V181.43H120.232V170.41H122.512V172.01ZM129.068 168.95C128.655 168.95 128.308 168.81 128.028 168.53C127.748 168.25 127.608 167.904 127.608 167.49C127.608 167.077 127.748 166.73 128.028 166.45C128.308 166.17 128.655 166.03 129.068 166.03C129.468 166.03 129.808 166.17 130.088 166.45C130.368 166.73 130.508 167.077 130.508 167.49C130.508 167.904 130.368 168.25 130.088 168.53C129.808 168.81 129.468 168.95 129.068 168.95ZM130.188 170.41V181.43H127.908V170.41H130.188ZM138.741 170.23C139.608 170.23 140.381 170.41 141.061 170.77C141.755 171.13 142.295 171.664 142.681 172.37C143.068 173.077 143.261 173.93 143.261 174.93V181.43H141.001V175.27C141.001 174.284 140.755 173.53 140.261 173.01C139.768 172.477 139.095 172.21 138.241 172.21C137.388 172.21 136.708 172.477 136.201 173.01C135.708 173.53 135.461 174.284 135.461 175.27V181.43H133.181V170.41H135.461V171.67C135.835 171.217 136.308 170.864 136.881 170.61C137.468 170.357 138.088 170.23 138.741 170.23ZM150.53 175.93L155.61 181.43H152.53L148.45 176.69V181.43H146.17V166.63H148.45V175.23L152.45 170.41H155.61L150.53 175.93ZM167.344 175.65C167.344 176.064 167.317 176.437 167.264 176.77H158.844C158.911 177.65 159.237 178.357 159.824 178.89C160.411 179.424 161.131 179.69 161.984 179.69C163.211 179.69 164.077 179.177 164.584 178.15H167.044C166.711 179.164 166.104 179.997 165.224 180.65C164.357 181.29 163.277 181.61 161.984 181.61C160.931 181.61 159.984 181.377 159.144 180.91C158.317 180.43 157.664 179.764 157.184 178.91C156.717 178.044 156.484 177.044 156.484 175.91C156.484 174.777 156.711 173.784 157.164 172.93C157.631 172.064 158.277 171.397 159.104 170.93C159.944 170.464 160.904 170.23 161.984 170.23C163.024 170.23 163.951 170.457 164.764 170.91C165.577 171.364 166.211 172.004 166.664 172.83C167.117 173.644 167.344 174.584 167.344 175.65ZM164.964 174.93C164.951 174.09 164.651 173.417 164.064 172.91C163.477 172.404 162.751 172.15 161.884 172.15C161.097 172.15 160.424 172.404 159.864 172.91C159.304 173.404 158.971 174.077 158.864 174.93H164.964ZM171.868 172.01C172.201 171.45 172.641 171.017 173.188 170.71C173.748 170.39 174.408 170.23 175.168 170.23V172.59H174.588C173.694 172.59 173.014 172.817 172.548 173.27C172.094 173.724 171.868 174.51 171.868 175.63V181.43H169.588V170.41H171.868V172.01Z" fill="#152C5B"/>
<path d="M144.096 141.063H134.948V116.593C150.607 113.275 161.946 99.9074 160.425 84.4037L156.777 47.2158C156.608 45.4953 155.051 44.1777 153.185 44.1777H102.076C100.212 44.1777 98.6523 45.4953 98.4853 47.2158L94.8354 84.4058C93.3145 99.9095 104.653 113.277 120.312 116.595V141.063H111.164C106.112 141.063 102.016 144.802 102.016 149.415C102.016 150.338 102.835 151.085 103.846 151.085H151.415C152.425 151.085 153.244 150.338 153.244 149.415C153.244 144.802 149.148 141.063 144.096 141.063Z" fill="#152C5B"/>
<path d="M170.685 41.3593C171.934 42.4478 172.065 44.3428 170.976 45.5919L81.0878 148.75C79.9993 149.999 78.1043 150.129 76.8551 149.041L75.2618 147.652C74.0126 146.564 73.8824 144.669 74.9708 143.42L164.859 40.2618C165.948 39.0127 167.843 38.8824 169.092 39.9709L170.685 41.3593Z" fill="#FF498B"/>
</svg>
