<svg width="235" height="214" viewBox="0 0 235 214" fill="none" xmlns="http://www.w3.org/2000/svg">
<rect width="234.184" height="213.815" fill="#D9D9D9"/>
<path d="M63.5928 171.325C63.5928 172.031 63.4261 172.698 63.0928 173.325C62.7594 173.951 62.2261 174.465 61.4928 174.865C60.7594 175.251 59.8194 175.445 58.6728 175.445H56.1528V181.085H53.8728V167.185H58.6728C59.7394 167.185 60.6394 167.371 61.3728 167.745C62.1194 168.105 62.6728 168.598 63.0328 169.225C63.4061 169.851 63.5928 170.551 63.5928 171.325ZM58.6728 173.585C59.5394 173.585 60.1861 173.391 60.6128 173.005C61.0394 172.605 61.2528 172.045 61.2528 171.325C61.2528 169.805 60.3928 169.045 58.6728 169.045H56.1528V173.585H58.6728ZM65.0073 175.525C65.0073 174.418 65.234 173.438 65.6873 172.585C66.154 171.731 66.7806 171.071 67.5673 170.605C68.3673 170.125 69.2473 169.885 70.2073 169.885C71.074 169.885 71.8273 170.058 72.4673 170.405C73.1206 170.738 73.6406 171.158 74.0273 171.665V170.065H76.3273V181.085H74.0273V179.445C73.6406 179.965 73.114 180.398 72.4473 180.745C71.7806 181.091 71.0206 181.265 70.1673 181.265C69.2206 181.265 68.354 181.025 67.5673 180.545C66.7806 180.051 66.154 179.371 65.6873 178.505C65.234 177.625 65.0073 176.631 65.0073 175.525ZM74.0273 175.565C74.0273 174.805 73.8673 174.145 73.5473 173.585C73.2406 173.025 72.834 172.598 72.3273 172.305C71.8206 172.011 71.274 171.865 70.6873 171.865C70.1006 171.865 69.554 172.011 69.0473 172.305C68.5406 172.585 68.1273 173.005 67.8073 173.565C67.5006 174.111 67.3473 174.765 67.3473 175.525C67.3473 176.285 67.5006 176.951 67.8073 177.525C68.1273 178.098 68.5406 178.538 69.0473 178.845C69.5673 179.138 70.114 179.285 70.6873 179.285C71.274 179.285 71.8206 179.138 72.3273 178.845C72.834 178.551 73.2406 178.125 73.5473 177.565C73.8673 176.991 74.0273 176.325 74.0273 175.565ZM81.602 171.665C81.9353 171.105 82.3753 170.671 82.922 170.365C83.482 170.045 84.142 169.885 84.902 169.885V172.245H84.322C83.4287 172.245 82.7487 172.471 82.282 172.925C81.8287 173.378 81.602 174.165 81.602 175.285V181.085H79.322V170.065H81.602V171.665ZM89.6578 171.925V178.025C89.6578 178.438 89.7511 178.738 89.9378 178.925C90.1378 179.098 90.4711 179.185 90.9378 179.185H92.3378V181.085H90.5378C89.5111 181.085 88.7244 180.845 88.1778 180.365C87.6311 179.885 87.3578 179.105 87.3578 178.025V171.925H86.0578V170.065H87.3578V167.325H89.6578V170.065H92.3378V171.925H89.6578ZM104.359 170.065L97.5992 186.265H95.2392L97.4792 180.905L93.1392 170.065H95.6792L98.7792 178.465L101.999 170.065H104.359ZM119.655 178.245H113.835L112.835 181.085H110.455L115.435 167.165H118.075L123.055 181.085H120.655L119.655 178.245ZM119.015 176.385L116.755 169.925L114.475 176.385H119.015ZM130.78 169.885C131.647 169.885 132.42 170.065 133.1 170.425C133.794 170.785 134.334 171.318 134.72 172.025C135.107 172.731 135.3 173.585 135.3 174.585V181.085H133.04V174.925C133.04 173.938 132.794 173.185 132.3 172.665C131.807 172.131 131.134 171.865 130.28 171.865C129.427 171.865 128.747 172.131 128.24 172.665C127.747 173.185 127.5 173.938 127.5 174.925V181.085H125.22V170.065H127.5V171.325C127.874 170.871 128.347 170.518 128.92 170.265C129.507 170.011 130.127 169.885 130.78 169.885ZM139.369 168.605C138.955 168.605 138.609 168.465 138.329 168.185C138.049 167.905 137.909 167.558 137.909 167.145C137.909 166.731 138.049 166.385 138.329 166.105C138.609 165.825 138.955 165.685 139.369 165.685C139.769 165.685 140.109 165.825 140.389 166.105C140.669 166.385 140.809 166.731 140.809 167.145C140.809 167.558 140.669 167.905 140.389 168.185C140.109 168.465 139.769 168.605 139.369 168.605ZM140.489 170.065V181.085H138.209V170.065H140.489ZM156.822 169.885C157.689 169.885 158.462 170.065 159.142 170.425C159.835 170.785 160.375 171.318 160.762 172.025C161.162 172.731 161.362 173.585 161.362 174.585V181.085H159.102V174.925C159.102 173.938 158.855 173.185 158.362 172.665C157.869 172.131 157.195 171.865 156.342 171.865C155.489 171.865 154.809 172.131 154.302 172.665C153.809 173.185 153.562 173.938 153.562 174.925V181.085H151.302V174.925C151.302 173.938 151.055 173.185 150.562 172.665C150.069 172.131 149.395 171.865 148.542 171.865C147.689 171.865 147.009 172.131 146.502 172.665C146.009 173.185 145.762 173.938 145.762 174.925V181.085H143.482V170.065H145.762V171.325C146.135 170.871 146.609 170.518 147.182 170.265C147.755 170.011 148.369 169.885 149.022 169.885C149.902 169.885 150.689 170.071 151.382 170.445C152.075 170.818 152.609 171.358 152.982 172.065C153.315 171.398 153.835 170.871 154.542 170.485C155.249 170.085 156.009 169.885 156.822 169.885ZM163.503 175.525C163.503 174.418 163.73 173.438 164.183 172.585C164.65 171.731 165.277 171.071 166.063 170.605C166.863 170.125 167.743 169.885 168.703 169.885C169.57 169.885 170.323 170.058 170.963 170.405C171.617 170.738 172.137 171.158 172.523 171.665V170.065H174.823V181.085H172.523V179.445C172.137 179.965 171.61 180.398 170.943 180.745C170.277 181.091 169.517 181.265 168.663 181.265C167.717 181.265 166.85 181.025 166.063 180.545C165.277 180.051 164.65 179.371 164.183 178.505C163.73 177.625 163.503 176.631 163.503 175.525ZM172.523 175.565C172.523 174.805 172.363 174.145 172.043 173.585C171.737 173.025 171.33 172.598 170.823 172.305C170.317 172.011 169.77 171.865 169.183 171.865C168.597 171.865 168.05 172.011 167.543 172.305C167.037 172.585 166.623 173.005 166.303 173.565C165.997 174.111 165.843 174.765 165.843 175.525C165.843 176.285 165.997 176.951 166.303 177.525C166.623 178.098 167.037 178.538 167.543 178.845C168.063 179.138 168.61 179.285 169.183 179.285C169.77 179.285 170.317 179.138 170.823 178.845C171.33 178.551 171.737 178.125 172.043 177.565C172.363 176.991 172.523 176.325 172.523 175.565ZM180.098 166.285V181.085H177.818V166.285H180.098Z" fill="#152C5B"/>
<path d="M107.029 47.0293C103.873 46.7324 100.936 48.6738 100.129 51.7402L97.2363 62.7305C133.881 63.8027 158.67 88.2402 160.221 124.645L171.342 121.562C174.412 120.711 176.32 117.719 175.955 114.551C171.877 79.2422 142.559 50.3828 107.029 47.0293ZM95.6094 68.9043L76.1074 143.023C75.9657 143.562 75.9684 144.128 76.1154 144.665C76.2623 145.202 76.5483 145.691 76.9445 146.082C77.3407 146.474 77.833 146.753 78.3719 146.894C78.9108 147.034 79.4771 147.029 80.0137 146.881L154.037 126.353C153.203 92.1953 129.998 69.2949 95.6094 68.9121V68.9043ZM101 128.25C99.7639 128.25 98.5555 127.883 97.5277 127.197C96.4999 126.51 95.6988 125.534 95.2258 124.392C94.7527 123.25 94.6289 121.993 94.8701 120.781C95.1113 119.568 95.7065 118.455 96.5806 117.581C97.4547 116.706 98.5683 116.111 99.7807 115.87C100.993 115.629 102.25 115.753 103.392 116.226C104.534 116.699 105.51 117.5 106.197 118.528C106.883 119.555 107.25 120.764 107.25 122C107.25 123.658 106.592 125.247 105.419 126.419C104.247 127.591 102.658 128.25 101 128.25ZM110.375 98.5625C109.139 98.5625 107.931 98.1959 106.903 97.5092C105.875 96.8224 105.074 95.8463 104.601 94.7043C104.128 93.5622 104.004 92.3056 104.245 91.0932C104.486 89.8808 105.082 88.7671 105.956 87.8931C106.83 87.019 107.943 86.4237 109.156 86.1826C110.368 85.9414 111.625 86.0652 112.767 86.5382C113.909 87.0113 114.885 87.8124 115.572 88.8402C116.258 89.868 116.625 91.0764 116.625 92.3125C116.625 93.9701 115.967 95.5598 114.794 96.7319C113.622 97.904 112.033 98.5625 110.375 98.5625ZM130.688 118.875C129.451 118.875 128.243 118.508 127.215 117.822C126.187 117.135 125.386 116.159 124.913 115.017C124.44 113.875 124.316 112.618 124.558 111.406C124.799 110.193 125.394 109.08 126.268 108.206C127.142 107.331 128.256 106.736 129.468 106.495C130.681 106.254 131.937 106.378 133.079 106.851C134.221 107.324 135.197 108.125 135.884 109.153C136.571 110.18 136.938 111.389 136.938 112.625C136.938 114.283 136.279 115.872 135.107 117.044C133.935 118.216 132.345 118.875 130.688 118.875Z" fill="#152C5B"/>
<circle cx="110.5" cy="92.5" r="6.5" fill="#FF498B"/>
<circle cx="130.5" cy="112.5" r="6.5" fill="#FF498B"/>
<circle cx="101" cy="122" r="7" fill="#FF498B"/>
</svg>
