<svg width="236" height="215" viewBox="0 0 236 215" fill="none" xmlns="http://www.w3.org/2000/svg">
<rect x="0.985107" y="0.345703" width="234.184" height="213.815" fill="#D9D9D9"/>
<path d="M71.6206 171.671C71.6206 172.377 71.4539 173.044 71.1206 173.671C70.7873 174.297 70.2539 174.811 69.5206 175.211C68.7873 175.597 67.8473 175.791 66.7006 175.791H64.1806V181.431H61.9006V167.531H66.7006C67.7673 167.531 68.6673 167.717 69.4006 168.091C70.1473 168.451 70.7006 168.944 71.0606 169.571C71.4339 170.197 71.6206 170.897 71.6206 171.671ZM66.7006 173.931C67.5673 173.931 68.2139 173.737 68.6406 173.351C69.0673 172.951 69.2806 172.391 69.2806 171.671C69.2806 170.151 68.4206 169.391 66.7006 169.391H64.1806V173.931H66.7006ZM83.8951 175.651C83.8951 176.064 83.8685 176.437 83.8151 176.771H75.3951C75.4618 177.651 75.7885 178.357 76.3751 178.891C76.9618 179.424 77.6818 179.691 78.5351 179.691C79.7618 179.691 80.6285 179.177 81.1351 178.151H83.5951C83.2618 179.164 82.6551 179.997 81.7751 180.651C80.9085 181.291 79.8285 181.611 78.5351 181.611C77.4818 181.611 76.5351 181.377 75.6951 180.911C74.8685 180.431 74.2151 179.764 73.7351 178.911C73.2685 178.044 73.0351 177.044 73.0351 175.911C73.0351 174.777 73.2618 173.784 73.7151 172.931C74.1818 172.064 74.8285 171.397 75.6551 170.931C76.4951 170.464 77.4551 170.231 78.5351 170.231C79.5751 170.231 80.5018 170.457 81.3151 170.911C82.1285 171.364 82.7618 172.004 83.2151 172.831C83.6685 173.644 83.8951 174.584 83.8951 175.651ZM81.5151 174.931C81.5018 174.091 81.2018 173.417 80.6151 172.911C80.0285 172.404 79.3018 172.151 78.4351 172.151C77.6485 172.151 76.9751 172.404 76.4151 172.911C75.8551 173.404 75.5218 174.077 75.4151 174.931H81.5151ZM88.7989 172.271V178.371C88.7989 178.784 88.8922 179.084 89.0789 179.271C89.2789 179.444 89.6122 179.531 90.0789 179.531H91.4789V181.431H89.6789C88.6522 181.431 87.8656 181.191 87.3189 180.711C86.7722 180.231 86.4989 179.451 86.4989 178.371V172.271H85.1989V170.411H86.4989V167.671H88.7989V170.411H91.4789V172.271H88.7989ZM107.156 178.591H101.336L100.336 181.431H97.9556L102.936 167.511H105.576L110.556 181.431H108.156L107.156 178.591ZM106.516 176.731L104.256 170.271L101.976 176.731H106.516ZM115.001 166.631V181.431H112.721V166.631H115.001ZM120.274 166.631V181.431H117.994V166.631H120.274ZM128.048 181.611C127.008 181.611 126.068 181.377 125.228 180.911C124.388 180.431 123.728 179.764 123.248 178.911C122.768 178.044 122.528 177.044 122.528 175.911C122.528 174.791 122.774 173.797 123.268 172.931C123.761 172.064 124.434 171.397 125.288 170.931C126.141 170.464 127.094 170.231 128.148 170.231C129.201 170.231 130.154 170.464 131.008 170.931C131.861 171.397 132.534 172.064 133.028 172.931C133.521 173.797 133.768 174.791 133.768 175.911C133.768 177.031 133.514 178.024 133.008 178.891C132.501 179.757 131.808 180.431 130.928 180.911C130.061 181.377 129.101 181.611 128.048 181.611ZM128.048 179.631C128.634 179.631 129.181 179.491 129.688 179.211C130.208 178.931 130.628 178.511 130.948 177.951C131.268 177.391 131.428 176.711 131.428 175.911C131.428 175.111 131.274 174.437 130.968 173.891C130.661 173.331 130.254 172.911 129.748 172.631C129.241 172.351 128.694 172.211 128.108 172.211C127.521 172.211 126.974 172.351 126.468 172.631C125.974 172.911 125.581 173.331 125.288 173.891C124.994 174.437 124.848 175.111 124.848 175.911C124.848 177.097 125.148 178.017 125.748 178.671C126.361 179.311 127.128 179.631 128.048 179.631ZM150.822 170.411L147.402 181.431H145.002L142.782 173.291L140.562 181.431H138.162L134.722 170.411H137.042L139.342 179.271L141.682 170.411H144.062L146.302 179.231L148.582 170.411H150.822ZM162.626 175.651C162.626 176.064 162.599 176.437 162.546 176.771H154.126C154.192 177.651 154.519 178.357 155.106 178.891C155.692 179.424 156.412 179.691 157.266 179.691C158.492 179.691 159.359 179.177 159.866 178.151H162.326C161.992 179.164 161.386 179.997 160.506 180.651C159.639 181.291 158.559 181.611 157.266 181.611C156.212 181.611 155.266 181.377 154.426 180.911C153.599 180.431 152.946 179.764 152.466 178.911C151.999 178.044 151.766 177.044 151.766 175.911C151.766 174.777 151.992 173.784 152.446 172.931C152.912 172.064 153.559 171.397 154.386 170.931C155.226 170.464 156.186 170.231 157.266 170.231C158.306 170.231 159.232 170.457 160.046 170.911C160.859 171.364 161.492 172.004 161.946 172.831C162.399 173.644 162.626 174.584 162.626 175.651ZM160.246 174.931C160.232 174.091 159.932 173.417 159.346 172.911C158.759 172.404 158.032 172.151 157.166 172.151C156.379 172.151 155.706 172.404 155.146 172.911C154.586 173.404 154.252 174.077 154.146 174.931H160.246ZM164.109 175.871C164.109 174.764 164.336 173.784 164.789 172.931C165.256 172.077 165.883 171.417 166.669 170.951C167.469 170.471 168.356 170.231 169.329 170.231C170.049 170.231 170.756 170.391 171.449 170.711C172.156 171.017 172.716 171.431 173.129 171.951V166.631H175.429V181.431H173.129V179.771C172.756 180.304 172.236 180.744 171.569 181.091C170.916 181.437 170.163 181.611 169.309 181.611C168.349 181.611 167.469 181.371 166.669 180.891C165.883 180.397 165.256 179.717 164.789 178.851C164.336 177.971 164.109 176.977 164.109 175.871ZM173.129 175.911C173.129 175.151 172.969 174.491 172.649 173.931C172.343 173.371 171.936 172.944 171.429 172.651C170.923 172.357 170.376 172.211 169.789 172.211C169.203 172.211 168.656 172.357 168.149 172.651C167.643 172.931 167.229 173.351 166.909 173.911C166.603 174.457 166.449 175.111 166.449 175.871C166.449 176.631 166.603 177.297 166.909 177.871C167.229 178.444 167.643 178.884 168.149 179.191C168.669 179.484 169.216 179.631 169.789 179.631C170.376 179.631 170.923 179.484 171.429 179.191C171.936 178.897 172.343 178.471 172.649 177.911C172.969 177.337 173.129 176.671 173.129 175.911Z" fill="#152C5B"/>
<rect x="142" y="94" width="10" height="14" fill="#FF498B"/>
<rect x="129.164" y="81.0107" width="24.9107" height="12.9599" transform="rotate(17.3044 129.164 81.0107)" fill="#FF498B"/>
<ellipse cx="146.495" cy="70.627" rx="4" ry="3.5" fill="#FF498B"/>
<path d="M122.591 91.5146L153.071 101.454V141.999C153.071 142.786 152.729 143.542 152.119 144.099C151.509 144.655 150.682 144.968 149.819 144.968H136.809C135.946 144.968 135.119 144.655 134.509 144.099C133.899 143.542 133.556 142.786 133.556 141.999V121.211H101.031V141.999C101.031 142.786 100.688 143.542 100.078 144.099C99.468 144.655 98.6407 144.968 97.7781 144.968H84.7679C83.9053 144.968 83.078 144.655 82.468 144.099C81.858 143.542 81.5153 142.786 81.5153 141.999V102.296C73.9613 99.8371 68.5051 93.3076 68.5051 85.5753C68.5051 84.0001 69.1905 82.4895 70.4104 81.3756C71.6304 80.2618 73.285 79.636 75.0102 79.636C76.7355 79.636 78.3901 80.2618 79.61 81.3756C80.83 82.4895 81.5153 84.0001 81.5153 85.5753C81.5186 87.1496 82.205 88.6586 83.4242 89.7718C84.6434 90.885 86.2962 91.5117 88.0204 91.5146H122.591ZM172.587 70.7271V76.6664C172.587 79.8168 171.216 82.8382 168.776 85.0658C166.336 87.2935 163.027 88.545 159.577 88.545H153.071V95.1487L127.051 86.6648V58.8485C127.051 56.2036 130.552 54.8784 132.603 56.7493L138.148 61.8181H149.051C151.268 61.8181 153.879 63.2881 154.869 65.1015L156.324 67.7574H169.334C170.197 67.7574 171.024 68.0703 171.634 68.6272C172.244 69.1841 172.587 69.9395 172.587 70.7271ZM149.819 70.7271C149.819 70.1397 149.628 69.5656 149.271 69.0772C148.913 68.5889 148.405 68.2083 147.811 67.9835C147.217 67.7587 146.563 67.6999 145.932 67.8145C145.301 67.9291 144.721 68.2119 144.266 68.6272C143.812 69.0425 143.502 69.5717 143.376 70.1477C143.251 70.7238 143.315 71.3209 143.561 71.8635C143.808 72.4062 144.224 72.87 144.759 73.1963C145.294 73.5226 145.923 73.6967 146.566 73.6967C147.429 73.6967 148.256 73.3839 148.866 72.8269C149.476 72.27 149.819 71.5147 149.819 70.7271Z" fill="#152C5B"/>
</svg>
