<svg width="235" height="214" viewBox="0 0 235 214" fill="none" xmlns="http://www.w3.org/2000/svg">
<rect width="234.184" height="213.815" fill="#D9D9D9"/>
<rect x="96.0149" y="103" width="75" height="23" fill="#FF498B"/>
<path d="M64.4008 120.806C64.4008 123.757 67.0225 126.151 70.2554 126.151H81.9645C85.1974 126.151 87.8191 123.757 87.8191 120.806V67.3518H64.4008V120.806ZM170.362 88.7333C173.629 85.8284 175.638 82.4959 175.638 78.8928C175.638 70.0629 167.992 63.2259 159.553 58.3633C151.879 53.9417 144.801 48.7132 139.069 42.2904L137.583 40.625L136.098 42.2904C130.366 48.7132 123.289 53.9433 115.614 58.3633C107.174 63.2259 99.5283 70.0629 99.5283 78.8928C99.5283 82.4959 101.537 85.8284 104.805 88.7333H170.362ZM175.638 94.0787H99.5283C96.2955 94.0787 93.6737 96.4724 93.6737 99.4241V120.806C93.6737 123.757 96.2955 126.151 99.5283 126.151H105.383V115.46C105.383 112.509 108.005 110.115 111.238 110.115C114.47 110.115 117.092 112.509 117.092 115.46V126.151H128.801V114.124C128.801 106.106 137.583 102.097 137.583 102.097C137.583 102.097 146.365 106.106 146.365 114.124V126.151H158.074V115.46C158.074 112.509 160.696 110.115 163.929 110.115C167.162 110.115 169.783 112.509 169.783 115.46V126.151H175.638C178.871 126.151 181.493 123.757 181.493 120.806V99.4241C181.493 96.4724 178.871 94.0787 175.638 94.0787ZM76.1099 40.625C76.1099 40.625 64.4008 45.9704 64.4008 56.6611V62.0065H87.8191V56.6611C87.8191 45.9704 76.1099 40.625 76.1099 40.625Z" fill="#152C5B"/>
<path d="M81.0069 181.085L77.8069 175.525H76.0669V181.085H73.7869V167.185H78.5869C79.6536 167.185 80.5536 167.372 81.2869 167.745C82.0336 168.118 82.5869 168.618 82.9469 169.245C83.3203 169.872 83.5069 170.572 83.5069 171.345C83.5069 172.252 83.2403 173.078 82.7069 173.825C82.1869 174.558 81.3803 175.058 80.2869 175.325L83.7269 181.085H81.0069ZM76.0669 173.705H78.5869C79.4403 173.705 80.0803 173.492 80.5069 173.065C80.9469 172.638 81.1669 172.065 81.1669 171.345C81.1669 170.625 80.9536 170.065 80.5269 169.665C80.1003 169.252 79.4536 169.045 78.5869 169.045H76.0669V173.705ZM96.5237 175.305C96.5237 175.718 96.497 176.092 96.4437 176.425H88.0237C88.0903 177.305 88.417 178.012 89.0037 178.545C89.5903 179.078 90.3103 179.345 91.1637 179.345C92.3903 179.345 93.257 178.832 93.7637 177.805H96.2237C95.8903 178.818 95.2837 179.652 94.4037 180.305C93.537 180.945 92.457 181.265 91.1637 181.265C90.1103 181.265 89.1637 181.032 88.3237 180.565C87.497 180.085 86.8437 179.418 86.3637 178.565C85.897 177.698 85.6637 176.698 85.6637 175.565C85.6637 174.432 85.8903 173.438 86.3437 172.585C86.8103 171.718 87.457 171.052 88.2837 170.585C89.1237 170.118 90.0837 169.885 91.1637 169.885C92.2037 169.885 93.1303 170.112 93.9437 170.565C94.757 171.018 95.3903 171.658 95.8437 172.485C96.297 173.298 96.5237 174.238 96.5237 175.305ZM94.1437 174.585C94.1303 173.745 93.8303 173.072 93.2437 172.565C92.657 172.058 91.9303 171.805 91.0637 171.805C90.277 171.805 89.6037 172.058 89.0437 172.565C88.4837 173.058 88.1503 173.732 88.0437 174.585H94.1437ZM101.047 166.285V181.085H98.7674V166.285H101.047ZM105.201 168.605C104.788 168.605 104.441 168.465 104.161 168.185C103.881 167.905 103.741 167.558 103.741 167.145C103.741 166.732 103.881 166.385 104.161 166.105C104.441 165.825 104.788 165.685 105.201 165.685C105.601 165.685 105.941 165.825 106.221 166.105C106.501 166.385 106.641 166.732 106.641 167.145C106.641 167.558 106.501 167.905 106.221 168.185C105.941 168.465 105.601 168.605 105.201 168.605ZM106.321 170.065V181.085H104.041V170.065H106.321ZM113.754 169.885C114.608 169.885 115.361 170.058 116.014 170.405C116.681 170.738 117.201 171.158 117.574 171.665V170.065H119.874V181.265C119.874 182.278 119.661 183.178 119.234 183.965C118.808 184.765 118.188 185.392 117.374 185.845C116.574 186.298 115.614 186.525 114.494 186.525C113.001 186.525 111.761 186.172 110.774 185.465C109.788 184.772 109.228 183.825 109.094 182.625H111.354C111.528 183.198 111.894 183.658 112.454 184.005C113.028 184.365 113.708 184.545 114.494 184.545C115.414 184.545 116.154 184.265 116.714 183.705C117.288 183.145 117.574 182.332 117.574 181.265V179.425C117.188 179.945 116.661 180.385 115.994 180.745C115.341 181.092 114.594 181.265 113.754 181.265C112.794 181.265 111.914 181.025 111.114 180.545C110.328 180.052 109.701 179.372 109.234 178.505C108.781 177.625 108.554 176.632 108.554 175.525C108.554 174.418 108.781 173.438 109.234 172.585C109.701 171.732 110.328 171.072 111.114 170.605C111.914 170.125 112.794 169.885 113.754 169.885ZM117.574 175.565C117.574 174.805 117.414 174.145 117.094 173.585C116.788 173.025 116.381 172.598 115.874 172.305C115.368 172.012 114.821 171.865 114.234 171.865C113.648 171.865 113.101 172.012 112.594 172.305C112.088 172.585 111.674 173.005 111.354 173.565C111.048 174.112 110.894 174.765 110.894 175.525C110.894 176.285 111.048 176.952 111.354 177.525C111.674 178.098 112.088 178.538 112.594 178.845C113.114 179.138 113.661 179.285 114.234 179.285C114.821 179.285 115.368 179.138 115.874 178.845C116.381 178.552 116.788 178.125 117.094 177.565C117.414 176.992 117.574 176.325 117.574 175.565ZM124.029 168.605C123.616 168.605 123.269 168.465 122.989 168.185C122.709 167.905 122.569 167.558 122.569 167.145C122.569 166.732 122.709 166.385 122.989 166.105C123.269 165.825 123.616 165.685 124.029 165.685C124.429 165.685 124.769 165.825 125.049 166.105C125.329 166.385 125.469 166.732 125.469 167.145C125.469 167.558 125.329 167.905 125.049 168.185C124.769 168.465 124.429 168.605 124.029 168.605ZM125.149 170.065V181.085H122.869V170.065H125.149ZM132.922 181.265C131.882 181.265 130.942 181.032 130.102 180.565C129.262 180.085 128.602 179.418 128.122 178.565C127.642 177.698 127.402 176.698 127.402 175.565C127.402 174.445 127.649 173.452 128.142 172.585C128.636 171.718 129.309 171.052 130.162 170.585C131.016 170.118 131.969 169.885 133.022 169.885C134.076 169.885 135.029 170.118 135.882 170.585C136.736 171.052 137.409 171.718 137.902 172.585C138.396 173.452 138.642 174.445 138.642 175.565C138.642 176.685 138.389 177.678 137.882 178.545C137.376 179.412 136.682 180.085 135.802 180.565C134.936 181.032 133.976 181.265 132.922 181.265ZM132.922 179.285C133.509 179.285 134.056 179.145 134.562 178.865C135.082 178.585 135.502 178.165 135.822 177.605C136.142 177.045 136.302 176.365 136.302 175.565C136.302 174.765 136.149 174.092 135.842 173.545C135.536 172.985 135.129 172.565 134.622 172.285C134.116 172.005 133.569 171.865 132.982 171.865C132.396 171.865 131.849 172.005 131.342 172.285C130.849 172.565 130.456 172.985 130.162 173.545C129.869 174.092 129.722 174.765 129.722 175.565C129.722 176.752 130.022 177.672 130.622 178.325C131.236 178.965 132.002 179.285 132.922 179.285ZM150.876 170.065V181.085H148.596V179.785C148.236 180.238 147.763 180.598 147.176 180.865C146.603 181.118 145.99 181.245 145.336 181.245C144.47 181.245 143.69 181.065 142.996 180.705C142.316 180.345 141.776 179.812 141.376 179.105C140.99 178.398 140.796 177.545 140.796 176.545V170.065H143.056V176.205C143.056 177.192 143.303 177.952 143.796 178.485C144.29 179.005 144.963 179.265 145.816 179.265C146.67 179.265 147.343 179.005 147.836 178.485C148.343 177.952 148.596 177.192 148.596 176.205V170.065H150.876ZM157.885 181.265C157.018 181.265 156.238 181.112 155.545 180.805C154.865 180.485 154.325 180.058 153.925 179.525C153.525 178.978 153.311 178.372 153.285 177.705H155.645C155.685 178.172 155.905 178.565 156.305 178.885C156.718 179.192 157.231 179.345 157.845 179.345C158.485 179.345 158.978 179.225 159.325 178.985C159.685 178.732 159.865 178.412 159.865 178.025C159.865 177.612 159.665 177.305 159.265 177.105C158.878 176.905 158.258 176.685 157.405 176.445C156.578 176.218 155.905 175.998 155.385 175.785C154.865 175.572 154.411 175.245 154.025 174.805C153.651 174.365 153.465 173.785 153.465 173.065C153.465 172.478 153.638 171.945 153.985 171.465C154.331 170.972 154.825 170.585 155.465 170.305C156.118 170.025 156.865 169.885 157.705 169.885C158.958 169.885 159.965 170.205 160.725 170.845C161.498 171.472 161.911 172.332 161.965 173.425H159.685C159.645 172.932 159.445 172.538 159.085 172.245C158.725 171.952 158.238 171.805 157.625 171.805C157.025 171.805 156.565 171.918 156.245 172.145C155.925 172.372 155.765 172.672 155.765 173.045C155.765 173.338 155.871 173.585 156.085 173.785C156.298 173.985 156.558 174.145 156.865 174.265C157.171 174.372 157.625 174.512 158.225 174.685C159.025 174.898 159.678 175.118 160.185 175.345C160.705 175.558 161.151 175.878 161.525 176.305C161.898 176.732 162.091 177.298 162.105 178.005C162.105 178.632 161.931 179.192 161.585 179.685C161.238 180.178 160.745 180.565 160.105 180.845C159.478 181.125 158.738 181.265 157.885 181.265Z" fill="#152C5B"/>
</svg>
