<svg width="236" height="214" viewBox="0 0 236 214" fill="none" xmlns="http://www.w3.org/2000/svg">
<rect x="0.994873" width="234.184" height="213.815" fill="#D9D9D9"/>
<path d="M85.3381 181.225C84.4048 181.225 83.5648 181.065 82.8181 180.745C82.0715 180.412 81.4848 179.945 81.0581 179.345C80.6315 178.745 80.4181 178.045 80.4181 177.245H82.8581C82.9115 177.845 83.1448 178.338 83.5581 178.725C83.9848 179.112 84.5781 179.305 85.3381 179.305C86.1248 179.305 86.7381 179.118 87.1781 178.745C87.6181 178.358 87.8381 177.865 87.8381 177.265C87.8381 176.798 87.6981 176.418 87.4181 176.125C87.1515 175.832 86.8115 175.605 86.3981 175.445C85.9981 175.285 85.4381 175.112 84.7181 174.925C83.8115 174.685 83.0715 174.445 82.4981 174.205C81.9381 173.952 81.4581 173.565 81.0581 173.045C80.6581 172.525 80.4581 171.832 80.4581 170.965C80.4581 170.165 80.6581 169.465 81.0581 168.865C81.4581 168.265 82.0181 167.805 82.7381 167.485C83.4581 167.165 84.2915 167.005 85.2381 167.005C86.5848 167.005 87.6848 167.345 88.5381 168.025C89.4048 168.692 89.8848 169.612 89.9781 170.785H87.4581C87.4181 170.278 87.1781 169.845 86.7381 169.485C86.2981 169.125 85.7181 168.945 84.9981 168.945C84.3448 168.945 83.8115 169.112 83.3981 169.445C82.9848 169.778 82.7781 170.258 82.7781 170.885C82.7781 171.312 82.9048 171.665 83.1581 171.945C83.4248 172.212 83.7581 172.425 84.1581 172.585C84.5581 172.745 85.1048 172.918 85.7981 173.105C86.7181 173.358 87.4648 173.612 88.0381 173.865C88.6248 174.118 89.1181 174.512 89.5181 175.045C89.9315 175.565 90.1381 176.265 90.1381 177.145C90.1381 177.852 89.9448 178.518 89.5581 179.145C89.1848 179.772 88.6315 180.278 87.8981 180.665C87.1781 181.038 86.3248 181.225 85.3381 181.225ZM95.4884 171.925V178.025C95.4884 178.438 95.5818 178.738 95.7684 178.925C95.9684 179.098 96.3018 179.185 96.7684 179.185H98.1684V181.085H96.3684C95.3418 181.085 94.5551 180.845 94.0084 180.365C93.4618 179.885 93.1884 179.105 93.1884 178.025V171.925H91.8884V170.065H93.1884V167.325H95.4884V170.065H98.1684V171.925H95.4884ZM110.25 170.065V181.085H107.97V179.785C107.61 180.238 107.137 180.598 106.55 180.865C105.977 181.118 105.363 181.245 104.71 181.245C103.843 181.245 103.063 181.065 102.37 180.705C101.69 180.345 101.15 179.812 100.75 179.105C100.363 178.398 100.17 177.545 100.17 176.545V170.065H102.43V176.205C102.43 177.192 102.677 177.952 103.17 178.485C103.663 179.005 104.337 179.265 105.19 179.265C106.043 179.265 106.717 179.005 107.21 178.485C107.717 177.952 107.97 177.192 107.97 176.205V170.065H110.25ZM112.498 175.525C112.498 174.418 112.725 173.438 113.178 172.585C113.645 171.732 114.271 171.072 115.058 170.605C115.858 170.125 116.745 169.885 117.718 169.885C118.438 169.885 119.145 170.045 119.838 170.365C120.545 170.672 121.105 171.085 121.518 171.605V166.285H123.818V181.085H121.518V179.425C121.145 179.958 120.625 180.398 119.958 180.745C119.305 181.092 118.551 181.265 117.698 181.265C116.738 181.265 115.858 181.025 115.058 180.545C114.271 180.052 113.645 179.372 113.178 178.505C112.725 177.625 112.498 176.632 112.498 175.525ZM121.518 175.565C121.518 174.805 121.358 174.145 121.038 173.585C120.731 173.025 120.325 172.598 119.818 172.305C119.311 172.012 118.765 171.865 118.178 171.865C117.591 171.865 117.045 172.012 116.538 172.305C116.031 172.585 115.618 173.005 115.298 173.565C114.991 174.112 114.838 174.765 114.838 175.525C114.838 176.285 114.991 176.952 115.298 177.525C115.618 178.098 116.031 178.538 116.538 178.845C117.058 179.138 117.605 179.285 118.178 179.285C118.765 179.285 119.311 179.138 119.818 178.845C120.325 178.552 120.731 178.125 121.038 177.565C121.358 176.992 121.518 176.325 121.518 175.565ZM136.913 175.305C136.913 175.718 136.886 176.092 136.833 176.425H128.413C128.479 177.305 128.806 178.012 129.393 178.545C129.979 179.078 130.699 179.345 131.553 179.345C132.779 179.345 133.646 178.832 134.153 177.805H136.613C136.279 178.818 135.673 179.652 134.793 180.305C133.926 180.945 132.846 181.265 131.553 181.265C130.499 181.265 129.553 181.032 128.713 180.565C127.886 180.085 127.233 179.418 126.753 178.565C126.286 177.698 126.053 176.698 126.053 175.565C126.053 174.432 126.279 173.438 126.733 172.585C127.199 171.718 127.846 171.052 128.673 170.585C129.513 170.118 130.473 169.885 131.553 169.885C132.593 169.885 133.519 170.112 134.333 170.565C135.146 171.018 135.779 171.658 136.233 172.485C136.686 173.298 136.913 174.238 136.913 175.305ZM134.533 174.585C134.519 173.745 134.219 173.072 133.633 172.565C133.046 172.058 132.319 171.805 131.453 171.805C130.666 171.805 129.993 172.058 129.433 172.565C128.873 173.058 128.539 173.732 128.433 174.585H134.533ZM144.717 169.885C145.583 169.885 146.357 170.065 147.037 170.425C147.73 170.785 148.27 171.318 148.657 172.025C149.043 172.732 149.237 173.585 149.237 174.585V181.085H146.977V174.925C146.977 173.938 146.73 173.185 146.237 172.665C145.743 172.132 145.07 171.865 144.217 171.865C143.363 171.865 142.683 172.132 142.177 172.665C141.683 173.185 141.437 173.938 141.437 174.925V181.085H139.157V170.065H141.437V171.325C141.81 170.872 142.283 170.518 142.857 170.265C143.443 170.012 144.063 169.885 144.717 169.885ZM154.805 171.925V178.025C154.805 178.438 154.898 178.738 155.085 178.925C155.285 179.098 155.618 179.185 156.085 179.185H157.485V181.085H155.685C154.658 181.085 153.872 180.845 153.325 180.365C152.778 179.885 152.505 179.105 152.505 178.025V171.925H151.205V170.065H152.505V167.325H154.805V170.065H157.485V171.925H154.805Z" fill="#152C5B"/>
<path d="M144.363 109.942L122.546 129.862L100.728 109.942C84.3767 110.59 71.3182 122.805 71.3182 137.88V139.885C71.3182 145.418 76.2352 149.907 82.2956 149.907H162.796C168.857 149.907 173.774 145.418 173.774 139.885V137.88C173.774 122.805 160.715 110.59 144.363 109.942ZM74.4285 59.6625L75.8921 59.9757V72.1698C74.2913 73.0468 73.1478 74.5711 73.1478 76.4086C73.1478 78.1625 74.1998 79.6241 75.6863 80.522L72.1187 93.5304C71.7299 94.9712 72.5989 96.4537 73.8568 96.4537H83.4162C84.674 96.4537 85.5431 94.9712 85.1543 93.5304L81.5867 80.522C83.0732 79.6241 84.1252 78.1625 84.1252 76.4086C84.1252 74.5711 82.9817 73.0468 81.3808 72.1698V61.1868L96.4747 64.5068C94.5079 68.0982 93.273 72.1072 93.273 76.4086C93.273 91.171 106.377 103.135 122.546 103.135C138.715 103.135 151.819 91.171 151.819 76.4086C151.819 72.1072 150.607 68.0982 148.617 64.5068L170.641 59.6625C174.803 58.7438 174.803 54.0039 170.641 53.0852L127.097 43.4802C124.124 42.833 120.991 42.833 118.018 43.4802L74.4285 53.0643C70.2891 53.9831 70.2891 58.7438 74.4285 59.6625Z" fill="#152C5B"/>
<ellipse cx="78" cy="76.5" rx="6" ry="5.5" fill="#FF498B"/>
<ellipse cx="151" cy="131.5" rx="6" ry="5.5" fill="#FF498B"/>
</svg>
