<svg width="208" height="214" viewBox="0 0 208 214" fill="none" xmlns="http://www.w3.org/2000/svg">
<rect width="207.421" height="213.815" fill="#D9D9D9"/>
<path d="M82.7822 161.1C84.2622 161.1 85.5555 161.387 86.6622 161.96C87.7822 162.52 88.6422 163.333 89.2422 164.4C89.8555 165.453 90.1622 166.687 90.1622 168.1C90.1622 169.513 89.8555 170.74 89.2422 171.78C88.6422 172.82 87.7822 173.62 86.6622 174.18C85.5555 174.727 84.2622 175 82.7822 175H78.2422V161.1H82.7822ZM82.7822 173.14C84.4089 173.14 85.6555 172.7 86.5222 171.82C87.3889 170.94 87.8222 169.7 87.8222 168.1C87.8222 166.487 87.3889 165.227 86.5222 164.32C85.6555 163.413 84.4089 162.96 82.7822 162.96H80.5222V173.14H82.7822ZM94.7019 165.58C95.0352 165.02 95.4752 164.587 96.0219 164.28C96.5819 163.96 97.2419 163.8 98.0019 163.8V166.16H97.4219C96.5285 166.16 95.8485 166.387 95.3819 166.84C94.9285 167.293 94.7019 168.08 94.7019 169.2V175H92.4219V163.98H94.7019V165.58ZM110.018 163.98L103.258 180.18H100.898L103.138 174.82L98.7977 163.98H101.338L104.438 172.38L107.658 163.98H110.018ZM121.838 169.22C121.838 169.633 121.812 170.007 121.758 170.34H113.338C113.405 171.22 113.732 171.927 114.318 172.46C114.905 172.993 115.625 173.26 116.478 173.26C117.705 173.26 118.572 172.747 119.078 171.72H121.538C121.205 172.733 120.598 173.567 119.718 174.22C118.852 174.86 117.772 175.18 116.478 175.18C115.425 175.18 114.478 174.947 113.638 174.48C112.812 174 112.158 173.333 111.678 172.48C111.212 171.613 110.978 170.613 110.978 169.48C110.978 168.347 111.205 167.353 111.658 166.5C112.125 165.633 112.772 164.967 113.598 164.5C114.438 164.033 115.398 163.8 116.478 163.8C117.518 163.8 118.445 164.027 119.258 164.48C120.072 164.933 120.705 165.573 121.158 166.4C121.612 167.213 121.838 168.153 121.838 169.22ZM119.458 168.5C119.445 167.66 119.145 166.987 118.558 166.48C117.972 165.973 117.245 165.72 116.378 165.72C115.592 165.72 114.918 165.973 114.358 166.48C113.798 166.973 113.465 167.647 113.358 168.5H119.458ZM126.362 165.58C126.695 165.02 127.135 164.587 127.682 164.28C128.242 163.96 128.902 163.8 129.662 163.8V166.16H129.082C128.189 166.16 127.509 166.387 127.042 166.84C126.589 167.293 126.362 168.08 126.362 169.2V175H124.082V163.98H126.362V165.58Z" fill="#152C5B"/>
<ellipse cx="77.625" cy="75.3983" rx="25.625" ry="31.3983" fill="#152C5B"/>
<rect x="68.25" y="97.1355" width="16.25" height="41.8644" rx="5" fill="#152C5B"/>
<rect x="138.25" y="52.0509" width="8.75" height="43.4746" rx="4.375" fill="#152C5B"/>
<path d="M76.7466 45.6102L118.322 64.131L142.308 56.5855" stroke="#152C5B" stroke-width="6"/>
<path d="M76.3099 99.7118L117.922 81.2798L141.959 90.4077" stroke="#152C5B" stroke-width="6"/>
<path d="M77.5461 46.2961L81.5438 97.7428" stroke="#152C5B" stroke-width="6"/>
<path d="M142.308 56.5856V90.1974" stroke="#152C5B" stroke-width="6"/>
<path d="M75.4905 99.1007C74.5826 100.487 74.9701 102.346 76.356 103.254L98.9413 118.05C100.327 118.958 102.187 118.57 103.095 117.184C104.003 115.798 103.615 113.939 102.229 113.031L82.1534 99.8791L95.3049 79.8033C96.2128 78.4174 95.8253 76.5578 94.4394 75.6499C93.0534 74.742 91.1939 75.1295 90.2859 76.5154L75.4905 99.1007ZM90.5586 95.0631L77.3879 97.8078L78.612 103.682L91.7827 100.937L90.5586 95.0631Z" fill="#152C5B"/>
<ellipse cx="77" cy="75" rx="20" ry="26" fill="#D9D9D9"/>
<path d="M85 75.5C85 79.1292 83.9319 82.333 82.3047 84.58C80.6759 86.8294 78.5982 88 76.5 88C74.4018 88 72.3241 86.8294 70.6953 84.58C69.0681 82.333 68 79.1292 68 75.5C68 71.8708 69.0681 68.667 70.6953 66.42C72.3241 64.1706 74.4018 63 76.5 63C78.5982 63 80.6759 64.1706 82.3047 66.42C83.9319 68.667 85 71.8708 85 75.5Z" fill="#D9D9D9" stroke="#FF498B" stroke-width="4"/>
</svg>
