<svg width="208" height="214" viewBox="0 0 208 214" fill="none" xmlns="http://www.w3.org/2000/svg">
<rect x="0.579102" width="207.421" height="213.815" fill="#D9D9D9"/>
<path d="M55.9796 42.6111H138.738C140.641 42.6111 142.186 44.0546 142.186 45.8333V123.167C142.186 124.945 140.641 126.389 138.738 126.389H55.9796C54.0762 126.389 52.5314 124.945 52.5314 123.167V45.8333C52.5314 44.0546 54.0762 42.6111 55.9796 42.6111Z" stroke="#152C5B" stroke-width="6"/>
<path d="M142.186 68.3889H52.5314" stroke="#152C5B" stroke-width="6"/>
<path d="M128.393 52.2777C130.297 52.2777 131.841 53.7213 131.841 55.4999C131.841 57.2786 130.297 58.7222 128.393 58.7222C126.49 58.7222 124.945 57.2786 124.945 55.4999C124.945 53.7213 126.49 52.2777 128.393 52.2777Z" fill="#FF498B"/>
<path d="M107.704 52.2777C109.607 52.2777 111.152 53.7213 111.152 55.4999C111.152 57.2786 109.607 58.7222 107.704 58.7222C105.8 58.7222 104.255 57.2786 104.255 55.4999C104.255 53.7213 105.8 52.2777 107.704 52.2777Z" fill="#FF498B"/>
<path d="M87.0141 52.2777C88.9175 52.2777 90.4623 53.7213 90.4623 55.4999C90.4623 57.2786 88.9175 58.7222 87.0141 58.7222C85.1106 58.7222 83.5658 57.2786 83.5658 55.4999C83.5658 53.7213 85.1106 52.2777 87.0141 52.2777Z" fill="#FF498B"/>
<path d="M66.3244 52.2777C68.2279 52.2777 69.7727 53.7213 69.7727 55.4999C69.7727 57.2786 68.2279 58.7222 66.3244 58.7222C64.421 58.7222 62.8762 57.2786 62.8762 55.4999C62.8762 53.7213 64.421 52.2777 66.3244 52.2777Z" fill="#FF498B"/>
<path d="M66.3245 81.2778H128.393V113.5H66.3245V81.2778Z" stroke="#FF498B" stroke-width="4"/>
<path d="M142.186 68.3889H52.5314" stroke="#3C3C3C" stroke-width="2"/>
<path d="M74.9918 181.27L69.6118 175.05V181.27H67.3318V167.37H69.6118V173.71L75.0118 167.37H77.8718L71.8318 174.33L77.9718 181.27H74.9918ZM81.148 168.79C80.7347 168.79 80.388 168.65 80.108 168.37C79.828 168.09 79.688 167.743 79.688 167.33C79.688 166.917 79.828 166.57 80.108 166.29C80.388 166.01 80.7347 165.87 81.148 165.87C81.548 165.87 81.888 166.01 82.168 166.29C82.448 166.57 82.588 166.917 82.588 167.33C82.588 167.743 82.448 168.09 82.168 168.37C81.888 168.65 81.548 168.79 81.148 168.79ZM82.268 170.25V181.27H79.988V170.25H82.268ZM87.9214 172.11V178.21C87.9214 178.623 88.0148 178.923 88.2014 179.11C88.4014 179.283 88.7348 179.37 89.2014 179.37H90.6014V181.27H88.8014C87.7748 181.27 86.9881 181.03 86.4414 180.55C85.8948 180.07 85.6214 179.29 85.6214 178.21V172.11H84.3214V170.25H85.6214V167.51H87.9214V170.25H90.6014V172.11H87.9214ZM91.9429 175.75C91.9429 174.617 92.1695 173.623 92.6229 172.77C93.0895 171.903 93.7295 171.237 94.5429 170.77C95.3562 170.303 96.2895 170.07 97.3429 170.07C98.6762 170.07 99.7762 170.39 100.643 171.03C101.523 171.657 102.116 172.557 102.423 173.73H99.9629C99.7629 173.183 99.4429 172.757 99.0029 172.45C98.5629 172.143 98.0095 171.99 97.3429 171.99C96.4095 171.99 95.6629 172.323 95.1029 172.99C94.5562 173.643 94.2829 174.563 94.2829 175.75C94.2829 176.937 94.5562 177.863 95.1029 178.53C95.6629 179.197 96.4095 179.53 97.3429 179.53C98.6629 179.53 99.5362 178.95 99.9629 177.79H102.423C102.103 178.91 101.503 179.803 100.623 180.47C99.7429 181.123 98.6495 181.45 97.3429 181.45C96.2895 181.45 95.3562 181.217 94.5429 180.75C93.7295 180.27 93.0895 179.603 92.6229 178.75C92.1695 177.883 91.9429 176.883 91.9429 175.75ZM110.395 170.07C111.235 170.07 111.982 170.25 112.635 170.61C113.302 170.97 113.822 171.503 114.195 172.21C114.582 172.917 114.775 173.77 114.775 174.77V181.27H112.515V175.11C112.515 174.123 112.268 173.37 111.775 172.85C111.282 172.317 110.608 172.05 109.755 172.05C108.902 172.05 108.222 172.317 107.715 172.85C107.222 173.37 106.975 174.123 106.975 175.11V181.27H104.695V166.47H106.975V171.53C107.362 171.063 107.848 170.703 108.435 170.45C109.035 170.197 109.688 170.07 110.395 170.07ZM127.783 175.49C127.783 175.903 127.757 176.277 127.703 176.61H119.283C119.35 177.49 119.677 178.197 120.263 178.73C120.85 179.263 121.57 179.53 122.423 179.53C123.65 179.53 124.517 179.017 125.023 177.99H127.483C127.15 179.003 126.543 179.837 125.663 180.49C124.797 181.13 123.717 181.45 122.423 181.45C121.37 181.45 120.423 181.217 119.583 180.75C118.757 180.27 118.103 179.603 117.623 178.75C117.157 177.883 116.923 176.883 116.923 175.75C116.923 174.617 117.15 173.623 117.603 172.77C118.07 171.903 118.717 171.237 119.543 170.77C120.383 170.303 121.343 170.07 122.423 170.07C123.463 170.07 124.39 170.297 125.203 170.75C126.017 171.203 126.65 171.843 127.103 172.67C127.557 173.483 127.783 174.423 127.783 175.49ZM125.403 174.77C125.39 173.93 125.09 173.257 124.503 172.75C123.917 172.243 123.19 171.99 122.323 171.99C121.537 171.99 120.863 172.243 120.303 172.75C119.743 173.243 119.41 173.917 119.303 174.77H125.403ZM135.587 170.07C136.454 170.07 137.227 170.25 137.907 170.61C138.6 170.97 139.14 171.503 139.527 172.21C139.914 172.917 140.107 173.77 140.107 174.77V181.27H137.847V175.11C137.847 174.123 137.6 173.37 137.107 172.85C136.614 172.317 135.94 172.05 135.087 172.05C134.234 172.05 133.554 172.317 133.047 172.85C132.554 173.37 132.307 174.123 132.307 175.11V181.27H130.027V170.25H132.307V171.51C132.68 171.057 133.154 170.703 133.727 170.45C134.314 170.197 134.934 170.07 135.587 170.07Z" fill="#152C5B"/>
</svg>
