<svg width="208" height="214" viewBox="0 0 208 214" fill="none" xmlns="http://www.w3.org/2000/svg">
<rect x="0.548035" width="207.421" height="213.815" fill="#D9D9D9"/>
<path d="M136 127.222V145" stroke="#152C5B" stroke-width="6" stroke-linecap="round"/>
<path d="M111 76.1111V98.3333" stroke="#152C5B" stroke-width="6" stroke-linecap="round"/>
<path d="M131.833 73.8889V82.7778" stroke="#152C5B" stroke-width="6" stroke-linecap="round"/>
<path d="M85.9999 127.222V145" stroke="#152C5B" stroke-width="6" stroke-linecap="round"/>
<path d="M73.6097 73.1111L82.6991 48H141.403L148.675 73.1111H73.6097ZM141.194 47.2781L141.195 47.2804C141.194 47.2796 141.194 47.2789 141.194 47.2781L142.155 47L141.194 47.2781ZM149.045 74.3893C149.045 74.3884 149.044 74.3876 149.044 74.3868L149.045 74.3893Z" stroke="#FF498B" stroke-width="6"/>
<mask id="path-7-inside-1_527_2746" fill="white">
<path d="M60.9999 100.111C60.9999 97.9019 62.7908 96.1111 64.9999 96.1111H157C159.209 96.1111 161 97.9019 161 100.111V123.222C161 125.431 159.209 127.222 157 127.222H64.9999C62.7908 127.222 60.9999 125.431 60.9999 123.222V100.111Z"/>
</mask>
<path d="M60.9999 100.111C60.9999 97.9019 62.7908 96.1111 64.9999 96.1111H157C159.209 96.1111 161 97.9019 161 100.111V123.222C161 125.431 159.209 127.222 157 127.222H64.9999C62.7908 127.222 60.9999 125.431 60.9999 123.222V100.111Z" stroke="#152C5B" stroke-width="12" mask="url(#path-7-inside-1_527_2746)"/>
<path d="M46.612 179.43H51.312V181.27H44.332V167.37H46.612V179.43ZM54.3787 168.79C53.9654 168.79 53.6187 168.65 53.3387 168.37C53.0587 168.09 52.9187 167.743 52.9187 167.33C52.9187 166.917 53.0587 166.57 53.3387 166.29C53.6187 166.01 53.9654 165.87 54.3787 165.87C54.7787 165.87 55.1187 166.01 55.3987 166.29C55.6787 166.57 55.8187 166.917 55.8187 167.33C55.8187 167.743 55.6787 168.09 55.3987 168.37C55.1187 168.65 54.7787 168.79 54.3787 168.79ZM55.4987 170.25V181.27H53.2187V170.25H55.4987ZM62.7522 179.23L65.8722 170.25H68.2922L64.0922 181.27H61.3722L57.1922 170.25H59.6322L62.7522 179.23ZM71.1756 168.79C70.7623 168.79 70.4156 168.65 70.1356 168.37C69.8556 168.09 69.7156 167.743 69.7156 167.33C69.7156 166.917 69.8556 166.57 70.1356 166.29C70.4156 166.01 70.7623 165.87 71.1756 165.87C71.5756 165.87 71.9156 166.01 72.1956 166.29C72.4756 166.57 72.6156 166.917 72.6156 167.33C72.6156 167.743 72.4756 168.09 72.1956 168.37C71.9156 168.65 71.5756 168.79 71.1756 168.79ZM72.2956 170.25V181.27H70.0156V170.25H72.2956ZM80.849 170.07C81.7157 170.07 82.489 170.25 83.169 170.61C83.8624 170.97 84.4024 171.503 84.789 172.21C85.1757 172.917 85.369 173.77 85.369 174.77V181.27H83.109V175.11C83.109 174.123 82.8624 173.37 82.369 172.85C81.8757 172.317 81.2024 172.05 80.349 172.05C79.4957 172.05 78.8157 172.317 78.309 172.85C77.8157 173.37 77.569 174.123 77.569 175.11V181.27H75.289V170.25H77.569V171.51C77.9424 171.057 78.4157 170.703 78.989 170.45C79.5757 170.197 80.1957 170.07 80.849 170.07ZM92.7173 170.07C93.5706 170.07 94.324 170.243 94.9773 170.59C95.644 170.923 96.164 171.343 96.5373 171.85V170.25H98.8373V181.45C98.8373 182.463 98.624 183.363 98.1973 184.15C97.7706 184.95 97.1506 185.577 96.3373 186.03C95.5373 186.483 94.5773 186.71 93.4573 186.71C91.964 186.71 90.724 186.357 89.7373 185.65C88.7506 184.957 88.1906 184.01 88.0573 182.81H90.3173C90.4906 183.383 90.8573 183.843 91.4173 184.19C91.9906 184.55 92.6706 184.73 93.4573 184.73C94.3773 184.73 95.1173 184.45 95.6773 183.89C96.2506 183.33 96.5373 182.517 96.5373 181.45V179.61C96.1506 180.13 95.624 180.57 94.9573 180.93C94.304 181.277 93.5573 181.45 92.7173 181.45C91.7573 181.45 90.8773 181.21 90.0773 180.73C89.2906 180.237 88.664 179.557 88.1973 178.69C87.744 177.81 87.5173 176.817 87.5173 175.71C87.5173 174.603 87.744 173.623 88.1973 172.77C88.664 171.917 89.2906 171.257 90.0773 170.79C90.8773 170.31 91.7573 170.07 92.7173 170.07ZM96.5373 175.75C96.5373 174.99 96.3773 174.33 96.0573 173.77C95.7506 173.21 95.344 172.783 94.8373 172.49C94.3306 172.197 93.784 172.05 93.1973 172.05C92.6106 172.05 92.064 172.197 91.5573 172.49C91.0506 172.77 90.6373 173.19 90.3173 173.75C90.0106 174.297 89.8573 174.95 89.8573 175.71C89.8573 176.47 90.0106 177.137 90.3173 177.71C90.6373 178.283 91.0506 178.723 91.5573 179.03C92.0773 179.323 92.624 179.47 93.1973 179.47C93.784 179.47 94.3306 179.323 94.8373 179.03C95.344 178.737 95.7506 178.31 96.0573 177.75C96.3773 177.177 96.5373 176.51 96.5373 175.75ZM114.247 181.27L111.047 175.71H109.307V181.27H107.027V167.37H111.827C112.894 167.37 113.794 167.557 114.527 167.93C115.274 168.303 115.827 168.803 116.187 169.43C116.561 170.057 116.747 170.757 116.747 171.53C116.747 172.437 116.481 173.263 115.947 174.01C115.427 174.743 114.621 175.243 113.527 175.51L116.967 181.27H114.247ZM109.307 173.89H111.827C112.681 173.89 113.321 173.677 113.747 173.25C114.187 172.823 114.407 172.25 114.407 171.53C114.407 170.81 114.194 170.25 113.767 169.85C113.341 169.437 112.694 169.23 111.827 169.23H109.307V173.89ZM124.444 181.45C123.404 181.45 122.464 181.217 121.624 180.75C120.784 180.27 120.124 179.603 119.644 178.75C119.164 177.883 118.924 176.883 118.924 175.75C118.924 174.63 119.171 173.637 119.664 172.77C120.157 171.903 120.831 171.237 121.684 170.77C122.537 170.303 123.491 170.07 124.544 170.07C125.597 170.07 126.551 170.303 127.404 170.77C128.257 171.237 128.931 171.903 129.424 172.77C129.917 173.637 130.164 174.63 130.164 175.75C130.164 176.87 129.911 177.863 129.404 178.73C128.897 179.597 128.204 180.27 127.324 180.75C126.457 181.217 125.497 181.45 124.444 181.45ZM124.444 179.47C125.031 179.47 125.577 179.33 126.084 179.05C126.604 178.77 127.024 178.35 127.344 177.79C127.664 177.23 127.824 176.55 127.824 175.75C127.824 174.95 127.671 174.277 127.364 173.73C127.057 173.17 126.651 172.75 126.144 172.47C125.637 172.19 125.091 172.05 124.504 172.05C123.917 172.05 123.371 172.19 122.864 172.47C122.371 172.75 121.977 173.17 121.684 173.73C121.391 174.277 121.244 174.95 121.244 175.75C121.244 176.937 121.544 177.857 122.144 178.51C122.757 179.15 123.524 179.47 124.444 179.47ZM137.198 181.45C136.158 181.45 135.218 181.217 134.378 180.75C133.538 180.27 132.878 179.603 132.398 178.75C131.918 177.883 131.678 176.883 131.678 175.75C131.678 174.63 131.925 173.637 132.418 172.77C132.911 171.903 133.585 171.237 134.438 170.77C135.291 170.303 136.245 170.07 137.298 170.07C138.351 170.07 139.305 170.303 140.158 170.77C141.011 171.237 141.685 171.903 142.178 172.77C142.671 173.637 142.918 174.63 142.918 175.75C142.918 176.87 142.665 177.863 142.158 178.73C141.651 179.597 140.958 180.27 140.078 180.75C139.211 181.217 138.251 181.45 137.198 181.45ZM137.198 179.47C137.785 179.47 138.331 179.33 138.838 179.05C139.358 178.77 139.778 178.35 140.098 177.79C140.418 177.23 140.578 176.55 140.578 175.75C140.578 174.95 140.425 174.277 140.118 173.73C139.811 173.17 139.405 172.75 138.898 172.47C138.391 172.19 137.845 172.05 137.258 172.05C136.671 172.05 136.125 172.19 135.618 172.47C135.125 172.75 134.731 173.17 134.438 173.73C134.145 174.277 133.998 174.95 133.998 175.75C133.998 176.937 134.298 177.857 134.898 178.51C135.511 179.15 136.278 179.47 137.198 179.47ZM158.512 170.07C159.379 170.07 160.152 170.25 160.832 170.61C161.525 170.97 162.065 171.503 162.452 172.21C162.852 172.917 163.052 173.77 163.052 174.77V181.27H160.792V175.11C160.792 174.123 160.545 173.37 160.052 172.85C159.559 172.317 158.885 172.05 158.032 172.05C157.179 172.05 156.499 172.317 155.992 172.85C155.499 173.37 155.252 174.123 155.252 175.11V181.27H152.992V175.11C152.992 174.123 152.745 173.37 152.252 172.85C151.759 172.317 151.085 172.05 150.232 172.05C149.379 172.05 148.699 172.317 148.192 172.85C147.699 173.37 147.452 174.123 147.452 175.11V181.27H145.172V170.25H147.452V171.51C147.825 171.057 148.299 170.703 148.872 170.45C149.445 170.197 150.059 170.07 150.712 170.07C151.592 170.07 152.379 170.257 153.072 170.63C153.765 171.003 154.299 171.543 154.672 172.25C155.005 171.583 155.525 171.057 156.232 170.67C156.939 170.27 157.699 170.07 158.512 170.07Z" fill="#152C5B"/>
</svg>
