<svg width="208" height="214" viewBox="0 0 208 214" fill="none" xmlns="http://www.w3.org/2000/svg">
<rect x="0.0310059" width="207.421" height="213.815" fill="#D9D9D9"/>
<path d="M135.495 104.51H148.832V113.777C148.832 115.482 147.338 116.866 145.498 116.866H138.829C136.989 116.866 135.495 115.482 135.495 113.777V104.51Z" stroke="#152C5B" stroke-width="6"/>
<path d="M62.1454 104.51H75.4818V113.777C75.4818 115.482 73.9881 116.866 72.1477 116.866H65.4795C63.6391 116.866 62.1454 115.482 62.1454 113.777V104.51Z" stroke="#152C5B" stroke-width="6"/>
<path d="M75.4818 73.6212H135.495C142.86 73.6212 148.832 79.1534 148.832 85.9768V101.421C148.832 103.126 147.338 104.51 145.498 104.51H65.4795C63.6391 104.51 62.1454 103.126 62.1454 101.421V85.9768C62.1454 79.1534 68.1168 73.6212 75.4818 73.6212Z" stroke="#152C5B" stroke-width="6"/>
<path d="M81.1264 48.9102H129.851C131.241 48.9102 132.485 49.7102 132.971 50.9148L142.163 73.6213H68.8136L78.0057 50.9148C78.4924 49.7102 79.7361 48.9102 81.1264 48.9102Z" stroke="#152C5B" stroke-width="6"/>
<path d="M85.484 89.0657H125.493" stroke="#152C5B" stroke-width="6"/>
<rect x="57.9778" y="62.8302" width="10.8358" height="7.86792" fill="#FF498B"/>
<rect x="142.163" y="63.4858" width="10.8358" height="7.86792" fill="#FF498B"/>
<ellipse cx="75.4818" cy="89.3845" rx="4.16761" ry="3.60613" fill="#FF498B"/>
<ellipse cx="135.495" cy="89.3845" rx="4.16761" ry="3.60613" fill="#FF498B"/>
<path d="M76.8515 171.51C76.8515 172.217 76.6849 172.883 76.3515 173.51C76.0182 174.137 75.4849 174.65 74.7515 175.05C74.0182 175.437 73.0782 175.63 71.9315 175.63H69.4115V181.27H67.1315V167.37H71.9315C72.9982 167.37 73.8982 167.557 74.6315 167.93C75.3782 168.29 75.9315 168.783 76.2915 169.41C76.6649 170.037 76.8515 170.737 76.8515 171.51ZM71.9315 173.77C72.7982 173.77 73.4449 173.577 73.8715 173.19C74.2982 172.79 74.5115 172.23 74.5115 171.51C74.5115 169.99 73.6515 169.23 71.9315 169.23H69.4115V173.77H71.9315ZM78.2661 175.71C78.2661 174.603 78.4927 173.623 78.9461 172.77C79.4127 171.917 80.0394 171.257 80.8261 170.79C81.6261 170.31 82.5061 170.07 83.4661 170.07C84.3327 170.07 85.0861 170.243 85.7261 170.59C86.3794 170.923 86.8994 171.343 87.2861 171.85V170.25H89.5861V181.27H87.2861V179.63C86.8994 180.15 86.3727 180.583 85.7061 180.93C85.0394 181.277 84.2794 181.45 83.4261 181.45C82.4794 181.45 81.6127 181.21 80.8261 180.73C80.0394 180.237 79.4127 179.557 78.9461 178.69C78.4927 177.81 78.2661 176.817 78.2661 175.71ZM87.2861 175.75C87.2861 174.99 87.1261 174.33 86.8061 173.77C86.4994 173.21 86.0927 172.783 85.5861 172.49C85.0794 172.197 84.5327 172.05 83.9461 172.05C83.3594 172.05 82.8127 172.197 82.3061 172.49C81.7994 172.77 81.3861 173.19 81.0661 173.75C80.7594 174.297 80.6061 174.95 80.6061 175.71C80.6061 176.47 80.7594 177.137 81.0661 177.71C81.3861 178.283 81.7994 178.723 82.3061 179.03C82.8261 179.323 83.3727 179.47 83.9461 179.47C84.5327 179.47 85.0794 179.323 85.5861 179.03C86.0927 178.737 86.4994 178.31 86.8061 177.75C87.1261 177.177 87.2861 176.51 87.2861 175.75ZM94.8607 171.85C95.1941 171.29 95.6341 170.857 96.1807 170.55C96.7407 170.23 97.4007 170.07 98.1607 170.07V172.43H97.5807C96.6874 172.43 96.0074 172.657 95.5407 173.11C95.0874 173.563 94.8607 174.35 94.8607 175.47V181.27H92.5807V170.25H94.8607V171.85ZM104.617 175.77L109.697 181.27H106.617L102.537 176.53V181.27H100.257V166.47H102.537V175.07L106.537 170.25H109.697L104.617 175.77ZM112.491 168.79C112.077 168.79 111.731 168.65 111.451 168.37C111.171 168.09 111.031 167.743 111.031 167.33C111.031 166.917 111.171 166.57 111.451 166.29C111.731 166.01 112.077 165.87 112.491 165.87C112.891 165.87 113.231 166.01 113.511 166.29C113.791 166.57 113.931 166.917 113.931 167.33C113.931 167.743 113.791 168.09 113.511 168.37C113.231 168.65 112.891 168.79 112.491 168.79ZM113.611 170.25V181.27H111.331V170.25H113.611ZM122.164 170.07C123.031 170.07 123.804 170.25 124.484 170.61C125.178 170.97 125.718 171.503 126.104 172.21C126.491 172.917 126.684 173.77 126.684 174.77V181.27H124.424V175.11C124.424 174.123 124.178 173.37 123.684 172.85C123.191 172.317 122.518 172.05 121.664 172.05C120.811 172.05 120.131 172.317 119.624 172.85C119.131 173.37 118.884 174.123 118.884 175.11V181.27H116.604V170.25H118.884V171.51C119.258 171.057 119.731 170.703 120.304 170.45C120.891 170.197 121.511 170.07 122.164 170.07ZM134.032 170.07C134.886 170.07 135.639 170.243 136.292 170.59C136.959 170.923 137.479 171.343 137.852 171.85V170.25H140.152V181.45C140.152 182.463 139.939 183.363 139.512 184.15C139.086 184.95 138.466 185.577 137.652 186.03C136.852 186.483 135.892 186.71 134.772 186.71C133.279 186.71 132.039 186.357 131.052 185.65C130.066 184.957 129.506 184.01 129.372 182.81H131.632C131.806 183.383 132.172 183.843 132.732 184.19C133.306 184.55 133.986 184.73 134.772 184.73C135.692 184.73 136.432 184.45 136.992 183.89C137.566 183.33 137.852 182.517 137.852 181.45V179.61C137.466 180.13 136.939 180.57 136.272 180.93C135.619 181.277 134.872 181.45 134.032 181.45C133.072 181.45 132.192 181.21 131.392 180.73C130.606 180.237 129.979 179.557 129.512 178.69C129.059 177.81 128.832 176.817 128.832 175.71C128.832 174.603 129.059 173.623 129.512 172.77C129.979 171.917 130.606 171.257 131.392 170.79C132.192 170.31 133.072 170.07 134.032 170.07ZM137.852 175.75C137.852 174.99 137.692 174.33 137.372 173.77C137.066 173.21 136.659 172.783 136.152 172.49C135.646 172.197 135.099 172.05 134.512 172.05C133.926 172.05 133.379 172.197 132.872 172.49C132.366 172.77 131.952 173.19 131.632 173.75C131.326 174.297 131.172 174.95 131.172 175.71C131.172 176.47 131.326 177.137 131.632 177.71C131.952 178.283 132.366 178.723 132.872 179.03C133.392 179.323 133.939 179.47 134.512 179.47C135.099 179.47 135.646 179.323 136.152 179.03C136.659 178.737 137.066 178.31 137.372 177.75C137.692 177.177 137.852 176.51 137.852 175.75Z" fill="#152C5B"/>
</svg>
