<svg width="58" height="37" viewBox="0 0 58 37" fill="none" xmlns="http://www.w3.org/2000/svg">
<g filter="url(#filter0_d_536_730)">
<path d="M21.48 14.6C23.1067 14.9467 24.4133 15.76 25.4 17.04C26.3867 18.2933 26.88 19.7333 26.88 21.36C26.88 23.7067 26.0533 25.5733 24.4 26.96C22.7733 28.32 20.4933 29 17.56 29H4.48V0.919999H17.12C19.9733 0.919999 22.2 1.57333 23.8 2.88C25.4267 4.18667 26.24 5.96 26.24 8.2C26.24 9.85333 25.8 11.2267 24.92 12.32C24.0667 13.4133 22.92 14.1733 21.48 14.6ZM11.32 12.28H15.8C16.92 12.28 17.7733 12.04 18.36 11.56C18.9733 11.0533 19.28 10.32 19.28 9.36C19.28 8.4 18.9733 7.66667 18.36 7.16C17.7733 6.65333 16.92 6.4 15.8 6.4H11.32V12.28ZM16.36 23.48C17.5067 23.48 18.3867 23.2267 19 22.72C19.64 22.1867 19.96 21.4267 19.96 20.44C19.96 19.4533 19.6267 18.68 18.96 18.12C18.32 17.56 17.4267 17.28 16.28 17.28H11.32V23.48H16.36Z" fill="#3252DF"/>
<path d="M47.8472 14.6C49.4739 14.9467 50.7805 15.76 51.7672 17.04C52.7539 18.2933 53.2472 19.7333 53.2472 21.36C53.2472 23.7067 52.4205 25.5733 50.7672 26.96C49.1405 28.32 46.8605 29 43.9272 29H30.8472V0.919999H43.4872C46.3405 0.919999 48.5672 1.57333 50.1672 2.88C51.7939 4.18667 52.6072 5.96 52.6072 8.2C52.6072 9.85333 52.1672 11.2267 51.2872 12.32C50.4339 13.4133 49.2872 14.1733 47.8472 14.6ZM37.6872 12.28H42.1672C43.2872 12.28 44.1405 12.04 44.7272 11.56C45.3405 11.0533 45.6472 10.32 45.6472 9.36C45.6472 8.4 45.3405 7.66667 44.7272 7.16C44.1405 6.65333 43.2872 6.4 42.1672 6.4H37.6872V12.28ZM42.7272 23.48C43.8739 23.48 44.7539 23.2267 45.3672 22.72C46.0072 22.1867 46.3272 21.4267 46.3272 20.44C46.3272 19.4533 45.9939 18.68 45.3272 18.12C44.6872 17.56 43.7939 17.28 42.6472 17.28H37.6872V23.48H42.7272Z" fill="#152C5B"/>
</g>
<defs>
<filter id="filter0_d_536_730" x="0.480011" y="0.919922" width="56.7672" height="36.0801" filterUnits="userSpaceOnUse" color-interpolation-filters="sRGB">
<feFlood flood-opacity="0" result="BackgroundImageFix"/>
<feColorMatrix in="SourceAlpha" type="matrix" values="0 0 0 0 0 0 0 0 0 0 0 0 0 0 0 0 0 0 127 0" result="hardAlpha"/>
<feOffset dy="4"/>
<feGaussianBlur stdDeviation="2"/>
<feComposite in2="hardAlpha" operator="out"/>
<feColorMatrix type="matrix" values="0 0 0 0 0 0 0 0 0 0 0 0 0 0 0 0 0 0 0.25 0"/>
<feBlend mode="normal" in2="BackgroundImageFix" result="effect1_dropShadow_536_730"/>
<feBlend mode="normal" in="SourceGraphic" in2="effect1_dropShadow_536_730" result="shape"/>
</filter>
</defs>
</svg>
