<svg width="430" height="282" viewBox="0 0 430 282" fill="none" xmlns="http://www.w3.org/2000/svg">
<path d="M122 61.3556C160.4 -0.244354 -4.66666 47.3556 -92 78.8556L-116 350.356H453.5C453.5 281.689 460.2 123.656 487 40.8556C513.8 -41.9444 377.167 20.0223 305.5 61.3556C228.333 87.0223 83.6 122.956 122 61.3556Z" fill="#3252DF" fill-opacity="0.3"/>
<g filter="url(#filter0_d_843_879)">
<path d="M70 23L-13 104.5L-37 334L593.5 350L649 154L465.5 50L418 104.5L360.5 23L287 104.5L218.5 4L134 95L70 23Z" fill="#9EB4E1" fill-opacity="0.4" shape-rendering="crispEdges"/>
</g>
<path d="M165.622 136.718C166.593 136.891 167.416 137.403 168.092 138.252C168.768 139.101 169.106 140.063 169.106 141.138C169.106 142.057 168.863 142.889 168.378 143.634C167.91 144.362 167.225 144.943 166.324 145.376C165.423 145.792 164.374 146 163.178 146H155.95V127.93H162.84C164.071 127.93 165.128 128.138 166.012 128.554C166.896 128.97 167.563 129.533 168.014 130.244C168.465 130.937 168.69 131.717 168.69 132.584C168.69 133.624 168.413 134.491 167.858 135.184C167.303 135.877 166.558 136.389 165.622 136.718ZM158.914 135.522H162.58C163.551 135.522 164.305 135.305 164.842 134.872C165.397 134.421 165.674 133.78 165.674 132.948C165.674 132.133 165.397 131.501 164.842 131.05C164.305 130.582 163.551 130.348 162.58 130.348H158.914V135.522ZM162.918 143.582C163.923 143.582 164.712 143.339 165.284 142.854C165.856 142.369 166.142 141.693 166.142 140.826C166.142 139.942 165.839 139.24 165.232 138.72C164.625 138.2 163.819 137.94 162.814 137.94H158.914V143.582H162.918ZM185.457 138.486C185.457 139.023 185.422 139.509 185.353 139.942H174.407C174.494 141.086 174.918 142.005 175.681 142.698C176.444 143.391 177.38 143.738 178.489 143.738C180.084 143.738 181.21 143.071 181.869 141.736H185.067C184.634 143.053 183.845 144.137 182.701 144.986C181.574 145.818 180.17 146.234 178.489 146.234C177.12 146.234 175.889 145.931 174.797 145.324C173.722 144.7 172.873 143.833 172.249 142.724C171.642 141.597 171.339 140.297 171.339 138.824C171.339 137.351 171.634 136.059 172.223 134.95C172.83 133.823 173.67 132.957 174.745 132.35C175.837 131.743 177.085 131.44 178.489 131.44C179.841 131.44 181.046 131.735 182.103 132.324C183.16 132.913 183.984 133.745 184.573 134.82C185.162 135.877 185.457 137.099 185.457 138.486ZM182.363 137.55C182.346 136.458 181.956 135.583 181.193 134.924C180.43 134.265 179.486 133.936 178.359 133.936C177.336 133.936 176.461 134.265 175.733 134.924C175.005 135.565 174.572 136.441 174.433 137.55H182.363ZM193.574 146.234C192.447 146.234 191.433 146.035 190.532 145.636C189.648 145.22 188.946 144.665 188.426 143.972C187.906 143.261 187.628 142.473 187.594 141.606H190.662C190.714 142.213 191 142.724 191.52 143.14C192.057 143.539 192.724 143.738 193.522 143.738C194.354 143.738 194.995 143.582 195.446 143.27C195.914 142.941 196.148 142.525 196.148 142.022C196.148 141.485 195.888 141.086 195.368 140.826C194.865 140.566 194.059 140.28 192.95 139.968C191.875 139.673 191 139.387 190.324 139.11C189.648 138.833 189.058 138.408 188.556 137.836C188.07 137.264 187.828 136.51 187.828 135.574C187.828 134.811 188.053 134.118 188.504 133.494C188.954 132.853 189.596 132.35 190.428 131.986C191.277 131.622 192.248 131.44 193.34 131.44C194.969 131.44 196.278 131.856 197.266 132.688C198.271 133.503 198.808 134.621 198.878 136.042H195.914C195.862 135.401 195.602 134.889 195.134 134.508C194.666 134.127 194.033 133.936 193.236 133.936C192.456 133.936 191.858 134.083 191.442 134.378C191.026 134.673 190.818 135.063 190.818 135.548C190.818 135.929 190.956 136.25 191.234 136.51C191.511 136.77 191.849 136.978 192.248 137.134C192.646 137.273 193.236 137.455 194.016 137.68C195.056 137.957 195.905 138.243 196.564 138.538C197.24 138.815 197.82 139.231 198.306 139.786C198.791 140.341 199.042 141.077 199.06 141.996C199.06 142.811 198.834 143.539 198.384 144.18C197.933 144.821 197.292 145.324 196.46 145.688C195.645 146.052 194.683 146.234 193.574 146.234ZM205.721 134.092V142.022C205.721 142.559 205.842 142.949 206.085 143.192C206.345 143.417 206.778 143.53 207.385 143.53H209.205V146H206.865C205.53 146 204.507 145.688 203.797 145.064C203.086 144.44 202.731 143.426 202.731 142.022V134.092H201.041V131.674H202.731V128.112H205.721V131.674H209.205V134.092H205.721Z" fill="#3252DF"/>
<path d="M221.608 136.718C222.579 136.891 223.402 137.403 224.078 138.252C224.754 139.101 225.092 140.063 225.092 141.138C225.092 142.057 224.85 142.889 224.364 143.634C223.896 144.362 223.212 144.943 222.31 145.376C221.409 145.792 220.36 146 219.164 146H211.936V127.93H218.826C220.057 127.93 221.114 128.138 221.998 128.554C222.882 128.97 223.55 129.533 224 130.244C224.451 130.937 224.676 131.717 224.676 132.584C224.676 133.624 224.399 134.491 223.844 135.184C223.29 135.877 222.544 136.389 221.608 136.718ZM214.9 135.522H218.566C219.537 135.522 220.291 135.305 220.828 134.872C221.383 134.421 221.66 133.78 221.66 132.948C221.66 132.133 221.383 131.501 220.828 131.05C220.291 130.582 219.537 130.348 218.566 130.348H214.9V135.522ZM218.904 143.582C219.91 143.582 220.698 143.339 221.27 142.854C221.842 142.369 222.128 141.693 222.128 140.826C222.128 139.942 221.825 139.24 221.218 138.72C220.612 138.2 219.806 137.94 218.8 137.94H214.9V143.582H218.904ZM241.287 131.674V146H238.323V144.31C237.855 144.899 237.24 145.367 236.477 145.714C235.732 146.043 234.935 146.208 234.085 146.208C232.959 146.208 231.945 145.974 231.043 145.506C230.159 145.038 229.457 144.345 228.937 143.426C228.435 142.507 228.183 141.398 228.183 140.098V131.674H231.121V139.656C231.121 140.939 231.442 141.927 232.083 142.62C232.725 143.296 233.6 143.634 234.709 143.634C235.819 143.634 236.694 143.296 237.335 142.62C237.994 141.927 238.323 140.939 238.323 139.656V131.674H241.287ZM244.21 138.772C244.21 137.333 244.505 136.059 245.094 134.95C245.701 133.841 246.515 132.983 247.538 132.376C248.578 131.752 249.731 131.44 250.996 131.44C251.932 131.44 252.851 131.648 253.752 132.064C254.671 132.463 255.399 133 255.936 133.676V126.76H258.926V146H255.936V143.842C255.451 144.535 254.775 145.107 253.908 145.558C253.059 146.009 252.079 146.234 250.97 146.234C249.722 146.234 248.578 145.922 247.538 145.298C246.515 144.657 245.701 143.773 245.094 142.646C244.505 141.502 244.21 140.211 244.21 138.772ZM255.936 138.824C255.936 137.836 255.728 136.978 255.312 136.25C254.913 135.522 254.385 134.967 253.726 134.586C253.067 134.205 252.357 134.014 251.594 134.014C250.831 134.014 250.121 134.205 249.462 134.586C248.803 134.95 248.266 135.496 247.85 136.224C247.451 136.935 247.252 137.784 247.252 138.772C247.252 139.76 247.451 140.627 247.85 141.372C248.266 142.117 248.803 142.689 249.462 143.088C250.138 143.469 250.849 143.66 251.594 143.66C252.357 143.66 253.067 143.469 253.726 143.088C254.385 142.707 254.913 142.152 255.312 141.424C255.728 140.679 255.936 139.812 255.936 138.824ZM261.831 138.772C261.831 137.333 262.126 136.059 262.715 134.95C263.322 133.841 264.136 132.983 265.159 132.376C266.199 131.752 267.352 131.44 268.617 131.44C269.553 131.44 270.472 131.648 271.373 132.064C272.292 132.463 273.02 133 273.557 133.676V126.76H276.547V146H273.557V143.842C273.072 144.535 272.396 145.107 271.529 145.558C270.68 146.009 269.7 146.234 268.591 146.234C267.343 146.234 266.199 145.922 265.159 145.298C264.136 144.657 263.322 143.773 262.715 142.646C262.126 141.502 261.831 140.211 261.831 138.772ZM273.557 138.824C273.557 137.836 273.349 136.978 272.933 136.25C272.534 135.522 272.006 134.967 271.347 134.586C270.688 134.205 269.978 134.014 269.215 134.014C268.452 134.014 267.742 134.205 267.083 134.586C266.424 134.95 265.887 135.496 265.471 136.224C265.072 136.935 264.873 137.784 264.873 138.772C264.873 139.76 265.072 140.627 265.471 141.372C265.887 142.117 266.424 142.689 267.083 143.088C267.759 143.469 268.47 143.66 269.215 143.66C269.978 143.66 270.688 143.469 271.347 143.088C272.006 142.707 272.534 142.152 272.933 141.424C273.349 140.679 273.557 139.812 273.557 138.824ZM293.336 131.674L284.548 152.734H281.48L284.392 145.766L278.75 131.674H282.052L286.082 142.594L290.268 131.674H293.336Z" fill="#152C5B"/>
<path d="M114.06 163.06L110.02 177H107.98L104.74 165.78L101.38 177L99.36 177.02L95.46 163.06H97.4L100.44 174.88L103.8 163.06H105.84L109.04 174.84L112.1 163.06H114.06ZM126.052 171.1C126.052 171.447 126.032 171.813 125.992 172.2H117.232C117.298 173.28 117.665 174.127 118.332 174.74C119.012 175.34 119.832 175.64 120.792 175.64C121.578 175.64 122.232 175.46 122.752 175.1C123.285 174.727 123.658 174.233 123.872 173.62H125.832C125.538 174.673 124.952 175.533 124.072 176.2C123.192 176.853 122.098 177.18 120.792 177.18C119.752 177.18 118.818 176.947 117.992 176.48C117.178 176.013 116.538 175.353 116.072 174.5C115.605 173.633 115.372 172.633 115.372 171.5C115.372 170.367 115.598 169.373 116.052 168.52C116.505 167.667 117.138 167.013 117.952 166.56C118.778 166.093 119.725 165.86 120.792 165.86C121.832 165.86 122.752 166.087 123.552 166.54C124.352 166.993 124.965 167.62 125.392 168.42C125.832 169.207 126.052 170.1 126.052 171.1ZM124.172 170.72C124.172 170.027 124.018 169.433 123.712 168.94C123.405 168.433 122.985 168.053 122.452 167.8C121.932 167.533 121.352 167.4 120.712 167.4C119.792 167.4 119.005 167.693 118.352 168.28C117.712 168.867 117.345 169.68 117.252 170.72H124.172ZM146.966 165.84C147.819 165.84 148.579 166.02 149.246 166.38C149.913 166.727 150.439 167.253 150.826 167.96C151.213 168.667 151.406 169.527 151.406 170.54V177H149.606V170.8C149.606 169.707 149.333 168.873 148.786 168.3C148.253 167.713 147.526 167.42 146.606 167.42C145.659 167.42 144.906 167.727 144.346 168.34C143.786 168.94 143.506 169.813 143.506 170.96V177H141.706V170.8C141.706 169.707 141.433 168.873 140.886 168.3C140.353 167.713 139.626 167.42 138.706 167.42C137.759 167.42 137.006 167.727 136.446 168.34C135.886 168.94 135.606 169.813 135.606 170.96V177H133.786V166.04H135.606V167.62C135.966 167.047 136.446 166.607 137.046 166.3C137.659 165.993 138.333 165.84 139.066 165.84C139.986 165.84 140.799 166.047 141.506 166.46C142.213 166.873 142.739 167.48 143.086 168.28C143.393 167.507 143.899 166.907 144.606 166.48C145.313 166.053 146.099 165.84 146.966 165.84ZM153.712 171.48C153.712 170.36 153.938 169.38 154.392 168.54C154.845 167.687 155.465 167.027 156.252 166.56C157.052 166.093 157.938 165.86 158.912 165.86C159.872 165.86 160.705 166.067 161.412 166.48C162.118 166.893 162.645 167.413 162.992 168.04V166.04H164.832V177H162.992V174.96C162.632 175.6 162.092 176.133 161.372 176.56C160.665 176.973 159.838 177.18 158.892 177.18C157.918 177.18 157.038 176.94 156.252 176.46C155.465 175.98 154.845 175.307 154.392 174.44C153.938 173.573 153.712 172.587 153.712 171.48ZM162.992 171.5C162.992 170.673 162.825 169.953 162.492 169.34C162.158 168.727 161.705 168.26 161.132 167.94C160.572 167.607 159.952 167.44 159.272 167.44C158.592 167.44 157.972 167.6 157.412 167.92C156.852 168.24 156.405 168.707 156.072 169.32C155.738 169.933 155.572 170.653 155.572 171.48C155.572 172.32 155.738 173.053 156.072 173.68C156.405 174.293 156.852 174.767 157.412 175.1C157.972 175.42 158.592 175.58 159.272 175.58C159.952 175.58 160.572 175.42 161.132 175.1C161.705 174.767 162.158 174.293 162.492 173.68C162.825 173.053 162.992 172.327 162.992 171.5ZM174.027 177L169.727 172.16V177H167.907V162.2H169.727V170.9L173.947 166.04H176.487L171.327 171.5L176.507 177H174.027ZM188.2 171.1C188.2 171.447 188.18 171.813 188.14 172.2H179.38C179.447 173.28 179.813 174.127 180.48 174.74C181.16 175.34 181.98 175.64 182.94 175.64C183.727 175.64 184.38 175.46 184.9 175.1C185.433 174.727 185.807 174.233 186.02 173.62H187.98C187.687 174.673 187.1 175.533 186.22 176.2C185.34 176.853 184.247 177.18 182.94 177.18C181.9 177.18 180.967 176.947 180.14 176.48C179.327 176.013 178.687 175.353 178.22 174.5C177.753 173.633 177.52 172.633 177.52 171.5C177.52 170.367 177.747 169.373 178.2 168.52C178.653 167.667 179.287 167.013 180.1 166.56C180.927 166.093 181.873 165.86 182.94 165.86C183.98 165.86 184.9 166.087 185.7 166.54C186.5 166.993 187.113 167.62 187.54 168.42C187.98 169.207 188.2 170.1 188.2 171.1ZM186.32 170.72C186.32 170.027 186.167 169.433 185.86 168.94C185.553 168.433 185.133 168.053 184.6 167.8C184.08 167.533 183.5 167.4 182.86 167.4C181.94 167.4 181.153 167.693 180.5 168.28C179.86 168.867 179.493 169.68 179.4 170.72H186.32ZM205.375 166.04L198.775 182.16H196.895L199.055 176.88L194.635 166.04H196.655L200.095 174.92L203.495 166.04H205.375ZM211.984 177.18C210.957 177.18 210.024 176.947 209.184 176.48C208.357 176.013 207.704 175.353 207.224 174.5C206.757 173.633 206.524 172.633 206.524 171.5C206.524 170.38 206.764 169.393 207.244 168.54C207.737 167.673 208.404 167.013 209.244 166.56C210.084 166.093 211.024 165.86 212.064 165.86C213.104 165.86 214.044 166.093 214.884 166.56C215.724 167.013 216.384 167.667 216.864 168.52C217.357 169.373 217.604 170.367 217.604 171.5C217.604 172.633 217.351 173.633 216.844 174.5C216.351 175.353 215.677 176.013 214.824 176.48C213.971 176.947 213.024 177.18 211.984 177.18ZM211.984 175.58C212.637 175.58 213.251 175.427 213.824 175.12C214.397 174.813 214.857 174.353 215.204 173.74C215.564 173.127 215.744 172.38 215.744 171.5C215.744 170.62 215.571 169.873 215.224 169.26C214.877 168.647 214.424 168.193 213.864 167.9C213.304 167.593 212.697 167.44 212.044 167.44C211.377 167.44 210.764 167.593 210.204 167.9C209.657 168.193 209.217 168.647 208.884 169.26C208.551 169.873 208.384 170.62 208.384 171.5C208.384 172.393 208.544 173.147 208.864 173.76C209.197 174.373 209.637 174.833 210.184 175.14C210.731 175.433 211.331 175.58 211.984 175.58ZM229.717 166.04V177H227.897V175.38C227.55 175.94 227.064 176.38 226.437 176.7C225.824 177.007 225.144 177.16 224.397 177.16C223.544 177.16 222.777 176.987 222.097 176.64C221.417 176.28 220.877 175.747 220.477 175.04C220.09 174.333 219.897 173.473 219.897 172.46V166.04H221.697V172.22C221.697 173.3 221.97 174.133 222.517 174.72C223.064 175.293 223.81 175.58 224.757 175.58C225.73 175.58 226.497 175.28 227.057 174.68C227.617 174.08 227.897 173.207 227.897 172.06V166.04H229.717ZM234.61 167.82C234.93 167.193 235.383 166.707 235.97 166.36C236.57 166.013 237.297 165.84 238.15 165.84V167.72H237.67C235.63 167.72 234.61 168.827 234.61 171.04V177H232.79V166.04H234.61V167.82ZM246.523 164.26C246.176 164.26 245.883 164.14 245.643 163.9C245.403 163.66 245.283 163.367 245.283 163.02C245.283 162.673 245.403 162.38 245.643 162.14C245.883 161.9 246.176 161.78 246.523 161.78C246.856 161.78 247.136 161.9 247.363 162.14C247.603 162.38 247.723 162.673 247.723 163.02C247.723 163.367 247.603 163.66 247.363 163.9C247.136 164.14 246.856 164.26 246.523 164.26ZM247.403 166.04V177H245.583V166.04H247.403ZM249.825 171.48C249.825 170.36 250.052 169.38 250.505 168.54C250.958 167.687 251.578 167.027 252.365 166.56C253.165 166.093 254.058 165.86 255.045 165.86C255.898 165.86 256.692 166.06 257.425 166.46C258.158 166.847 258.718 167.36 259.105 168V162.2H260.945V177H259.105V174.94C258.745 175.593 258.212 176.133 257.505 176.56C256.798 176.973 255.972 177.18 255.025 177.18C254.052 177.18 253.165 176.94 252.365 176.46C251.578 175.98 250.958 175.307 250.505 174.44C250.052 173.573 249.825 172.587 249.825 171.48ZM259.105 171.5C259.105 170.673 258.938 169.953 258.605 169.34C258.272 168.727 257.818 168.26 257.245 167.94C256.685 167.607 256.065 167.44 255.385 167.44C254.705 167.44 254.085 167.6 253.525 167.92C252.965 168.24 252.518 168.707 252.185 169.32C251.852 169.933 251.685 170.653 251.685 171.48C251.685 172.32 251.852 173.053 252.185 173.68C252.518 174.293 252.965 174.767 253.525 175.1C254.085 175.42 254.705 175.58 255.385 175.58C256.065 175.58 256.685 175.42 257.245 175.1C257.818 174.767 258.272 174.293 258.605 173.68C258.938 173.053 259.105 172.327 259.105 171.5ZM274.02 171.1C274.02 171.447 274 171.813 273.96 172.2H265.2C265.267 173.28 265.634 174.127 266.3 174.74C266.98 175.34 267.8 175.64 268.76 175.64C269.547 175.64 270.2 175.46 270.72 175.1C271.254 174.727 271.627 174.233 271.84 173.62H273.8C273.507 174.673 272.92 175.533 272.04 176.2C271.16 176.853 270.067 177.18 268.76 177.18C267.72 177.18 266.787 176.947 265.96 176.48C265.147 176.013 264.507 175.353 264.04 174.5C263.574 173.633 263.34 172.633 263.34 171.5C263.34 170.367 263.567 169.373 264.02 168.52C264.474 167.667 265.107 167.013 265.92 166.56C266.747 166.093 267.694 165.86 268.76 165.86C269.8 165.86 270.72 166.087 271.52 166.54C272.32 166.993 272.934 167.62 273.36 168.42C273.8 169.207 274.02 170.1 274.02 171.1ZM272.14 170.72C272.14 170.027 271.987 169.433 271.68 168.94C271.374 168.433 270.954 168.053 270.42 167.8C269.9 167.533 269.32 167.4 268.68 167.4C267.76 167.4 266.974 167.693 266.32 168.28C265.68 168.867 265.314 169.68 265.22 170.72H272.14ZM275.743 171.48C275.743 170.36 275.969 169.38 276.423 168.54C276.876 167.687 277.496 167.027 278.283 166.56C279.083 166.093 279.969 165.86 280.943 165.86C281.903 165.86 282.736 166.067 283.443 166.48C284.149 166.893 284.676 167.413 285.023 168.04V166.04H286.863V177H285.023V174.96C284.663 175.6 284.123 176.133 283.403 176.56C282.696 176.973 281.869 177.18 280.923 177.18C279.949 177.18 279.069 176.94 278.283 176.46C277.496 175.98 276.876 175.307 276.423 174.44C275.969 173.573 275.743 172.587 275.743 171.48ZM285.023 171.5C285.023 170.673 284.856 169.953 284.523 169.34C284.189 168.727 283.736 168.26 283.163 167.94C282.603 167.607 281.983 167.44 281.303 167.44C280.623 167.44 280.003 167.6 279.443 167.92C278.883 168.24 278.436 168.707 278.103 169.32C277.769 169.933 277.603 170.653 277.603 171.48C277.603 172.32 277.769 173.053 278.103 173.68C278.436 174.293 278.883 174.767 279.443 175.1C280.003 175.42 280.623 175.58 281.303 175.58C281.983 175.58 282.603 175.42 283.163 175.1C283.736 174.767 284.189 174.293 284.523 173.68C284.856 173.053 285.023 172.327 285.023 171.5ZM291.758 162.2V177H289.938V162.2H291.758ZM302.012 167.82C302.332 167.193 302.786 166.707 303.372 166.36C303.972 166.013 304.699 165.84 305.552 165.84V167.72H305.072C303.032 167.72 302.012 168.827 302.012 171.04V177H300.192V166.04H302.012V167.82ZM312.433 177.18C311.407 177.18 310.473 176.947 309.633 176.48C308.807 176.013 308.153 175.353 307.673 174.5C307.207 173.633 306.973 172.633 306.973 171.5C306.973 170.38 307.213 169.393 307.693 168.54C308.187 167.673 308.853 167.013 309.693 166.56C310.533 166.093 311.473 165.86 312.513 165.86C313.553 165.86 314.493 166.093 315.333 166.56C316.173 167.013 316.833 167.667 317.313 168.52C317.807 169.373 318.053 170.367 318.053 171.5C318.053 172.633 317.8 173.633 317.293 174.5C316.8 175.353 316.127 176.013 315.273 176.48C314.42 176.947 313.473 177.18 312.433 177.18ZM312.433 175.58C313.087 175.58 313.7 175.427 314.273 175.12C314.847 174.813 315.307 174.353 315.653 173.74C316.013 173.127 316.193 172.38 316.193 171.5C316.193 170.62 316.02 169.873 315.673 169.26C315.327 168.647 314.873 168.193 314.313 167.9C313.753 167.593 313.147 167.44 312.493 167.44C311.827 167.44 311.213 167.593 310.653 167.9C310.107 168.193 309.667 168.647 309.333 169.26C309 169.873 308.833 170.62 308.833 171.5C308.833 172.393 308.993 173.147 309.313 173.76C309.647 174.373 310.087 174.833 310.633 175.14C311.18 175.433 311.78 175.58 312.433 175.58ZM325.226 177.18C324.2 177.18 323.266 176.947 322.426 176.48C321.6 176.013 320.946 175.353 320.466 174.5C320 173.633 319.766 172.633 319.766 171.5C319.766 170.38 320.006 169.393 320.486 168.54C320.98 167.673 321.646 167.013 322.486 166.56C323.326 166.093 324.266 165.86 325.306 165.86C326.346 165.86 327.286 166.093 328.126 166.56C328.966 167.013 329.626 167.667 330.106 168.52C330.6 169.373 330.846 170.367 330.846 171.5C330.846 172.633 330.593 173.633 330.086 174.5C329.593 175.353 328.92 176.013 328.066 176.48C327.213 176.947 326.266 177.18 325.226 177.18ZM325.226 175.58C325.88 175.58 326.493 175.427 327.066 175.12C327.64 174.813 328.1 174.353 328.446 173.74C328.806 173.127 328.986 172.38 328.986 171.5C328.986 170.62 328.813 169.873 328.466 169.26C328.12 168.647 327.666 168.193 327.106 167.9C326.546 167.593 325.94 167.44 325.286 167.44C324.62 167.44 324.006 167.593 323.446 167.9C322.9 168.193 322.46 168.647 322.126 169.26C321.793 169.873 321.626 170.62 321.626 171.5C321.626 172.393 321.786 173.147 322.106 173.76C322.44 174.373 322.88 174.833 323.426 175.14C323.973 175.433 324.573 175.58 325.226 175.58ZM346.419 165.84C347.273 165.84 348.033 166.02 348.699 166.38C349.366 166.727 349.893 167.253 350.279 167.96C350.666 168.667 350.859 169.527 350.859 170.54V177H349.059V170.8C349.059 169.707 348.786 168.873 348.239 168.3C347.706 167.713 346.979 167.42 346.059 167.42C345.113 167.42 344.359 167.727 343.799 168.34C343.239 168.94 342.959 169.813 342.959 170.96V177H341.159V170.8C341.159 169.707 340.886 168.873 340.339 168.3C339.806 167.713 339.079 167.42 338.159 167.42C337.213 167.42 336.459 167.727 335.899 168.34C335.339 168.94 335.059 169.813 335.059 170.96V177H333.239V166.04H335.059V167.62C335.419 167.047 335.899 166.607 336.499 166.3C337.113 165.993 337.786 165.84 338.519 165.84C339.439 165.84 340.253 166.047 340.959 166.46C341.666 166.873 342.193 167.48 342.539 168.28C342.846 167.507 343.353 166.907 344.059 166.48C344.766 166.053 345.553 165.84 346.419 165.84ZM119.688 198.06C120.048 197.433 120.581 196.913 121.288 196.5C122.008 196.073 122.841 195.86 123.788 195.86C124.761 195.86 125.641 196.093 126.428 196.56C127.228 197.027 127.855 197.687 128.308 198.54C128.761 199.38 128.988 200.36 128.988 201.48C128.988 202.587 128.761 203.573 128.308 204.44C127.855 205.307 127.228 205.98 126.428 206.46C125.641 206.94 124.761 207.18 123.788 207.18C122.855 207.18 122.028 206.973 121.308 206.56C120.601 206.133 120.061 205.607 119.688 204.98V212.2H117.868V196.04H119.688V198.06ZM127.128 201.48C127.128 200.653 126.961 199.933 126.628 199.32C126.295 198.707 125.841 198.24 125.268 197.92C124.708 197.6 124.088 197.44 123.408 197.44C122.741 197.44 122.121 197.607 121.548 197.94C120.988 198.26 120.535 198.733 120.188 199.36C119.855 199.973 119.688 200.687 119.688 201.5C119.688 202.327 119.855 203.053 120.188 203.68C120.535 204.293 120.988 204.767 121.548 205.1C122.121 205.42 122.741 205.58 123.408 205.58C124.088 205.58 124.708 205.42 125.268 205.1C125.841 204.767 126.295 204.293 126.628 203.68C126.961 203.053 127.128 202.32 127.128 201.48ZM130.704 201.48C130.704 200.36 130.93 199.38 131.384 198.54C131.837 197.687 132.457 197.027 133.244 196.56C134.044 196.093 134.93 195.86 135.904 195.86C136.864 195.86 137.697 196.067 138.404 196.48C139.11 196.893 139.637 197.413 139.984 198.04V196.04H141.824V207H139.984V204.96C139.624 205.6 139.084 206.133 138.364 206.56C137.657 206.973 136.83 207.18 135.884 207.18C134.91 207.18 134.03 206.94 133.244 206.46C132.457 205.98 131.837 205.307 131.384 204.44C130.93 203.573 130.704 202.587 130.704 201.48ZM139.984 201.5C139.984 200.673 139.817 199.953 139.484 199.34C139.15 198.727 138.697 198.26 138.124 197.94C137.564 197.607 136.944 197.44 136.264 197.44C135.584 197.44 134.964 197.6 134.404 197.92C133.844 198.24 133.397 198.707 133.064 199.32C132.73 199.933 132.564 200.653 132.564 201.48C132.564 202.32 132.73 203.053 133.064 203.68C133.397 204.293 133.844 204.767 134.404 205.1C134.964 205.42 135.584 205.58 136.264 205.58C136.944 205.58 137.564 205.42 138.124 205.1C138.697 204.767 139.15 204.293 139.484 203.68C139.817 203.053 139.984 202.327 139.984 201.5ZM146.719 197.82C147.039 197.193 147.493 196.707 148.079 196.36C148.679 196.013 149.406 195.84 150.259 195.84V197.72H149.779C147.739 197.72 146.719 198.827 146.719 201.04V207H144.899V196.04H146.719V197.82ZM154.58 197.54V204C154.58 204.533 154.694 204.913 154.92 205.14C155.147 205.353 155.54 205.46 156.1 205.46H157.44V207H155.8C154.787 207 154.027 206.767 153.52 206.3C153.014 205.833 152.76 205.067 152.76 204V197.54H151.34V196.04H152.76V193.28H154.58V196.04H157.44V197.54H154.58ZM164.985 195.84C166.319 195.84 167.399 196.247 168.225 197.06C169.052 197.86 169.465 199.02 169.465 200.54V207H167.665V200.8C167.665 199.707 167.392 198.873 166.845 198.3C166.299 197.713 165.552 197.42 164.605 197.42C163.645 197.42 162.879 197.72 162.305 198.32C161.745 198.92 161.465 199.793 161.465 200.94V207H159.645V196.04H161.465V197.6C161.825 197.04 162.312 196.607 162.925 196.3C163.552 195.993 164.239 195.84 164.985 195.84ZM182.438 201.1C182.438 201.447 182.418 201.813 182.378 202.2H173.618C173.685 203.28 174.052 204.127 174.718 204.74C175.398 205.34 176.218 205.64 177.178 205.64C177.965 205.64 178.618 205.46 179.138 205.1C179.672 204.727 180.045 204.233 180.258 203.62H182.218C181.925 204.673 181.338 205.533 180.458 206.2C179.578 206.853 178.485 207.18 177.178 207.18C176.138 207.18 175.205 206.947 174.378 206.48C173.565 206.013 172.925 205.353 172.458 204.5C171.992 203.633 171.758 202.633 171.758 201.5C171.758 200.367 171.985 199.373 172.438 198.52C172.892 197.667 173.525 197.013 174.338 196.56C175.165 196.093 176.112 195.86 177.178 195.86C178.218 195.86 179.138 196.087 179.938 196.54C180.738 196.993 181.352 197.62 181.778 198.42C182.218 199.207 182.438 200.1 182.438 201.1ZM180.558 200.72C180.558 200.027 180.405 199.433 180.098 198.94C179.792 198.433 179.372 198.053 178.838 197.8C178.318 197.533 177.738 197.4 177.098 197.4C176.178 197.4 175.392 197.693 174.738 198.28C174.098 198.867 173.732 199.68 173.638 200.72H180.558ZM186.661 197.82C186.981 197.193 187.434 196.707 188.021 196.36C188.621 196.013 189.347 195.84 190.201 195.84V197.72H189.721C187.681 197.72 186.661 198.827 186.661 201.04V207H184.841V196.04H186.661V197.82ZM201.514 207.18C200.674 207.18 199.92 207.04 199.254 206.76C198.587 206.467 198.06 206.067 197.674 205.56C197.287 205.04 197.074 204.447 197.034 203.78H198.914C198.967 204.327 199.22 204.773 199.674 205.12C200.14 205.467 200.747 205.64 201.494 205.64C202.187 205.64 202.734 205.487 203.134 205.18C203.534 204.873 203.734 204.487 203.734 204.02C203.734 203.54 203.52 203.187 203.094 202.96C202.667 202.72 202.007 202.487 201.114 202.26C200.3 202.047 199.634 201.833 199.114 201.62C198.607 201.393 198.167 201.067 197.794 200.64C197.434 200.2 197.254 199.627 197.254 198.92C197.254 198.36 197.42 197.847 197.754 197.38C198.087 196.913 198.56 196.547 199.174 196.28C199.787 196 200.487 195.86 201.274 195.86C202.487 195.86 203.467 196.167 204.214 196.78C204.96 197.393 205.36 198.233 205.414 199.3H203.594C203.554 198.727 203.32 198.267 202.894 197.92C202.48 197.573 201.92 197.4 201.214 197.4C200.56 197.4 200.04 197.54 199.654 197.82C199.267 198.1 199.074 198.467 199.074 198.92C199.074 199.28 199.187 199.58 199.414 199.82C199.654 200.047 199.947 200.233 200.294 200.38C200.654 200.513 201.147 200.667 201.774 200.84C202.56 201.053 203.2 201.267 203.694 201.48C204.187 201.68 204.607 201.987 204.954 202.4C205.314 202.813 205.5 203.353 205.514 204.02C205.514 204.62 205.347 205.16 205.014 205.64C204.68 206.12 204.207 206.5 203.594 206.78C202.994 207.047 202.3 207.18 201.514 207.18ZM218.083 201.1C218.083 201.447 218.063 201.813 218.023 202.2H209.263C209.33 203.28 209.696 204.127 210.363 204.74C211.043 205.34 211.863 205.64 212.823 205.64C213.61 205.64 214.263 205.46 214.783 205.1C215.316 204.727 215.69 204.233 215.903 203.62H217.863C217.57 204.673 216.983 205.533 216.103 206.2C215.223 206.853 214.13 207.18 212.823 207.18C211.783 207.18 210.85 206.947 210.023 206.48C209.21 206.013 208.57 205.353 208.103 204.5C207.636 203.633 207.403 202.633 207.403 201.5C207.403 200.367 207.63 199.373 208.083 198.52C208.536 197.667 209.17 197.013 209.983 196.56C210.81 196.093 211.756 195.86 212.823 195.86C213.863 195.86 214.783 196.087 215.583 196.54C216.383 196.993 216.996 197.62 217.423 198.42C217.863 199.207 218.083 200.1 218.083 201.1ZM216.203 200.72C216.203 200.027 216.05 199.433 215.743 198.94C215.436 198.433 215.016 198.053 214.483 197.8C213.963 197.533 213.383 197.4 212.743 197.4C211.823 197.4 211.036 197.693 210.383 198.28C209.743 198.867 209.376 199.68 209.283 200.72H216.203ZM219.805 201.48C219.805 200.36 220.032 199.38 220.485 198.54C220.939 197.687 221.559 197.027 222.345 196.56C223.145 196.093 224.032 195.86 225.005 195.86C225.965 195.86 226.799 196.067 227.505 196.48C228.212 196.893 228.739 197.413 229.085 198.04V196.04H230.925V207H229.085V204.96C228.725 205.6 228.185 206.133 227.465 206.56C226.759 206.973 225.932 207.18 224.985 207.18C224.012 207.18 223.132 206.94 222.345 206.46C221.559 205.98 220.939 205.307 220.485 204.44C220.032 203.573 219.805 202.587 219.805 201.48ZM229.085 201.5C229.085 200.673 228.919 199.953 228.585 199.34C228.252 198.727 227.799 198.26 227.225 197.94C226.665 197.607 226.045 197.44 225.365 197.44C224.685 197.44 224.065 197.6 223.505 197.92C222.945 198.24 222.499 198.707 222.165 199.32C221.832 199.933 221.665 200.653 221.665 201.48C221.665 202.32 221.832 203.053 222.165 203.68C222.499 204.293 222.945 204.767 223.505 205.1C224.065 205.42 224.685 205.58 225.365 205.58C226.045 205.58 226.665 205.42 227.225 205.1C227.799 204.767 228.252 204.293 228.585 203.68C228.919 203.053 229.085 202.327 229.085 201.5ZM235.821 197.82C236.141 197.193 236.594 196.707 237.181 196.36C237.781 196.013 238.508 195.84 239.361 195.84V197.72H238.881C236.841 197.72 235.821 198.827 235.821 201.04V207H234.001V196.04H235.821V197.82ZM240.782 201.5C240.782 200.367 241.009 199.38 241.462 198.54C241.915 197.687 242.542 197.027 243.342 196.56C244.155 196.093 245.082 195.86 246.122 195.86C247.469 195.86 248.575 196.187 249.442 196.84C250.322 197.493 250.902 198.4 251.182 199.56H249.222C249.035 198.893 248.669 198.367 248.122 197.98C247.589 197.593 246.922 197.4 246.122 197.4C245.082 197.4 244.242 197.76 243.602 198.48C242.962 199.187 242.642 200.193 242.642 201.5C242.642 202.82 242.962 203.84 243.602 204.56C244.242 205.28 245.082 205.64 246.122 205.64C246.922 205.64 247.589 205.453 248.122 205.08C248.655 204.707 249.022 204.173 249.222 203.48H251.182C250.889 204.6 250.302 205.5 249.422 206.18C248.542 206.847 247.442 207.18 246.122 207.18C245.082 207.18 244.155 206.947 243.342 206.48C242.542 206.013 241.915 205.353 241.462 204.5C241.009 203.647 240.782 202.647 240.782 201.5ZM259.05 195.84C259.877 195.84 260.624 196.02 261.29 196.38C261.957 196.727 262.477 197.253 262.85 197.96C263.237 198.667 263.43 199.527 263.43 200.54V207H261.63V200.8C261.63 199.707 261.357 198.873 260.81 198.3C260.264 197.713 259.517 197.42 258.57 197.42C257.61 197.42 256.844 197.72 256.27 198.32C255.71 198.92 255.43 199.793 255.43 200.94V207H253.61V192.2H255.43V197.6C255.79 197.04 256.284 196.607 256.91 196.3C257.55 195.993 258.264 195.84 259.05 195.84ZM281.735 201.1C281.735 201.447 281.715 201.813 281.675 202.2H272.915C272.982 203.28 273.349 204.127 274.015 204.74C274.695 205.34 275.515 205.64 276.475 205.64C277.262 205.64 277.915 205.46 278.435 205.1C278.969 204.727 279.342 204.233 279.555 203.62H281.515C281.222 204.673 280.635 205.533 279.755 206.2C278.875 206.853 277.782 207.18 276.475 207.18C275.435 207.18 274.502 206.947 273.675 206.48C272.862 206.013 272.222 205.353 271.755 204.5C271.289 203.633 271.055 202.633 271.055 201.5C271.055 200.367 271.282 199.373 271.735 198.52C272.189 197.667 272.822 197.013 273.635 196.56C274.462 196.093 275.409 195.86 276.475 195.86C277.515 195.86 278.435 196.087 279.235 196.54C280.035 196.993 280.649 197.62 281.075 198.42C281.515 199.207 281.735 200.1 281.735 201.1ZM279.855 200.72C279.855 200.027 279.702 199.433 279.395 198.94C279.089 198.433 278.669 198.053 278.135 197.8C277.615 197.533 277.035 197.4 276.395 197.4C275.475 197.4 274.689 197.693 274.035 198.28C273.395 198.867 273.029 199.68 272.935 200.72H279.855ZM283.458 201.48C283.458 200.36 283.684 199.38 284.138 198.54C284.591 197.687 285.211 197.027 285.998 196.56C286.798 196.093 287.684 195.86 288.658 195.86C289.618 195.86 290.451 196.067 291.158 196.48C291.864 196.893 292.391 197.413 292.738 198.04V196.04H294.578V207H292.738V204.96C292.378 205.6 291.838 206.133 291.118 206.56C290.411 206.973 289.584 207.18 288.638 207.18C287.664 207.18 286.784 206.94 285.998 206.46C285.211 205.98 284.591 205.307 284.138 204.44C283.684 203.573 283.458 202.587 283.458 201.48ZM292.738 201.5C292.738 200.673 292.571 199.953 292.238 199.34C291.904 198.727 291.451 198.26 290.878 197.94C290.318 197.607 289.698 197.44 289.018 197.44C288.338 197.44 287.718 197.6 287.158 197.92C286.598 198.24 286.151 198.707 285.818 199.32C285.484 199.933 285.318 200.653 285.318 201.48C285.318 202.32 285.484 203.053 285.818 203.68C286.151 204.293 286.598 204.767 287.158 205.1C287.718 205.42 288.338 205.58 289.018 205.58C289.698 205.58 290.318 205.42 290.878 205.1C291.451 204.767 291.904 204.293 292.238 203.68C292.571 203.053 292.738 202.327 292.738 201.5ZM301.533 207.18C300.693 207.18 299.94 207.04 299.273 206.76C298.607 206.467 298.08 206.067 297.693 205.56C297.307 205.04 297.093 204.447 297.053 203.78H298.933C298.987 204.327 299.24 204.773 299.693 205.12C300.16 205.467 300.767 205.64 301.513 205.64C302.207 205.64 302.753 205.487 303.153 205.18C303.553 204.873 303.753 204.487 303.753 204.02C303.753 203.54 303.54 203.187 303.113 202.96C302.687 202.72 302.027 202.487 301.133 202.26C300.32 202.047 299.653 201.833 299.133 201.62C298.627 201.393 298.187 201.067 297.813 200.64C297.453 200.2 297.273 199.627 297.273 198.92C297.273 198.36 297.44 197.847 297.773 197.38C298.107 196.913 298.58 196.547 299.193 196.28C299.807 196 300.507 195.86 301.293 195.86C302.507 195.86 303.487 196.167 304.233 196.78C304.98 197.393 305.38 198.233 305.433 199.3H303.613C303.573 198.727 303.34 198.267 302.913 197.92C302.5 197.573 301.94 197.4 301.233 197.4C300.58 197.4 300.06 197.54 299.673 197.82C299.287 198.1 299.093 198.467 299.093 198.92C299.093 199.28 299.207 199.58 299.433 199.82C299.673 200.047 299.967 200.233 300.313 200.38C300.673 200.513 301.167 200.667 301.793 200.84C302.58 201.053 303.22 201.267 303.713 201.48C304.207 201.68 304.627 201.987 304.973 202.4C305.333 202.813 305.52 203.353 305.533 204.02C305.533 204.62 305.367 205.16 305.033 205.64C304.7 206.12 304.227 206.5 303.613 206.78C303.013 207.047 302.32 207.18 301.533 207.18ZM317.543 196.04L310.943 212.16H309.062L311.223 206.88L306.803 196.04H308.823L312.263 204.92L315.663 196.04H317.543ZM143.848 231.48C143.848 230.36 144.075 229.38 144.528 228.54C144.982 227.687 145.602 227.027 146.388 226.56C147.188 226.093 148.075 225.86 149.048 225.86C150.008 225.86 150.842 226.067 151.548 226.48C152.255 226.893 152.782 227.413 153.128 228.04V226.04H154.968V237H153.128V234.96C152.768 235.6 152.228 236.133 151.508 236.56C150.802 236.973 149.975 237.18 149.028 237.18C148.055 237.18 147.175 236.94 146.388 236.46C145.602 235.98 144.982 235.307 144.528 234.44C144.075 233.573 143.848 232.587 143.848 231.48ZM153.128 231.5C153.128 230.673 152.962 229.953 152.628 229.34C152.295 228.727 151.842 228.26 151.268 227.94C150.708 227.607 150.088 227.44 149.408 227.44C148.728 227.44 148.108 227.6 147.548 227.92C146.988 228.24 146.542 228.707 146.208 229.32C145.875 229.933 145.708 230.653 145.708 231.48C145.708 232.32 145.875 233.053 146.208 233.68C146.542 234.293 146.988 234.767 147.548 235.1C148.108 235.42 148.728 235.58 149.408 235.58C150.088 235.58 150.708 235.42 151.268 235.1C151.842 234.767 152.295 234.293 152.628 233.68C152.962 233.053 153.128 232.327 153.128 231.5ZM163.384 225.84C164.717 225.84 165.797 226.247 166.624 227.06C167.451 227.86 167.864 229.02 167.864 230.54V237H166.064V230.8C166.064 229.707 165.791 228.873 165.244 228.3C164.697 227.713 163.951 227.42 163.004 227.42C162.044 227.42 161.277 227.72 160.704 228.32C160.144 228.92 159.864 229.793 159.864 230.94V237H158.044V226.04H159.864V227.6C160.224 227.04 160.711 226.607 161.324 226.3C161.951 225.993 162.637 225.84 163.384 225.84ZM170.157 231.48C170.157 230.36 170.384 229.38 170.837 228.54C171.29 227.687 171.91 227.027 172.697 226.56C173.497 226.093 174.39 225.86 175.377 225.86C176.23 225.86 177.024 226.06 177.757 226.46C178.49 226.847 179.05 227.36 179.437 228V222.2H181.277V237H179.437V234.94C179.077 235.593 178.544 236.133 177.837 236.56C177.13 236.973 176.304 237.18 175.357 237.18C174.384 237.18 173.497 236.94 172.697 236.46C171.91 235.98 171.29 235.307 170.837 234.44C170.384 233.573 170.157 232.587 170.157 231.48ZM179.437 231.5C179.437 230.673 179.27 229.953 178.937 229.34C178.604 228.727 178.15 228.26 177.577 227.94C177.017 227.607 176.397 227.44 175.717 227.44C175.037 227.44 174.417 227.6 173.857 227.92C173.297 228.24 172.85 228.707 172.517 229.32C172.184 229.933 172.017 230.653 172.017 231.48C172.017 232.32 172.184 233.053 172.517 233.68C172.85 234.293 173.297 234.767 173.857 235.1C174.417 235.42 175.037 235.58 175.717 235.58C176.397 235.58 177.017 235.42 177.577 235.1C178.15 234.767 178.604 234.293 178.937 233.68C179.27 233.053 179.437 232.327 179.437 231.5ZM195.125 225.84C195.951 225.84 196.698 226.02 197.365 226.38C198.031 226.727 198.551 227.253 198.925 227.96C199.311 228.667 199.505 229.527 199.505 230.54V237H197.705V230.8C197.705 229.707 197.431 228.873 196.885 228.3C196.338 227.713 195.591 227.42 194.645 227.42C193.685 227.42 192.918 227.72 192.345 228.32C191.785 228.92 191.505 229.793 191.505 230.94V237H189.685V222.2H191.505V227.6C191.865 227.04 192.358 226.607 192.985 226.3C193.625 225.993 194.338 225.84 195.125 225.84ZM201.798 231.48C201.798 230.36 202.024 229.38 202.478 228.54C202.931 227.687 203.551 227.027 204.338 226.56C205.138 226.093 206.024 225.86 206.998 225.86C207.958 225.86 208.791 226.067 209.498 226.48C210.204 226.893 210.731 227.413 211.078 228.04V226.04H212.918V237H211.078V234.96C210.718 235.6 210.178 236.133 209.458 236.56C208.751 236.973 207.924 237.18 206.978 237.18C206.004 237.18 205.124 236.94 204.338 236.46C203.551 235.98 202.931 235.307 202.478 234.44C202.024 233.573 201.798 232.587 201.798 231.48ZM211.078 231.5C211.078 230.673 210.911 229.953 210.578 229.34C210.244 228.727 209.791 228.26 209.218 227.94C208.658 227.607 208.038 227.44 207.358 227.44C206.678 227.44 206.058 227.6 205.498 227.92C204.938 228.24 204.491 228.707 204.158 229.32C203.824 229.933 203.658 230.653 203.658 231.48C203.658 232.32 203.824 233.053 204.158 233.68C204.491 234.293 204.938 234.767 205.498 235.1C206.058 235.42 206.678 235.58 207.358 235.58C208.038 235.58 208.658 235.42 209.218 235.1C209.791 234.767 210.244 234.293 210.578 233.68C210.911 233.053 211.078 232.327 211.078 231.5ZM219.873 237.18C219.033 237.18 218.28 237.04 217.613 236.76C216.946 236.467 216.42 236.067 216.033 235.56C215.646 235.04 215.433 234.447 215.393 233.78H217.273C217.326 234.327 217.58 234.773 218.033 235.12C218.5 235.467 219.106 235.64 219.853 235.64C220.546 235.64 221.093 235.487 221.493 235.18C221.893 234.873 222.093 234.487 222.093 234.02C222.093 233.54 221.88 233.187 221.453 232.96C221.026 232.72 220.366 232.487 219.473 232.26C218.66 232.047 217.993 231.833 217.473 231.62C216.966 231.393 216.526 231.067 216.153 230.64C215.793 230.2 215.613 229.627 215.613 228.92C215.613 228.36 215.78 227.847 216.113 227.38C216.446 226.913 216.92 226.547 217.533 226.28C218.146 226 218.846 225.86 219.633 225.86C220.846 225.86 221.826 226.167 222.573 226.78C223.32 227.393 223.72 228.233 223.773 229.3H221.953C221.913 228.727 221.68 228.267 221.253 227.92C220.84 227.573 220.28 227.4 219.573 227.4C218.92 227.4 218.4 227.54 218.013 227.82C217.626 228.1 217.433 228.467 217.433 228.92C217.433 229.28 217.546 229.58 217.773 229.82C218.013 230.047 218.306 230.233 218.653 230.38C219.013 230.513 219.506 230.667 220.133 230.84C220.92 231.053 221.56 231.267 222.053 231.48C222.546 231.68 222.966 231.987 223.313 232.4C223.673 232.813 223.86 233.353 223.873 234.02C223.873 234.62 223.706 235.16 223.373 235.64C223.04 236.12 222.566 236.5 221.953 236.78C221.353 237.047 220.66 237.18 219.873 237.18ZM230.322 237.18C229.482 237.18 228.729 237.04 228.062 236.76C227.396 236.467 226.869 236.067 226.482 235.56C226.096 235.04 225.882 234.447 225.842 233.78H227.722C227.776 234.327 228.029 234.773 228.482 235.12C228.949 235.467 229.556 235.64 230.302 235.64C230.996 235.64 231.542 235.487 231.942 235.18C232.342 234.873 232.542 234.487 232.542 234.02C232.542 233.54 232.329 233.187 231.902 232.96C231.476 232.72 230.816 232.487 229.922 232.26C229.109 232.047 228.442 231.833 227.922 231.62C227.416 231.393 226.976 231.067 226.602 230.64C226.242 230.2 226.062 229.627 226.062 228.92C226.062 228.36 226.229 227.847 226.562 227.38C226.896 226.913 227.369 226.547 227.982 226.28C228.596 226 229.296 225.86 230.082 225.86C231.296 225.86 232.276 226.167 233.022 226.78C233.769 227.393 234.169 228.233 234.222 229.3H232.402C232.362 228.727 232.129 228.267 231.702 227.92C231.289 227.573 230.729 227.4 230.022 227.4C229.369 227.4 228.849 227.54 228.462 227.82C228.076 228.1 227.882 228.467 227.882 228.92C227.882 229.28 227.996 229.58 228.222 229.82C228.462 230.047 228.756 230.233 229.102 230.38C229.462 230.513 229.956 230.667 230.582 230.84C231.369 231.053 232.009 231.267 232.502 231.48C232.996 231.68 233.416 231.987 233.762 232.4C234.122 232.813 234.309 233.353 234.322 234.02C234.322 234.62 234.156 235.16 233.822 235.64C233.489 236.12 233.016 236.5 232.402 236.78C231.802 237.047 231.109 237.18 230.322 237.18ZM238.712 222.2V237H236.892V222.2H238.712ZM251.813 231.1C251.813 231.447 251.793 231.813 251.753 232.2H242.993C243.06 233.28 243.427 234.127 244.093 234.74C244.773 235.34 245.593 235.64 246.553 235.64C247.34 235.64 247.993 235.46 248.513 235.1C249.047 234.727 249.42 234.233 249.633 233.62H251.593C251.3 234.673 250.713 235.533 249.833 236.2C248.953 236.853 247.86 237.18 246.553 237.18C245.513 237.18 244.58 236.947 243.753 236.48C242.94 236.013 242.3 235.353 241.833 234.5C241.367 233.633 241.133 232.633 241.133 231.5C241.133 230.367 241.36 229.373 241.813 228.52C242.267 227.667 242.9 227.013 243.713 226.56C244.54 226.093 245.487 225.86 246.553 225.86C247.593 225.86 248.513 226.087 249.313 226.54C250.113 226.993 250.727 227.62 251.153 228.42C251.593 229.207 251.813 230.1 251.813 231.1ZM249.933 230.72C249.933 230.027 249.78 229.433 249.473 228.94C249.167 228.433 248.747 228.053 248.213 227.8C247.693 227.533 247.113 227.4 246.473 227.4C245.553 227.4 244.767 227.693 244.113 228.28C243.473 228.867 243.107 229.68 243.013 230.72H249.933ZM264.008 227.54H261.708V237H259.888V227.54H258.468V226.04H259.888V225.26C259.888 224.033 260.201 223.14 260.828 222.58C261.468 222.007 262.488 221.72 263.888 221.72V223.24C263.088 223.24 262.521 223.4 262.188 223.72C261.868 224.027 261.708 224.54 261.708 225.26V226.04H264.008V227.54ZM267.95 227.82C268.27 227.193 268.723 226.707 269.31 226.36C269.91 226.013 270.637 225.84 271.49 225.84V227.72H271.01C268.97 227.72 267.95 228.827 267.95 231.04V237H266.13V226.04H267.95V227.82ZM283.591 231.1C283.591 231.447 283.571 231.813 283.531 232.2H274.771C274.837 233.28 275.204 234.127 275.871 234.74C276.551 235.34 277.371 235.64 278.331 235.64C279.117 235.64 279.771 235.46 280.291 235.1C280.824 234.727 281.197 234.233 281.411 233.62H283.371C283.077 234.673 282.491 235.533 281.611 236.2C280.731 236.853 279.637 237.18 278.331 237.18C277.291 237.18 276.357 236.947 275.531 236.48C274.717 236.013 274.077 235.353 273.611 234.5C273.144 233.633 272.911 232.633 272.911 231.5C272.911 230.367 273.137 229.373 273.591 228.52C274.044 227.667 274.677 227.013 275.491 226.56C276.317 226.093 277.264 225.86 278.331 225.86C279.371 225.86 280.291 226.087 281.091 226.54C281.891 226.993 282.504 227.62 282.931 228.42C283.371 229.207 283.591 230.1 283.591 231.1ZM281.711 230.72C281.711 230.027 281.557 229.433 281.251 228.94C280.944 228.433 280.524 228.053 279.991 227.8C279.471 227.533 278.891 227.4 278.251 227.4C277.331 227.4 276.544 227.693 275.891 228.28C275.251 228.867 274.884 229.68 274.791 230.72H281.711ZM295.993 231.1C295.993 231.447 295.973 231.813 295.933 232.2H287.173C287.24 233.28 287.606 234.127 288.273 234.74C288.953 235.34 289.773 235.64 290.733 235.64C291.52 235.64 292.173 235.46 292.693 235.1C293.226 234.727 293.6 234.233 293.813 233.62H295.773C295.48 234.673 294.893 235.533 294.013 236.2C293.133 236.853 292.04 237.18 290.733 237.18C289.693 237.18 288.76 236.947 287.933 236.48C287.12 236.013 286.48 235.353 286.013 234.5C285.546 233.633 285.313 232.633 285.313 231.5C285.313 230.367 285.54 229.373 285.993 228.52C286.446 227.667 287.08 227.013 287.893 226.56C288.72 226.093 289.666 225.86 290.733 225.86C291.773 225.86 292.693 226.087 293.493 226.54C294.293 226.993 294.906 227.62 295.333 228.42C295.773 229.207 295.993 230.1 295.993 231.1ZM294.113 230.72C294.113 230.027 293.96 229.433 293.653 228.94C293.346 228.433 292.926 228.053 292.393 227.8C291.873 227.533 291.293 227.4 290.653 227.4C289.733 227.4 288.946 227.693 288.293 228.28C287.653 228.867 287.286 229.68 287.193 230.72H294.113ZM298.975 237.12C298.629 237.12 298.335 237 298.095 236.76C297.855 236.52 297.735 236.227 297.735 235.88C297.735 235.533 297.855 235.24 298.095 235C298.335 234.76 298.629 234.64 298.975 234.64C299.309 234.64 299.589 234.76 299.815 235C300.055 235.24 300.175 235.533 300.175 235.88C300.175 236.227 300.055 236.52 299.815 236.76C299.589 237 299.309 237.12 298.975 237.12Z" fill="#152C5B"/>
<defs>
<filter id="filter0_d_843_879" x="-41" y="4" width="694" height="354" filterUnits="userSpaceOnUse" color-interpolation-filters="sRGB">
<feFlood flood-opacity="0" result="BackgroundImageFix"/>
<feColorMatrix in="SourceAlpha" type="matrix" values="0 0 0 0 0 0 0 0 0 0 0 0 0 0 0 0 0 0 127 0" result="hardAlpha"/>
<feOffset dy="4"/>
<feGaussianBlur stdDeviation="2"/>
<feComposite in2="hardAlpha" operator="out"/>
<feColorMatrix type="matrix" values="0 0 0 0 0 0 0 0 0 0 0 0 0 0 0 0 0 0 0.25 0"/>
<feBlend mode="normal" in2="BackgroundImageFix" result="effect1_dropShadow_843_879"/>
<feBlend mode="normal" in="SourceGraphic" in2="effect1_dropShadow_843_879" result="shape"/>
</filter>
</defs>
</svg>
