<svg width="34" height="47" viewBox="0 0 34 47" fill="none" xmlns="http://www.w3.org/2000/svg">
<path d="M31.8333 38.6531C31.8333 39.8246 30.7344 41.3659 27.8258 42.7014C25.0473 43.9773 21.1034 44.8061 16.6667 44.8061C12.2299 44.8061 8.28601 43.9773 5.50749 42.7014C2.59891 41.3659 1.5 39.8246 1.5 38.6531C1.5 37.4816 2.59891 35.9403 5.50749 34.6047C8.28601 33.3288 12.2299 32.5 16.6667 32.5C21.1034 32.5 25.0473 33.3288 27.8258 34.6047C30.7344 35.9403 31.8333 37.4816 31.8333 38.6531Z" stroke="#152C5B" stroke-width="3"/>
<path d="M29.6667 13.6687C29.6667 17.1727 28.1074 24.1356 25.5143 30.2533C24.2238 33.2978 22.7203 36.0271 21.1063 37.9687C19.4571 39.9526 17.9216 40.8469 16.5833 40.8469C15.2451 40.8469 13.7096 39.9526 12.0603 37.9687C10.4463 36.0271 8.9429 33.2978 7.65241 30.2533C5.05923 24.1356 3.5 17.1727 3.5 13.6687C3.5 7.03816 9.26461 1.5 16.5833 1.5C23.9021 1.5 29.6667 7.03816 29.6667 13.6687Z" fill="white" stroke="#152C5B" stroke-width="3"/>
<path d="M22 15.1224C22 17.6463 19.9027 19.7449 17.25 19.7449C14.5973 19.7449 12.5 17.6463 12.5 15.1224C12.5 12.5985 14.5973 10.5 17.25 10.5C19.9027 10.5 22 12.5985 22 15.1224Z" stroke="#FF498B" stroke-width="3"/>
</svg>
