<svg width="50" height="50" viewBox="0 0 50 50" fill="none" xmlns="http://www.w3.org/2000/svg">
<g clip-path="url(#clip0_512_640)">
<rect width="50" height="50" fill="white"/>
<path d="M39.8333 39.6531C39.8333 40.8246 38.7344 42.3659 35.8258 43.7014C33.0473 44.9773 29.1034 45.8061 24.6667 45.8061C20.2299 45.8061 16.286 44.9773 13.5075 43.7014C10.5989 42.3659 9.5 40.8246 9.5 39.6531C9.5 38.4816 10.5989 36.9403 13.5075 35.6047C16.286 34.3288 20.2299 33.5 24.6667 33.5C29.1034 33.5 33.0473 34.3288 35.8258 35.6047C38.7344 36.9403 39.8333 38.4816 39.8333 39.6531Z" stroke="#152C5B" stroke-width="3"/>
<path d="M38.5362 13.6687C38.5362 17.1727 36.977 24.1356 34.3838 30.2533C33.0933 33.2978 31.5899 36.0271 29.9759 37.9687C28.3266 39.9526 26.7911 40.8469 25.4529 40.8469C24.1147 40.8469 22.5792 39.9526 20.9299 37.9687C19.3159 36.0271 17.8125 33.2978 16.522 30.2533C13.9288 24.1356 12.3696 17.1727 12.3696 13.6687C12.3696 7.03816 18.1342 1.5 25.4529 1.5C32.7716 1.5 38.5362 7.03816 38.5362 13.6687Z" fill="white" stroke="#152C5B" stroke-width="3"/>
<path d="M30.5 15.3061C30.5 17.8301 28.4027 19.9286 25.75 19.9286C23.0973 19.9286 21 17.8301 21 15.3061C21 12.7822 23.0973 10.6837 25.75 10.6837C28.4027 10.6837 30.5 12.7822 30.5 15.3061Z" stroke="#FF498B" stroke-width="3"/>
</g>
<defs>
<clipPath id="clip0_512_640">
<rect width="50" height="50" fill="white"/>
</clipPath>
</defs>
</svg>
