<svg width="273" height="57" viewBox="0 0 273 57" fill="none" xmlns="http://www.w3.org/2000/svg">
<g filter="url(#filter0_bd_722_750)">
<path d="M25.376 18.72C27.328 19.136 28.896 20.112 30.08 21.648C31.264 23.152 31.856 24.88 31.856 26.832C31.856 29.648 30.864 31.888 28.88 33.552C26.928 35.184 24.192 36 20.672 36H4.976V2.304H20.144C23.568 2.304 26.24 3.088 28.16 4.656C30.112 6.224 31.088 8.352 31.088 11.04C31.088 13.024 30.56 14.672 29.504 15.984C28.48 17.296 27.104 18.208 25.376 18.72ZM13.184 15.936H18.56C19.904 15.936 20.928 15.648 21.632 15.072C22.368 14.464 22.736 13.584 22.736 12.432C22.736 11.28 22.368 10.4 21.632 9.792C20.928 9.184 19.904 8.88 18.56 8.88H13.184V15.936ZM19.232 29.376C20.608 29.376 21.664 29.072 22.4 28.464C23.168 27.824 23.552 26.912 23.552 25.728C23.552 24.544 23.152 23.616 22.352 22.944C21.584 22.272 20.512 21.936 19.136 21.936H13.184V29.376H19.232ZM61.8646 22.176C61.8646 22.944 61.8166 23.744 61.7206 24.576H43.1446C43.2726 26.24 43.8006 27.52 44.7286 28.416C45.6886 29.28 46.8566 29.712 48.2326 29.712C50.2806 29.712 51.7046 28.848 52.5046 27.12H61.2406C60.7926 28.88 59.9766 30.464 58.7926 31.872C57.6406 33.28 56.1846 34.384 54.4246 35.184C52.6646 35.984 50.6966 36.384 48.5206 36.384C45.8966 36.384 43.5606 35.824 41.5126 34.704C39.4646 33.584 37.8646 31.984 36.7126 29.904C35.5606 27.824 34.9846 25.392 34.9846 22.608C34.9846 19.824 35.5446 17.392 36.6646 15.312C37.8166 13.232 39.4166 11.632 41.4646 10.512C43.5126 9.392 45.8646 8.832 48.5206 8.832C51.1126 8.832 53.4166 9.376 55.4326 10.464C57.4486 11.552 59.0166 13.104 60.1366 15.12C61.2886 17.136 61.8646 19.488 61.8646 22.176ZM53.4646 20.016C53.4646 18.608 52.9846 17.488 52.0246 16.656C51.0646 15.824 49.8646 15.408 48.4246 15.408C47.0486 15.408 45.8806 15.808 44.9206 16.608C43.9926 17.408 43.4166 18.544 43.1926 20.016H53.4646ZM77.0908 36.384C74.7548 36.384 72.6748 35.984 70.8508 35.184C69.0268 34.384 67.5868 33.296 66.5308 31.92C65.4748 30.512 64.8828 28.944 64.7548 27.216H72.8668C72.9628 28.144 73.3948 28.896 74.1628 29.472C74.9308 30.048 75.8748 30.336 76.9948 30.336C78.0188 30.336 78.8028 30.144 79.3468 29.76C79.9228 29.344 80.2108 28.816 80.2108 28.176C80.2108 27.408 79.8108 26.848 79.0108 26.496C78.2108 26.112 76.9148 25.696 75.1228 25.248C73.2028 24.8 71.6028 24.336 70.3228 23.856C69.0428 23.344 67.9388 22.56 67.0108 21.504C66.0828 20.416 65.6188 18.96 65.6188 17.136C65.6188 15.6 66.0348 14.208 66.8668 12.96C67.7308 11.68 68.9788 10.672 70.6108 9.936C72.2748 9.2 74.2428 8.832 76.5148 8.832C79.8748 8.832 82.5148 9.664 84.4348 11.328C86.3868 12.992 87.5068 15.2 87.7948 17.952H80.2108C80.0828 17.024 79.6668 16.288 78.9628 15.744C78.2908 15.2 77.3948 14.928 76.2748 14.928C75.3148 14.928 74.5788 15.12 74.0668 15.504C73.5548 15.856 73.2988 16.352 73.2988 16.992C73.2988 17.76 73.6988 18.336 74.4988 18.72C75.3308 19.104 76.6108 19.488 78.3388 19.872C80.3228 20.384 81.9388 20.896 83.1868 21.408C84.4348 21.888 85.5228 22.688 86.4508 23.808C87.4108 24.896 87.9068 26.368 87.9388 28.224C87.9388 29.792 87.4908 31.2 86.5948 32.448C85.7308 33.664 84.4668 34.624 82.8028 35.328C81.1708 36.032 79.2668 36.384 77.0908 36.384ZM107.888 29.04V36H103.712C100.736 36 98.4164 35.28 96.7524 33.84C95.0884 32.368 94.2564 29.984 94.2564 26.688V16.032H90.9924V9.216H94.2564V2.688H102.464V9.216H107.84V16.032H102.464V26.784C102.464 27.584 102.656 28.16 103.04 28.512C103.424 28.864 104.064 29.04 104.96 29.04H107.888Z" fill="#3252DF"/>
<path d="M132.86 18.72C134.812 19.136 136.38 20.112 137.564 21.648C138.748 23.152 139.34 24.88 139.34 26.832C139.34 29.648 138.348 31.888 136.364 33.552C134.412 35.184 131.676 36 128.156 36H112.46V2.304H127.628C131.052 2.304 133.724 3.088 135.644 4.656C137.596 6.224 138.572 8.352 138.572 11.04C138.572 13.024 138.044 14.672 136.988 15.984C135.964 17.296 134.588 18.208 132.86 18.72ZM120.668 15.936H126.044C127.388 15.936 128.412 15.648 129.116 15.072C129.852 14.464 130.22 13.584 130.22 12.432C130.22 11.28 129.852 10.4 129.116 9.792C128.412 9.184 127.388 8.88 126.044 8.88H120.668V15.936ZM126.716 29.376C128.092 29.376 129.148 29.072 129.884 28.464C130.652 27.824 131.036 26.912 131.036 25.728C131.036 24.544 130.636 23.616 129.836 22.944C129.068 22.272 127.996 21.936 126.62 21.936H120.668V29.376H126.716ZM170.549 9.216V36H162.341V32.352C161.509 33.536 160.373 34.496 158.933 35.232C157.525 35.936 155.957 36.288 154.229 36.288C152.181 36.288 150.373 35.84 148.805 34.944C147.237 34.016 146.021 32.688 145.157 30.96C144.293 29.232 143.861 27.2 143.861 24.864V9.216H152.021V23.76C152.021 25.552 152.485 26.944 153.413 27.936C154.341 28.928 155.589 29.424 157.157 29.424C158.757 29.424 160.021 28.928 160.949 27.936C161.877 26.944 162.341 25.552 162.341 23.76V9.216H170.549ZM174.813 22.56C174.813 19.808 175.325 17.392 176.349 15.312C177.405 13.232 178.829 11.632 180.621 10.512C182.413 9.392 184.413 8.832 186.621 8.832C188.381 8.832 189.981 9.2 191.421 9.936C192.893 10.672 194.045 11.664 194.877 12.912V0.48H203.085V36H194.877V32.16C194.109 33.44 193.005 34.464 191.565 35.232C190.157 36 188.509 36.384 186.621 36.384C184.413 36.384 182.413 35.824 180.621 34.704C178.829 33.552 177.405 31.936 176.349 29.856C175.325 27.744 174.813 25.312 174.813 22.56ZM194.877 22.608C194.877 20.56 194.301 18.944 193.149 17.76C192.029 16.576 190.653 15.984 189.021 15.984C187.389 15.984 185.997 16.576 184.845 17.76C183.725 18.912 183.165 20.512 183.165 22.56C183.165 24.608 183.725 26.24 184.845 27.456C185.997 28.64 187.389 29.232 189.021 29.232C190.653 29.232 192.029 28.64 193.149 27.456C194.301 26.272 194.877 24.656 194.877 22.608ZM207.391 22.56C207.391 19.808 207.903 17.392 208.927 15.312C209.983 13.232 211.407 11.632 213.199 10.512C214.991 9.392 216.991 8.832 219.199 8.832C220.959 8.832 222.559 9.2 223.999 9.936C225.471 10.672 226.623 11.664 227.455 12.912V0.48H235.663V36H227.455V32.16C226.687 33.44 225.583 34.464 224.143 35.232C222.735 36 221.087 36.384 219.199 36.384C216.991 36.384 214.991 35.824 213.199 34.704C211.407 33.552 209.983 31.936 208.927 29.856C207.903 27.744 207.391 25.312 207.391 22.56ZM227.455 22.608C227.455 20.56 226.879 18.944 225.727 17.76C224.607 16.576 223.231 15.984 221.599 15.984C219.967 15.984 218.575 16.576 217.423 17.76C216.303 18.912 215.743 20.512 215.743 22.56C215.743 24.608 216.303 26.24 217.423 27.456C218.575 28.64 219.967 29.232 221.599 29.232C223.231 29.232 224.607 28.64 225.727 27.456C226.879 26.272 227.455 24.656 227.455 22.608ZM268.961 9.216L252.161 48.72H243.329L249.473 35.088L238.577 9.216H247.745L253.937 25.968L260.081 9.216H268.961Z" fill="#152C5B"/>
</g>
<defs>
<filter id="filter0_bd_722_750" x="0.975998" y="-3.52" width="271.985" height="60.24" filterUnits="userSpaceOnUse" color-interpolation-filters="sRGB">
<feFlood flood-opacity="0" result="BackgroundImageFix"/>
<feGaussianBlur in="BackgroundImageFix" stdDeviation="2"/>
<feComposite in2="SourceAlpha" operator="in" result="effect1_backgroundBlur_722_750"/>
<feColorMatrix in="SourceAlpha" type="matrix" values="0 0 0 0 0 0 0 0 0 0 0 0 0 0 0 0 0 0 127 0" result="hardAlpha"/>
<feOffset dy="4"/>
<feGaussianBlur stdDeviation="2"/>
<feComposite in2="hardAlpha" operator="out"/>
<feColorMatrix type="matrix" values="0 0 0 0 0 0 0 0 0 0 0 0 0 0 0 0 0 0 0.25 0"/>
<feBlend mode="normal" in2="effect1_backgroundBlur_722_750" result="effect2_dropShadow_722_750"/>
<feBlend mode="normal" in="SourceGraphic" in2="effect2_dropShadow_722_750" result="shape"/>
</filter>
</defs>
</svg>
