<svg width="107" height="45" viewBox="0 0 107 45" fill="none" xmlns="http://www.w3.org/2000/svg">
<g filter="url(#filter0_b_883_957)">
<ellipse cx="53.5" cy="22.5" rx="53.5" ry="22.5" fill="url(#paint0_linear_883_957)" fill-opacity="0.21"/>
</g>
<path d="M22 23C22 27.3218 18.0723 31 13 31C7.92772 31 4 27.3218 4 23C4 18.6782 7.92772 15 13 15C18.0723 15 22 18.6782 22 23Z" stroke="#FF498B" stroke-width="2"/>
<path d="M32 23C32 27.3218 28.0723 31 23 31C17.9277 31 14 27.3218 14 23C14 18.6782 17.9277 15 23 15C28.0723 15 32 18.6782 32 23Z" stroke="#152C5B" stroke-width="2"/>
<path d="M17.1667 19.3333C17.1667 18.8731 17.5398 18.5 18 18.5V18.5C18.4602 18.5 18.8333 18.8731 18.8333 19.3333V27.1667C18.8333 27.6269 18.4602 28 18 28V28C17.5398 28 17.1667 27.6269 17.1667 27.1667V19.3333Z" fill="url(#paint1_linear_883_957)"/>
<defs>
<filter id="filter0_b_883_957" x="-10" y="-10" width="127" height="65" filterUnits="userSpaceOnUse" color-interpolation-filters="sRGB">
<feFlood flood-opacity="0" result="BackgroundImageFix"/>
<feGaussianBlur in="BackgroundImageFix" stdDeviation="5"/>
<feComposite in2="SourceAlpha" operator="in" result="effect1_backgroundBlur_883_957"/>
<feBlend mode="normal" in="SourceGraphic" in2="effect1_backgroundBlur_883_957" result="shape"/>
</filter>
<linearGradient id="paint0_linear_883_957" x1="53.5" y1="0" x2="53.5" y2="45" gradientUnits="userSpaceOnUse">
<stop stop-color="#152C5B"/>
<stop offset="1" stop-color="#FF498B"/>
</linearGradient>
<linearGradient id="paint1_linear_883_957" x1="18" y1="19.25" x2="18" y2="26" gradientUnits="userSpaceOnUse">
<stop stop-color="#3252DF"/>
<stop offset="1" stop-color="#3252DF" stop-opacity="0.3"/>
</linearGradient>
</defs>
</svg>
