<svg width="236" height="214" viewBox="0 0 236 214" fill="none" xmlns="http://www.w3.org/2000/svg">
<rect x="0.989868" width="234.184" height="213.815" fill="#D9D9D9"/>
<path d="M119.253 83.3878C135.421 83.3878 148.526 71.4233 148.526 56.6609C148.526 41.8985 135.421 29.9341 119.253 29.9341C103.084 29.9341 89.9796 41.8985 89.9796 56.6609C89.9796 71.4233 103.084 83.3878 119.253 83.3878ZM141.162 90.1948L130.23 130.16L122.912 101.762L130.23 90.0695H108.275L115.593 101.762L108.275 130.16L97.3436 90.1948C81.0377 90.9047 68.0249 103.078 68.0249 118.133V126.819C68.0249 132.352 72.9418 136.841 79.0023 136.841H159.503C165.563 136.841 170.48 132.352 170.48 126.819V118.133C170.48 103.078 157.468 90.9047 141.162 90.1948Z" fill="#152C5B"/>
<ellipse cx="156" cy="119.5" rx="6" ry="5.5" fill="#FF498B"/>
<ellipse cx="147" cy="119.5" rx="6" ry="5.5" fill="#FF498B"/>
<path d="M68.6274 171.325C68.6274 172.032 68.4607 172.698 68.1274 173.325C67.794 173.952 67.2607 174.465 66.5274 174.865C65.794 175.252 64.854 175.445 63.7074 175.445H61.1874V181.085H58.9074V167.185H63.7074C64.774 167.185 65.674 167.372 66.4074 167.745C67.154 168.105 67.7074 168.598 68.0674 169.225C68.4407 169.852 68.6274 170.552 68.6274 171.325ZM63.7074 173.585C64.574 173.585 65.2207 173.392 65.6474 173.005C66.074 172.605 66.2874 172.045 66.2874 171.325C66.2874 169.805 65.4274 169.045 63.7074 169.045H61.1874V173.585H63.7074ZM73.0819 171.665C73.4152 171.105 73.8552 170.672 74.4019 170.365C74.9619 170.045 75.6219 169.885 76.3819 169.885V172.245H75.8019C74.9086 172.245 74.2286 172.472 73.7619 172.925C73.3086 173.378 73.0819 174.165 73.0819 175.285V181.085H70.8019V170.065H73.0819V171.665ZM83.2577 181.265C82.2177 181.265 81.2777 181.032 80.4377 180.565C79.5977 180.085 78.9377 179.418 78.4577 178.565C77.9777 177.698 77.7377 176.698 77.7377 175.565C77.7377 174.445 77.9843 173.452 78.4777 172.585C78.971 171.718 79.6443 171.052 80.4977 170.585C81.351 170.118 82.3043 169.885 83.3577 169.885C84.411 169.885 85.3643 170.118 86.2177 170.585C87.071 171.052 87.7443 171.718 88.2377 172.585C88.731 173.452 88.9777 174.445 88.9777 175.565C88.9777 176.685 88.7243 177.678 88.2177 178.545C87.711 179.412 87.0177 180.085 86.1377 180.565C85.271 181.032 84.311 181.265 83.2577 181.265ZM83.2577 179.285C83.8443 179.285 84.391 179.145 84.8977 178.865C85.4177 178.585 85.8377 178.165 86.1577 177.605C86.4777 177.045 86.6377 176.365 86.6377 175.565C86.6377 174.765 86.4843 174.092 86.1777 173.545C85.871 172.985 85.4643 172.565 84.9577 172.285C84.451 172.005 83.9043 171.865 83.3177 171.865C82.731 171.865 82.1843 172.005 81.6777 172.285C81.1843 172.565 80.791 172.985 80.4977 173.545C80.2043 174.092 80.0577 174.765 80.0577 175.565C80.0577 176.752 80.3577 177.672 80.9577 178.325C81.571 178.965 82.3377 179.285 83.2577 179.285ZM95.8516 171.925H93.8116V181.085H91.5116V171.925H90.2116V170.065H91.5116V169.285C91.5116 168.018 91.8449 167.098 92.5116 166.525C93.1916 165.938 94.2516 165.645 95.6916 165.645V167.545C94.9982 167.545 94.5116 167.678 94.2316 167.945C93.9516 168.198 93.8116 168.645 93.8116 169.285V170.065H95.8516V171.925ZM107.972 175.305C107.972 175.718 107.946 176.092 107.892 176.425H99.4722C99.5389 177.305 99.8655 178.012 100.452 178.545C101.039 179.078 101.759 179.345 102.612 179.345C103.839 179.345 104.706 178.832 105.212 177.805H107.672C107.339 178.818 106.732 179.652 105.852 180.305C104.986 180.945 103.906 181.265 102.612 181.265C101.559 181.265 100.612 181.032 99.7722 180.565C98.9455 180.085 98.2922 179.418 97.8122 178.565C97.3455 177.698 97.1122 176.698 97.1122 175.565C97.1122 174.432 97.3389 173.438 97.7922 172.585C98.2589 171.718 98.9055 171.052 99.7322 170.585C100.572 170.118 101.532 169.885 102.612 169.885C103.652 169.885 104.579 170.112 105.392 170.565C106.206 171.018 106.839 171.658 107.292 172.485C107.746 173.298 107.972 174.238 107.972 175.305ZM105.592 174.585C105.579 173.745 105.279 173.072 104.692 172.565C104.106 172.058 103.379 171.805 102.512 171.805C101.726 171.805 101.052 172.058 100.492 172.565C99.9322 173.058 99.5989 173.732 99.4922 174.585H105.592ZM114.216 181.265C113.349 181.265 112.569 181.112 111.876 180.805C111.196 180.485 110.656 180.058 110.256 179.525C109.856 178.978 109.643 178.372 109.616 177.705H111.976C112.016 178.172 112.236 178.565 112.636 178.885C113.049 179.192 113.563 179.345 114.176 179.345C114.816 179.345 115.309 179.225 115.656 178.985C116.016 178.732 116.196 178.412 116.196 178.025C116.196 177.612 115.996 177.305 115.596 177.105C115.209 176.905 114.589 176.685 113.736 176.445C112.909 176.218 112.236 175.998 111.716 175.785C111.196 175.572 110.743 175.245 110.356 174.805C109.983 174.365 109.796 173.785 109.796 173.065C109.796 172.478 109.969 171.945 110.316 171.465C110.663 170.972 111.156 170.585 111.796 170.305C112.449 170.025 113.196 169.885 114.036 169.885C115.289 169.885 116.296 170.205 117.056 170.845C117.829 171.472 118.243 172.332 118.296 173.425H116.016C115.976 172.932 115.776 172.538 115.416 172.245C115.056 171.952 114.569 171.805 113.956 171.805C113.356 171.805 112.896 171.918 112.576 172.145C112.256 172.372 112.096 172.672 112.096 173.045C112.096 173.338 112.203 173.585 112.416 173.785C112.629 173.985 112.889 174.145 113.196 174.265C113.503 174.372 113.956 174.512 114.556 174.685C115.356 174.898 116.009 175.118 116.516 175.345C117.036 175.558 117.483 175.878 117.856 176.305C118.229 176.732 118.423 177.298 118.436 178.005C118.436 178.632 118.263 179.192 117.916 179.685C117.569 180.178 117.076 180.565 116.436 180.845C115.809 181.125 115.069 181.265 114.216 181.265ZM124.9 181.265C124.033 181.265 123.253 181.112 122.56 180.805C121.88 180.485 121.34 180.058 120.94 179.525C120.54 178.978 120.326 178.372 120.3 177.705H122.66C122.7 178.172 122.92 178.565 123.32 178.885C123.733 179.192 124.246 179.345 124.86 179.345C125.5 179.345 125.993 179.225 126.34 178.985C126.7 178.732 126.88 178.412 126.88 178.025C126.88 177.612 126.68 177.305 126.28 177.105C125.893 176.905 125.273 176.685 124.42 176.445C123.593 176.218 122.92 175.998 122.4 175.785C121.88 175.572 121.426 175.245 121.04 174.805C120.666 174.365 120.48 173.785 120.48 173.065C120.48 172.478 120.653 171.945 121 171.465C121.346 170.972 121.84 170.585 122.48 170.305C123.133 170.025 123.88 169.885 124.72 169.885C125.973 169.885 126.98 170.205 127.74 170.845C128.513 171.472 128.926 172.332 128.98 173.425H126.7C126.66 172.932 126.46 172.538 126.1 172.245C125.74 171.952 125.253 171.805 124.64 171.805C124.04 171.805 123.58 171.918 123.26 172.145C122.94 172.372 122.78 172.672 122.78 173.045C122.78 173.338 122.886 173.585 123.1 173.785C123.313 173.985 123.573 174.145 123.88 174.265C124.186 174.372 124.64 174.512 125.24 174.685C126.04 174.898 126.693 175.118 127.2 175.345C127.72 175.558 128.166 175.878 128.54 176.305C128.913 176.732 129.106 177.298 129.12 178.005C129.12 178.632 128.946 179.192 128.6 179.685C128.253 180.178 127.76 180.565 127.12 180.845C126.493 181.125 125.753 181.265 124.9 181.265ZM132.743 168.605C132.33 168.605 131.983 168.465 131.703 168.185C131.423 167.905 131.283 167.558 131.283 167.145C131.283 166.732 131.423 166.385 131.703 166.105C131.983 165.825 132.33 165.685 132.743 165.685C133.143 165.685 133.483 165.825 133.763 166.105C134.043 166.385 134.183 166.732 134.183 167.145C134.183 167.558 134.043 167.905 133.763 168.185C133.483 168.465 133.143 168.605 132.743 168.605ZM133.863 170.065V181.085H131.583V170.065H133.863ZM141.637 181.265C140.597 181.265 139.657 181.032 138.817 180.565C137.977 180.085 137.317 179.418 136.837 178.565C136.357 177.698 136.117 176.698 136.117 175.565C136.117 174.445 136.363 173.452 136.857 172.585C137.35 171.718 138.023 171.052 138.877 170.585C139.73 170.118 140.683 169.885 141.737 169.885C142.79 169.885 143.743 170.118 144.597 170.585C145.45 171.052 146.123 171.718 146.617 172.585C147.11 173.452 147.357 174.445 147.357 175.565C147.357 176.685 147.103 177.678 146.597 178.545C146.09 179.412 145.397 180.085 144.517 180.565C143.65 181.032 142.69 181.265 141.637 181.265ZM141.637 179.285C142.223 179.285 142.77 179.145 143.277 178.865C143.797 178.585 144.217 178.165 144.537 177.605C144.857 177.045 145.017 176.365 145.017 175.565C145.017 174.765 144.863 174.092 144.557 173.545C144.25 172.985 143.843 172.565 143.337 172.285C142.83 172.005 142.283 171.865 141.697 171.865C141.11 171.865 140.563 172.005 140.057 172.285C139.563 172.565 139.17 172.985 138.877 173.545C138.583 174.092 138.437 174.765 138.437 175.565C138.437 176.752 138.737 177.672 139.337 178.325C139.95 178.965 140.717 179.285 141.637 179.285ZM155.17 169.885C156.037 169.885 156.81 170.065 157.49 170.425C158.184 170.785 158.724 171.318 159.11 172.025C159.497 172.732 159.69 173.585 159.69 174.585V181.085H157.43V174.925C157.43 173.938 157.184 173.185 156.69 172.665C156.197 172.132 155.524 171.865 154.67 171.865C153.817 171.865 153.137 172.132 152.63 172.665C152.137 173.185 151.89 173.938 151.89 174.925V181.085H149.61V170.065H151.89V171.325C152.264 170.872 152.737 170.518 153.31 170.265C153.897 170.012 154.517 169.885 155.17 169.885ZM161.839 175.525C161.839 174.418 162.065 173.438 162.519 172.585C162.985 171.732 163.612 171.072 164.399 170.605C165.199 170.125 166.079 169.885 167.039 169.885C167.905 169.885 168.659 170.058 169.299 170.405C169.952 170.738 170.472 171.158 170.859 171.665V170.065H173.159V181.085H170.859V179.445C170.472 179.965 169.945 180.398 169.279 180.745C168.612 181.092 167.852 181.265 166.999 181.265C166.052 181.265 165.185 181.025 164.399 180.545C163.612 180.052 162.985 179.372 162.519 178.505C162.065 177.625 161.839 176.632 161.839 175.525ZM170.859 175.565C170.859 174.805 170.699 174.145 170.379 173.585C170.072 173.025 169.665 172.598 169.159 172.305C168.652 172.012 168.105 171.865 167.519 171.865C166.932 171.865 166.385 172.012 165.879 172.305C165.372 172.585 164.959 173.005 164.639 173.565C164.332 174.112 164.179 174.765 164.179 175.525C164.179 176.285 164.332 176.952 164.639 177.525C164.959 178.098 165.372 178.538 165.879 178.845C166.399 179.138 166.945 179.285 167.519 179.285C168.105 179.285 168.652 179.138 169.159 178.845C169.665 178.552 170.072 178.125 170.379 177.565C170.699 176.992 170.859 176.325 170.859 175.565ZM178.433 166.285V181.085H176.153V166.285H178.433Z" fill="#152C5B"/>
</svg>
