<svg width="36" height="36" viewBox="0 0 36 36" fill="none" xmlns="http://www.w3.org/2000/svg">
<path d="M26.71 25.29L23.31 21.9C24.407 20.5025 25.0022 18.7767 25 17C25 15.4177 24.5308 13.871 23.6518 12.5554C22.7727 11.2398 21.5233 10.2145 20.0615 9.60896C18.5997 9.00346 16.9911 8.84504 15.4393 9.15372C13.8874 9.4624 12.462 10.2243 11.3431 11.3431C10.2243 12.462 9.4624 13.8874 9.15372 15.4393C8.84504 16.9911 9.00347 18.5997 9.60897 20.0615C10.2145 21.5233 11.2398 22.7727 12.5554 23.6518C13.871 24.5308 15.4178 25 17 25C18.7767 25.0022 20.5025 24.407 21.9 23.31L25.29 26.71C25.383 26.8037 25.4936 26.8781 25.6154 26.9289C25.7373 26.9797 25.868 27.0058 26 27.0058C26.132 27.0058 26.2627 26.9797 26.3846 26.9289C26.5064 26.8781 26.617 26.8037 26.71 26.71C26.8037 26.617 26.8781 26.5064 26.9289 26.3846C26.9797 26.2627 27.0058 26.132 27.0058 26C27.0058 25.868 26.9797 25.7373 26.9289 25.6154C26.8781 25.4936 26.8037 25.383 26.71 25.29ZM11 17C11 15.8133 11.3519 14.6533 12.0112 13.6666C12.6705 12.6799 13.6075 11.9108 14.7039 11.4567C15.8003 11.0026 17.0067 10.8838 18.1705 11.1153C19.3344 11.3468 20.4035 11.9182 21.2426 12.7574C22.0818 13.5965 22.6532 14.6656 22.8847 15.8295C23.1162 16.9933 22.9974 18.1997 22.5433 19.2961C22.0892 20.3925 21.3201 21.3295 20.3334 21.9888C19.3467 22.6481 18.1867 23 17 23C15.4087 23 13.8826 22.3679 12.7574 21.2426C11.6321 20.1174 11 18.5913 11 17Z" fill="#152C5B"/>
<path d="M22 17C22 18.6113 21.4259 19.8426 20.553 20.6738C19.6726 21.5122 18.4283 22 17 22C15.5717 22 14.3274 21.5122 13.447 20.6738C12.5741 19.8426 12 18.6113 12 17C12 15.3887 12.5741 14.1574 13.447 13.3262C14.3274 12.4878 15.5717 12 17 12C18.4283 12 19.6726 12.4878 20.553 13.3262C21.4259 14.1574 22 15.3887 22 17Z" stroke="#FF498B" stroke-width="2"/>
</svg>
