<svg width="236" height="214" viewBox="0 0 236 214" fill="none" xmlns="http://www.w3.org/2000/svg">
<rect x="0.994873" width="234.184" height="213.815" fill="#D9D9D9"/>
<path d="M127.726 73.3236C115.674 67.9574 101.541 71.1312 93.3764 80.1724L106 91.6983C107.441 93.0138 107.441 95.1227 106 96.4173C105.291 97.0646 104.354 97.3987 103.416 97.3987C102.478 97.3987 101.541 97.0646 100.832 96.4173L89.3514 85.9354L60.0555 140.788C59.3923 142.041 59.3466 143.565 60.0555 144.901C61.2905 147.219 64.3779 148.18 66.9164 147.052L97.47 133.438L86.2182 123.165C84.7775 121.87 84.7775 119.741 86.2182 118.446C87.659 117.151 89.9688 117.151 91.3867 118.446L104.422 130.348L127.749 119.949C133.238 117.506 137.926 113.414 140.808 108.027C147.691 95.1436 141.837 79.6086 127.726 73.3236ZM148.789 66.0364C153.249 57.5381 150.939 47.4946 141.86 40.625C130.356 49.3321 129.853 63.0714 140.053 72.3422L141.883 74.0127C152.037 83.3253 167.108 82.8659 176.621 72.3631C169.097 64.0736 158.097 61.9647 148.789 66.0364Z" fill="#152C5B"/>
<path d="M98.9883 167.185L93.7683 181.085H91.1283L85.8883 167.185H88.3283L92.4483 178.745L96.5883 167.185H98.9883ZM110.995 175.305C110.995 175.718 110.968 176.092 110.915 176.425H102.495C102.562 177.305 102.888 178.012 103.475 178.545C104.062 179.078 104.782 179.345 105.635 179.345C106.862 179.345 107.728 178.832 108.235 177.805H110.695C110.362 178.818 109.755 179.652 108.875 180.305C108.008 180.945 106.928 181.265 105.635 181.265C104.582 181.265 103.635 181.032 102.795 180.565C101.968 180.085 101.315 179.418 100.835 178.565C100.368 177.698 100.135 176.698 100.135 175.565C100.135 174.432 100.362 173.438 100.815 172.585C101.282 171.718 101.928 171.052 102.755 170.585C103.595 170.118 104.555 169.885 105.635 169.885C106.675 169.885 107.602 170.112 108.415 170.565C109.228 171.018 109.862 171.658 110.315 172.485C110.768 173.298 110.995 174.238 110.995 175.305ZM108.615 174.585C108.602 173.745 108.302 173.072 107.715 172.565C107.128 172.058 106.402 171.805 105.535 171.805C104.748 171.805 104.075 172.058 103.515 172.565C102.955 173.058 102.622 173.732 102.515 174.585H108.615ZM117.679 169.885C118.532 169.885 119.285 170.058 119.939 170.405C120.605 170.738 121.125 171.158 121.499 171.665V170.065H123.799V181.265C123.799 182.278 123.585 183.178 123.159 183.965C122.732 184.765 122.112 185.392 121.299 185.845C120.499 186.298 119.539 186.525 118.419 186.525C116.925 186.525 115.685 186.172 114.699 185.465C113.712 184.772 113.152 183.825 113.019 182.625H115.279C115.452 183.198 115.819 183.658 116.379 184.005C116.952 184.365 117.632 184.545 118.419 184.545C119.339 184.545 120.079 184.265 120.639 183.705C121.212 183.145 121.499 182.332 121.499 181.265V179.425C121.112 179.945 120.585 180.385 119.919 180.745C119.265 181.092 118.519 181.265 117.679 181.265C116.719 181.265 115.839 181.025 115.039 180.545C114.252 180.052 113.625 179.372 113.159 178.505C112.705 177.625 112.479 176.632 112.479 175.525C112.479 174.418 112.705 173.438 113.159 172.585C113.625 171.732 114.252 171.072 115.039 170.605C115.839 170.125 116.719 169.885 117.679 169.885ZM121.499 175.565C121.499 174.805 121.339 174.145 121.019 173.585C120.712 173.025 120.305 172.598 119.799 172.305C119.292 172.012 118.745 171.865 118.159 171.865C117.572 171.865 117.025 172.012 116.519 172.305C116.012 172.585 115.599 173.005 115.279 173.565C114.972 174.112 114.819 174.765 114.819 175.525C114.819 176.285 114.972 176.952 115.279 177.525C115.599 178.098 116.012 178.538 116.519 178.845C117.039 179.138 117.585 179.285 118.159 179.285C118.745 179.285 119.292 179.138 119.799 178.845C120.305 178.552 120.712 178.125 121.019 177.565C121.339 176.992 121.499 176.325 121.499 175.565ZM126.033 175.525C126.033 174.418 126.26 173.438 126.713 172.585C127.18 171.732 127.807 171.072 128.593 170.605C129.393 170.125 130.273 169.885 131.233 169.885C132.1 169.885 132.853 170.058 133.493 170.405C134.147 170.738 134.667 171.158 135.053 171.665V170.065H137.353V181.085H135.053V179.445C134.667 179.965 134.14 180.398 133.473 180.745C132.807 181.092 132.047 181.265 131.193 181.265C130.247 181.265 129.38 181.025 128.593 180.545C127.807 180.052 127.18 179.372 126.713 178.505C126.26 177.625 126.033 176.632 126.033 175.525ZM135.053 175.565C135.053 174.805 134.893 174.145 134.573 173.585C134.267 173.025 133.86 172.598 133.353 172.305C132.847 172.012 132.3 171.865 131.713 171.865C131.127 171.865 130.58 172.012 130.073 172.305C129.567 172.585 129.153 173.005 128.833 173.565C128.527 174.112 128.373 174.765 128.373 175.525C128.373 176.285 128.527 176.952 128.833 177.525C129.153 178.098 129.567 178.538 130.073 178.845C130.593 179.138 131.14 179.285 131.713 179.285C132.3 179.285 132.847 179.138 133.353 178.845C133.86 178.552 134.267 178.125 134.573 177.565C134.893 176.992 135.053 176.325 135.053 175.565ZM145.908 169.885C146.775 169.885 147.548 170.065 148.228 170.425C148.921 170.785 149.461 171.318 149.848 172.025C150.235 172.732 150.428 173.585 150.428 174.585V181.085H148.168V174.925C148.168 173.938 147.921 173.185 147.428 172.665C146.935 172.132 146.261 171.865 145.408 171.865C144.555 171.865 143.875 172.132 143.368 172.665C142.875 173.185 142.628 173.938 142.628 174.925V181.085H140.348V170.065H142.628V171.325C143.001 170.872 143.475 170.518 144.048 170.265C144.635 170.012 145.255 169.885 145.908 169.885Z" fill="#152C5B"/>
<path d="M86.4763 116.479C87.6026 115.264 89.5008 115.192 90.7159 116.319L106.85 131.275C108.065 132.401 108.137 134.299 107.011 135.514L105.574 137.064C104.447 138.279 102.549 138.351 101.334 137.225L85.2001 122.269C83.985 121.142 83.9131 119.244 85.0395 118.029L86.4763 116.479Z" fill="#FF498B"/>
<path d="M89.4762 80.2001C90.6026 78.985 92.5008 78.9131 93.7158 80.0395L109.85 94.9958C111.065 96.1222 111.137 98.0203 110.011 99.2354L108.574 100.785C107.447 102 105.549 102.072 104.334 100.946L88.2001 85.9896C86.985 84.8632 86.9131 82.9651 88.0395 81.75L89.4762 80.2001Z" fill="#FF498B"/>
</svg>
